Workaround Round Bold.ufo
<glyph name="exclam" format="1">
  <advance width="360"/>
  <unicode hex="0021"/>
  <outline>
    <contour>
      <point x="225" y="118" type="line" smooth="yes"/>
      <point x="225" y="171"/>
      <point x="174" y="215"/>
      <point x="112" y="215" type="curve" smooth="yes"/>
      <point x="50" y="215"/>
      <point x="0" y="171"/>
      <point x="0" y="118" type="curve" smooth="yes"/>
      <point x="0" y="91" type="line" smooth="yes"/>
      <point x="0" y="38"/>
      <point x="50" y="-6"/>
      <point x="112" y="-6" type="curve" smooth="yes"/>
      <point x="174" y="-6"/>
      <point x="225" y="38"/>
      <point x="225" y="91" type="curve" smooth="yes"/>
    </contour>
    <contour>
      <point x="225" y="909" type="line"/>
      <point x="225" y="962"/>
      <point x="174" y="1006"/>
      <point x="112" y="1006" type="curve" smooth="yes"/>
      <point x="50" y="1006"/>
      <point x="0" y="962"/>
      <point x="0" y="909" type="curve" smooth="yes"/>
      <point x="15" y="429" type="line" smooth="yes"/>
      <point x="15" y="382"/>
      <point x="58" y="345"/>
      <point x="112" y="345" type="curve" smooth="yes"/>
      <point x="166" y="345"/>
      <point x="210" y="382"/>
      <point x="210" y="429" type="curve"/>
    </contour>
  </outline>
</glyph>
<glyph name="quotedbl" format="1">
  <advance width="671"/>
  <unicode hex="0022"/>
  <outline>
    <contour>
      <point x="209" y="902" type="line" smooth="yes"/>
      <point x="215" y="938"/>
      <point x="197" y="972"/>
      <point x="162" y="991" type="curve" smooth="yes"/>
      <point x="126" y="1011"/>
      <point x="84" y="1011"/>
      <point x="48" y="991" type="curve" smooth="yes"/>
      <point x="13" y="972"/>
      <point x="-5" y="938"/>
      <point x="1" y="902" type="curve" smooth="yes"/>
      <point x="34" y="706" type="line" smooth="yes"/>
      <point x="40" y="676"/>
      <point x="69" y="654"/>
      <point x="105" y="654" type="curve" smooth="yes"/>
      <point x="141" y="654"/>
      <point x="171" y="676"/>
      <point x="176" y="706" type="curve" smooth="yes"/>
    </contour>
    <contour>
      <point x="534" y="902" type="line" smooth="yes"/>
      <point x="541" y="938"/>
      <point x="523" y="972"/>
      <point x="487" y="991" type="curve" smooth="yes"/>
      <point x="452" y="1011"/>
      <point x="409" y="1011"/>
      <point x="374" y="991" type="curve" smooth="yes"/>
      <point x="338" y="972"/>
      <point x="321" y="938"/>
      <point x="327" y="902" type="curve" smooth="yes"/>
      <point x="360" y="706" type="line" smooth="yes"/>
      <point x="365" y="676"/>
      <point x="395" y="654"/>
      <point x="431" y="654" type="curve" smooth="yes"/>
      <point x="466" y="654"/>
      <point x="496" y="676"/>
      <point x="501" y="706" type="curve" smooth="yes"/>
    </contour>
  </outline>
</glyph>
<glyph name="numbersign" format="1">
  <advance width="1069"/>
  <unicode hex="0023"/>
  <outline>
    <contour>
      <point x="561" y="603" type="line"/>
      <point x="520" y="397" type="line"/>
      <point x="373" y="397" type="line"/>
      <point x="414" y="603" type="line"/>
    </contour>
    <contour>
      <point x="771" y="603" type="line"/>
      <point x="815" y="603" type="line" smooth="yes"/>
      <point x="869" y="603"/>
      <point x="921" y="646"/>
      <point x="932" y="700" type="curve" smooth="yes"/>
      <point x="943" y="754"/>
      <point x="908" y="797"/>
      <point x="853" y="797" type="curve" smooth="yes"/>
      <point x="810" y="797" type="line"/>
      <point x="833" y="915" type="line" smooth="yes"/>
      <point x="843" y="965"/>
      <point x="805" y="1006"/>
      <point x="747" y="1006" type="curve" smooth="yes"/>
      <point x="689" y="1006"/>
      <point x="633" y="965"/>
      <point x="623" y="915" type="curve" smooth="yes"/>
      <point x="600" y="797" type="line"/>
      <point x="453" y="797" type="line"/>
      <point x="476" y="915" type="line" smooth="yes"/>
      <point x="486" y="965"/>
      <point x="448" y="1006"/>
      <point x="390" y="1006" type="curve" smooth="yes"/>
      <point x="332" y="1006"/>
      <point x="276" y="965"/>
      <point x="266" y="915" type="curve" smooth="yes"/>
      <point x="243" y="797" type="line"/>
      <point x="199" y="797" type="line" smooth="yes"/>
      <point x="145" y="797"/>
      <point x="93" y="754"/>
      <point x="82" y="700" type="curve" smooth="yes"/>
      <point x="71" y="646"/>
      <point x="106" y="603"/>
      <point x="160" y="603" type="curve" smooth="yes"/>
      <point x="204" y="603" type="line"/>
      <point x="163" y="397" type="line"/>
      <point x="119" y="397" type="line" smooth="yes"/>
      <point x="65" y="397"/>
      <point x="13" y="354"/>
      <point x="2" y="300" type="curve" smooth="yes"/>
      <point x="-9" y="246"/>
      <point x="26" y="203"/>
      <point x="80" y="203" type="curve" smooth="yes"/>
      <point x="124" y="203" type="line"/>
      <point x="100" y="85" type="line" smooth="yes"/>
      <point x="90" y="35"/>
      <point x="129" y="-6"/>
      <point x="187" y="-6" type="curve" smooth="yes"/>
      <point x="245" y="-6"/>
      <point x="300" y="35"/>
      <point x="310" y="85" type="curve" smooth="yes"/>
      <point x="334" y="203" type="line"/>
      <point x="481" y="203" type="line"/>
      <point x="457" y="85" type="line" smooth="yes"/>
      <point x="447" y="35"/>
      <point x="486" y="-6"/>
      <point x="544" y="-6" type="curve" smooth="yes"/>
      <point x="602" y="-6"/>
      <point x="657" y="35"/>
      <point x="667" y="85" type="curve" smooth="yes"/>
      <point x="691" y="203" type="line"/>
      <point x="735" y="203" type="line" smooth="yes"/>
      <point x="789" y="203"/>
      <point x="841" y="246"/>
      <point x="852" y="300" type="curve" smooth="yes"/>
      <point x="863" y="354"/>
      <point x="828" y="397"/>
      <point x="773" y="397" type="curve" smooth="yes"/>
      <point x="730" y="397" type="line"/>
    </contour>
  </outline>
</glyph>
<glyph name="dollar" format="1">
  <advance width="802"/>
  <unicode hex="0024"/>
  <outline>
    <contour>
      <point x="401" y="6" type="line"/>
      <point x="554" y="43"/>
      <point x="667" y="169"/>
      <point x="667" y="318" type="curve" smooth="yes"/>
      <point x="667" y="480"/>
      <point x="550" y="566"/>
      <point x="401" y="621" type="curve"/>
      <point x="401" y="796" type="line"/>
      <point x="407" y="793"/>
      <point x="413" y="791"/>
      <point x="418" y="787" type="curve"/>
      <point x="453" y="750"/>
      <point x="514" y="750"/>
      <point x="555" y="788" type="curve" smooth="yes"/>
      <point x="595" y="825"/>
      <point x="600" y="886"/>
      <point x="565" y="924" type="curve"/>
      <point x="518" y="963"/>
      <point x="463" y="988"/>
      <point x="401" y="999" type="curve"/>
      <point x="401" y="1060" type="line" smooth="yes"/>
      <point x="401" y="1095"/>
      <point x="368" y="1123"/>
      <point x="328" y="1123" type="curve" smooth="yes"/>
      <point x="287" y="1123"/>
      <point x="254" y="1095"/>
      <point x="254" y="1060" type="curve" smooth="yes"/>
      <point x="254" y="999" type="line"/>
      <point x="117" y="972"/>
      <point x="14" y="860"/>
      <point x="14" y="727" type="curve" smooth="yes"/>
      <point x="14" y="587"/>
      <point x="124" y="514"/>
      <point x="254" y="466" type="curve"/>
      <point x="254" y="193" type="line"/>
      <point x="223" y="199"/>
      <point x="195" y="210"/>
      <point x="170" y="226" type="curve"/>
      <point x="135" y="263"/>
      <point x="74" y="263"/>
      <point x="34" y="226" type="curve" smooth="yes"/>
      <point x="-7" y="188"/>
      <point x="-11" y="128"/>
      <point x="23" y="90" type="curve"/>
      <point x="88" y="36"/>
      <point x="165" y="5"/>
      <point x="254" y="-3" type="curve"/>
      <point x="254" y="-60" type="line" smooth="yes"/>
      <point x="254" y="-95"/>
      <point x="287" y="-123"/>
      <point x="328" y="-123" type="curve" smooth="yes"/>
      <point x="368" y="-123"/>
      <point x="401" y="-95"/>
      <point x="401" y="-60" type="curve" smooth="yes"/>
    </contour>
    <contour>
      <point x="254" y="787" type="curve"/>
      <point x="254" y="684" type="line"/>
      <point x="238" y="696"/>
      <point x="227" y="710"/>
      <point x="227" y="727" type="curve" smooth="yes"/>
      <point x="227" y="750"/>
      <point x="237" y="771"/>
    </contour>
    <contour>
      <point x="401" y="220" type="curve"/>
      <point x="401" y="401" type="line"/>
      <point x="431" y="380"/>
      <point x="452" y="353"/>
      <point x="452" y="318" type="curve" smooth="yes"/>
      <point x="452" y="279"/>
      <point x="432" y="244"/>
    </contour>
  </outline>
</glyph>
<glyph name="percent" format="1">
  <advance width="1247"/>
  <unicode hex="0025"/>
  <outline>
    <contour>
      <point x="171" y="757" type="curve" smooth="yes"/>
      <point x="171" y="809"/>
      <point x="215" y="850"/>
      <point x="269" y="850" type="curve" smooth="yes"/>
      <point x="323" y="850"/>
      <point x="367" y="809"/>
      <point x="367" y="757" type="curve" smooth="yes"/>
      <point x="367" y="706"/>
      <point x="323" y="664"/>
      <point x="269" y="664" type="curve" smooth="yes"/>
      <point x="215" y="664"/>
      <point x="171" y="706"/>
    </contour>
    <contour>
      <point x="0" y="757" type="curve" smooth="yes"/>
      <point x="0" y="620"/>
      <point x="120" y="509"/>
      <point x="269" y="509" type="curve" smooth="yes"/>
      <point x="417" y="509"/>
      <point x="538" y="620"/>
      <point x="538" y="757" type="curve" smooth="yes"/>
      <point x="538" y="895"/>
      <point x="417" y="1006"/>
      <point x="269" y="1006" type="curve" smooth="yes"/>
      <point x="120" y="1006"/>
      <point x="0" y="895"/>
    </contour>
    <contour>
      <point x="745" y="243" type="curve" smooth="yes"/>
      <point x="745" y="294"/>
      <point x="789" y="336"/>
      <point x="843" y="336" type="curve" smooth="yes"/>
      <point x="897" y="336"/>
      <point x="941" y="294"/>
      <point x="941" y="243" type="curve" smooth="yes"/>
      <point x="941" y="191"/>
      <point x="897" y="150"/>
      <point x="843" y="150" type="curve" smooth="yes"/>
      <point x="789" y="150"/>
      <point x="745" y="191"/>
    </contour>
    <contour>
      <point x="574" y="243" type="curve" smooth="yes"/>
      <point x="574" y="105"/>
      <point x="695" y="-6"/>
      <point x="843" y="-6" type="curve" smooth="yes"/>
      <point x="991" y="-6"/>
      <point x="1112" y="105"/>
      <point x="1112" y="243" type="curve" smooth="yes"/>
      <point x="1112" y="380"/>
      <point x="991" y="491"/>
      <point x="843" y="491" type="curve" smooth="yes"/>
      <point x="695" y="491"/>
      <point x="574" y="380"/>
    </contour>
    <contour>
      <point x="1021" y="897" type="line" smooth="yes"/>
      <point x="1039" y="917"/>
      <point x="1044" y="944"/>
      <point x="1034" y="971" type="curve" smooth="yes"/>
      <point x="1024" y="998"/>
      <point x="1003" y="1017"/>
      <point x="975" y="1024" type="curve" smooth="yes"/>
      <point x="947" y="1031"/>
      <point x="921" y="1024"/>
      <point x="903" y="1003" type="curve" smooth="yes"/>
      <point x="91" y="103" type="line" smooth="yes"/>
      <point x="63" y="73"/>
      <point x="68" y="25"/>
      <point x="100" y="-5" type="curve" smooth="yes"/>
      <point x="133" y="-34"/>
      <point x="182" y="-34"/>
      <point x="209" y="-3" type="curve" smooth="yes"/>
    </contour>
  </outline>
</glyph>
<glyph name="ampersand" format="1">
  <advance width="981"/>
  <unicode hex="0026"/>
  <outline>
    <contour>
      <point x="302" y="637" type="curve"/>
      <point x="293" y="650"/>
      <point x="284" y="664"/>
      <point x="275" y="677" type="curve" smooth="yes"/>
      <point x="265" y="693"/>
      <point x="260" y="708"/>
      <point x="260" y="727" type="curve" smooth="yes"/>
      <point x="260" y="774"/>
      <point x="294" y="812"/>
      <point x="336" y="812" type="curve" smooth="yes"/>
      <point x="378" y="812"/>
      <point x="412" y="774"/>
      <point x="412" y="727" type="curve" smooth="yes"/>
      <point x="412" y="668"/>
      <point x="342" y="654"/>
    </contour>
    <contour>
      <point x="549" y="385" type="curve"/>
      <point x="509" y="417"/>
      <point x="471" y="451"/>
      <point x="434" y="486" type="curve"/>
      <point x="526" y="536"/>
      <point x="622" y="605"/>
      <point x="622" y="727" type="curve" smooth="yes"/>
      <point x="622" y="881"/>
      <point x="494" y="1006"/>
      <point x="336" y="1006" type="curve" smooth="yes"/>
      <point x="178" y="1006"/>
      <point x="50" y="881"/>
      <point x="50" y="727" type="curve" smooth="yes"/>
      <point x="50" y="665"/>
      <point x="68" y="613"/>
      <point x="105" y="563" type="curve" smooth="yes"/>
      <point x="112" y="554"/>
      <point x="118" y="546"/>
      <point x="125" y="537" type="curve"/>
      <point x="55" y="486"/>
      <point x="0" y="418"/>
      <point x="0" y="318" type="curve" smooth="yes"/>
      <point x="0" y="139"/>
      <point x="151" y="-6"/>
      <point x="336" y="-6" type="curve" smooth="yes"/>
      <point x="431" y="-6"/>
      <point x="518" y="31"/>
      <point x="592" y="99" type="curve"/>
      <point x="623" y="74"/>
      <point x="654" y="48"/>
      <point x="686" y="21" type="curve" smooth="yes"/>
      <point x="725" y="-12"/>
      <point x="785" y="-6"/>
      <point x="821" y="36" type="curve" smooth="yes"/>
      <point x="856" y="78"/>
      <point x="853" y="138"/>
      <point x="814" y="172" type="curve" smooth="yes"/>
      <point x="780" y="201"/>
      <point x="745" y="230"/>
      <point x="710" y="257" type="curve"/>
      <point x="731" y="298"/>
      <point x="750" y="344"/>
      <point x="766" y="393" type="curve"/>
      <point x="785" y="440"/>
      <point x="760" y="495"/>
      <point x="708" y="518" type="curve" smooth="yes"/>
      <point x="657" y="540"/>
      <point x="599" y="521"/>
      <point x="578" y="475" type="curve"/>
      <point x="570" y="443"/>
      <point x="560" y="412"/>
    </contour>
    <contour>
      <point x="249" y="396" type="curve"/>
      <point x="310" y="335"/>
      <point x="373" y="279"/>
      <point x="438" y="225" type="curve"/>
      <point x="407" y="201"/>
      <point x="373" y="188"/>
      <point x="336" y="188" type="curve" smooth="yes"/>
      <point x="266" y="188"/>
      <point x="210" y="247"/>
      <point x="210" y="318" type="curve" smooth="yes"/>
      <point x="210" y="353"/>
      <point x="226" y="378"/>
    </contour>
  </outline>
</glyph>
<glyph name="quotesingle" format="1">
  <advance width="346"/>
  <unicode hex="0027"/>
  <outline>
    <contour>
      <point x="209" y="902" type="line" smooth="yes"/>
      <point x="215" y="938"/>
      <point x="197" y="972"/>
      <point x="162" y="991" type="curve" smooth="yes"/>
      <point x="126" y="1011"/>
      <point x="84" y="1011"/>
      <point x="48" y="991" type="curve" smooth="yes"/>
      <point x="13" y="972"/>
      <point x="-5" y="938"/>
      <point x="1" y="902" type="curve" smooth="yes"/>
      <point x="34" y="706" type="line" smooth="yes"/>
      <point x="40" y="676"/>
      <point x="69" y="654"/>
      <point x="105" y="654" type="curve" smooth="yes"/>
      <point x="141" y="654"/>
      <point x="171" y="676"/>
      <point x="176" y="706" type="curve" smooth="yes"/>
    </contour>
  </outline>
</glyph>
<glyph name="parenleft" format="1">
  <advance width="453"/>
  <unicode hex="0028"/>
  <outline>
    <contour>
      <point x="312" y="964" type="curve" smooth="yes"/>
      <point x="330" y="1011"/>
      <point x="302" y="1065"/>
      <point x="249" y="1085" type="curve" smooth="yes"/>
      <point x="196" y="1105"/>
      <point x="139" y="1083"/>
      <point x="121" y="1036" type="curve" smooth="yes"/>
      <point x="-40" y="608"/>
      <point x="-40" y="192"/>
      <point x="121" y="-236" type="curve" smooth="yes"/>
      <point x="139" y="-283"/>
      <point x="196" y="-305"/>
      <point x="249" y="-285" type="curve" smooth="yes"/>
      <point x="302" y="-265"/>
      <point x="330" y="-211"/>
      <point x="312" y="-164" type="curve" smooth="yes"/>
      <point x="169" y="215"/>
      <point x="169" y="585"/>
    </contour>
  </outline>
</glyph>
<glyph name="parenright" format="1">
  <advance width="453"/>
  <unicode hex="0029"/>
  <outline>
    <contour>
      <point x="5" y="964" type="curve" smooth="yes"/>
      <point x="149" y="585"/>
      <point x="149" y="215"/>
      <point x="5" y="-164" type="curve" smooth="yes"/>
      <point x="-12" y="-211"/>
      <point x="16" y="-265"/>
      <point x="69" y="-285" type="curve" smooth="yes"/>
      <point x="121" y="-305"/>
      <point x="179" y="-283"/>
      <point x="196" y="-236" type="curve" smooth="yes"/>
      <point x="358" y="192"/>
      <point x="358" y="608"/>
      <point x="196" y="1036" type="curve" smooth="yes"/>
      <point x="179" y="1083"/>
      <point x="121" y="1105"/>
      <point x="69" y="1085" type="curve" smooth="yes"/>
      <point x="16" y="1065"/>
      <point x="-12" y="1011"/>
    </contour>
  </outline>
</glyph>
<glyph name="asterisk" format="1">
  <advance width="625"/>
  <unicode hex="002A"/>
  <outline>
    <contour>
      <point x="323" y="976" type="line"/>
      <point x="323" y="1013"/>
      <point x="288" y="1044"/>
      <point x="245" y="1044" type="curve" smooth="yes"/>
      <point x="201" y="1044"/>
      <point x="166" y="1013"/>
      <point x="166" y="976" type="curve"/>
      <point x="190" y="871" type="line"/>
      <point x="108" y="940" type="line"/>
      <point x="74" y="959"/>
      <point x="31" y="946"/>
      <point x="10" y="911" type="curve" smooth="yes"/>
      <point x="-10" y="876"/>
      <point x="1" y="832"/>
      <point x="35" y="812" type="curve"/>
      <point x="135" y="776" type="line"/>
      <point x="35" y="740" type="line"/>
      <point x="1" y="720"/>
      <point x="-10" y="676"/>
      <point x="10" y="641" type="curve" smooth="yes"/>
      <point x="31" y="605"/>
      <point x="74" y="593"/>
      <point x="108" y="612" type="curve"/>
      <point x="190" y="681" type="line"/>
      <point x="166" y="576" type="line"/>
      <point x="166" y="538"/>
      <point x="201" y="508"/>
      <point x="245" y="508" type="curve" smooth="yes"/>
      <point x="288" y="508"/>
      <point x="323" y="538"/>
      <point x="323" y="576" type="curve"/>
      <point x="300" y="681" type="line"/>
      <point x="381" y="612" type="line"/>
      <point x="404" y="599"/>
      <point x="429" y="600"/>
      <point x="452" y="613" type="curve" smooth="yes"/>
      <point x="475" y="627"/>
      <point x="489" y="650"/>
      <point x="489" y="677" type="curve"/>
      <point x="490" y="704"/>
      <point x="477" y="727"/>
      <point x="455" y="740" type="curve"/>
      <point x="355" y="776" type="line"/>
      <point x="455" y="812" type="line"/>
      <point x="488" y="832"/>
      <point x="499" y="876"/>
      <point x="479" y="911" type="curve" smooth="yes"/>
      <point x="459" y="946"/>
      <point x="415" y="959"/>
      <point x="381" y="940" type="curve"/>
      <point x="300" y="871" type="line"/>
    </contour>
  </outline>
</glyph>
<glyph name="plus" format="1">
  <advance width="835"/>
  <unicode hex="002B"/>
  <outline>
    <contour>
      <point x="245" y="413" type="line"/>
      <point x="245" y="258" type="line" smooth="yes"/>
      <point x="245" y="208"/>
      <point x="292" y="167"/>
      <point x="350" y="167" type="curve" smooth="yes"/>
      <point x="408" y="167"/>
      <point x="455" y="208"/>
      <point x="455" y="258" type="curve" smooth="yes"/>
      <point x="455" y="413" type="line"/>
      <point x="602" y="413" type="line" smooth="yes"/>
      <point x="656" y="413"/>
      <point x="700" y="456"/>
      <point x="700" y="510" type="curve" smooth="yes"/>
      <point x="700" y="564"/>
      <point x="656" y="607"/>
      <point x="602" y="607" type="curve" smooth="yes"/>
      <point x="455" y="607" type="line"/>
      <point x="455" y="762" type="line" smooth="yes"/>
      <point x="455" y="812"/>
      <point x="408" y="853"/>
      <point x="350" y="853" type="curve" smooth="yes"/>
      <point x="292" y="853"/>
      <point x="245" y="812"/>
      <point x="245" y="762" type="curve" smooth="yes"/>
      <point x="245" y="607" type="line"/>
      <point x="98" y="607" type="line" smooth="yes"/>
      <point x="44" y="607"/>
      <point x="0" y="564"/>
      <point x="0" y="510" type="curve" smooth="yes"/>
      <point x="0" y="456"/>
      <point x="44" y="413"/>
      <point x="98" y="413" type="curve" smooth="yes"/>
    </contour>
  </outline>
</glyph>
<glyph name="hyphen" format="1">
  <advance width="585"/>
  <unicode hex="002D"/>
  <outline>
    <contour>
      <point x="352" y="413" type="line" smooth="yes"/>
      <point x="406" y="413"/>
      <point x="450" y="456"/>
      <point x="450" y="510" type="curve" smooth="yes"/>
      <point x="450" y="564"/>
      <point x="406" y="607"/>
      <point x="352" y="607" type="curve" smooth="yes"/>
      <point x="98" y="607" type="line" smooth="yes"/>
      <point x="44" y="607"/>
      <point x="0" y="564"/>
      <point x="0" y="510" type="curve" smooth="yes"/>
      <point x="0" y="456"/>
      <point x="44" y="413"/>
      <point x="98" y="413" type="curve" smooth="yes"/>
    </contour>
  </outline>
</glyph>
<glyph name="period" format="1">
  <advance width="366"/>
  <unicode hex="002E"/>
  <outline>
    <contour>
      <point x="231" y="126" type="line" smooth="yes"/>
      <point x="231" y="181"/>
      <point x="179" y="226"/>
      <point x="116" y="226" type="curve" smooth="yes"/>
      <point x="52" y="226"/>
      <point x="0" y="181"/>
      <point x="0" y="126" type="curve" smooth="yes"/>
      <point x="0" y="94" type="line" smooth="yes"/>
      <point x="0" y="39"/>
      <point x="52" y="-6"/>
      <point x="116" y="-6" type="curve" smooth="yes"/>
      <point x="179" y="-6"/>
      <point x="231" y="39"/>
      <point x="231" y="94" type="curve" smooth="yes"/>
    </contour>
  </outline>
</glyph>
<glyph name="slash" format="1">
  <advance width="668"/>
  <unicode hex="002F"/>
  <outline>
    <contour>
      <point x="529" y="976" type="line" smooth="yes"/>
      <point x="545" y="1024"/>
      <point x="513" y="1077"/>
      <point x="460" y="1094" type="curve" smooth="yes"/>
      <point x="406" y="1112"/>
      <point x="350" y="1087"/>
      <point x="334" y="1040" type="curve" smooth="yes"/>
      <point x="4" y="24" type="line" smooth="yes"/>
      <point x="-12" y="-24"/>
      <point x="20" y="-77"/>
      <point x="73" y="-94" type="curve" smooth="yes"/>
      <point x="127" y="-112"/>
      <point x="183" y="-87"/>
      <point x="199" y="-40" type="curve" smooth="yes"/>
    </contour>
  </outline>
</glyph>
<glyph name="zero" format="1">
  <advance width="883"/>
  <unicode hex="0030"/>
  <outline>
    <contour>
      <point x="215" y="472" type="curve" smooth="yes"/>
      <point x="215" y="528" type="line" smooth="yes"/>
      <point x="215" y="666"/>
      <point x="279" y="806"/>
      <point x="361" y="806" type="curve" smooth="yes"/>
      <point x="387" y="806" type="line" smooth="yes"/>
      <point x="490" y="806"/>
      <point x="533" y="683"/>
      <point x="533" y="528" type="curve" smooth="yes"/>
      <point x="533" y="472" type="line" smooth="yes"/>
      <point x="533" y="334"/>
      <point x="469" y="194"/>
      <point x="387" y="194" type="curve" smooth="yes"/>
      <point x="361" y="194" type="line" smooth="yes"/>
      <point x="258" y="194"/>
      <point x="215" y="317"/>
    </contour>
    <contour>
      <point x="0" y="472" type="line" smooth="yes"/>
      <point x="0" y="212"/>
      <point x="162" y="0"/>
      <point x="361" y="0" type="curve" smooth="yes"/>
      <point x="387" y="0" type="line" smooth="yes"/>
      <point x="586" y="0"/>
      <point x="748" y="212"/>
      <point x="748" y="472" type="curve" smooth="yes"/>
      <point x="748" y="528" type="line" smooth="yes"/>
      <point x="748" y="788"/>
      <point x="586" y="1000"/>
      <point x="387" y="1000" type="curve" smooth="yes"/>
      <point x="361" y="1000" type="line" smooth="yes"/>
      <point x="162" y="1000"/>
      <point x="0" y="788"/>
      <point x="0" y="528" type="curve" smooth="yes"/>
    </contour>
  </outline>
</glyph>
<glyph name="Digit_One" format="1">
  <advance width="525"/>
  <unicode hex="0031"/>
  <outline>
    <contour>
      <point x="389" y="899" type="line" smooth="yes"/>
      <point x="389" y="944"/>
      <point x="361" y="982"/>
      <point x="316" y="998" type="curve" smooth="yes"/>
      <point x="271" y="1015"/>
      <point x="223" y="1005"/>
      <point x="189" y="972" type="curve"/>
      <point x="27" y="798" type="line" smooth="yes"/>
      <point x="-11" y="758"/>
      <point x="-9" y="695"/>
      <point x="31" y="657" type="curve"/>
      <point x="31" y="657" type="line"/>
      <point x="72" y="620"/>
      <point x="134" y="622"/>
      <point x="172" y="662" type="curve" smooth="yes"/>
      <point x="179" y="670" type="line"/>
      <point x="179" y="91" type="line" smooth="yes"/>
      <point x="179" y="38"/>
      <point x="226" y="-6"/>
      <point x="284" y="-6" type="curve" smooth="yes"/>
      <point x="342" y="-6"/>
      <point x="389" y="38"/>
      <point x="389" y="91" type="curve" smooth="yes"/>
    </contour>
  </outline>
</glyph>
<glyph name="one" format="1">
  <advance width="551"/>
  <unicode hex="0031"/>
  <outline>
    <contour>
      <point x="416" y="906" type="line" smooth="yes"/>
      <point x="416" y="947"/>
      <point x="389" y="982"/>
      <point x="345" y="998" type="curve" smooth="yes"/>
      <point x="302" y="1014"/>
      <point x="254" y="1006"/>
      <point x="220" y="978" type="curve"/>
      <point x="27" y="792" type="line" smooth="yes"/>
      <point x="-10" y="756"/>
      <point x="-9" y="695"/>
      <point x="29" y="655" type="curve" smooth="yes"/>
      <point x="67" y="616"/>
      <point x="127" y="613"/>
      <point x="164" y="648" type="curve" smooth="yes"/>
      <point x="206" y="688" type="line"/>
      <point x="206" y="85" type="line" smooth="yes"/>
      <point x="206" y="35"/>
      <point x="253" y="-6"/>
      <point x="311" y="-6" type="curve" smooth="yes"/>
      <point x="369" y="-6"/>
      <point x="416" y="35"/>
      <point x="416" y="85" type="curve" smooth="yes"/>
    </contour>
  </outline>
</glyph>
<glyph name="2" format="1">
  <advance width="812"/>
  <unicode hex="0032"/>
  <outline>
    <contour>
      <point x="288" y="194" type="line"/>
      <point x="640" y="607" type="line"/>
      <point x="664" y="644"/>
      <point x="677" y="685"/>
      <point x="677" y="729" type="curve"/>
      <point x="677" y="729" type="line"/>
      <point x="677" y="879"/>
      <point x="525" y="1000"/>
      <point x="338" y="1000" type="curve"/>
      <point x="338" y="1000" type="line"/>
      <point x="210" y="1000"/>
      <point x="100" y="961"/>
      <point x="24" y="888" type="curve"/>
      <point x="28" y="890" type="line"/>
      <point x="-4" y="846"/>
      <point x="6" y="784"/>
      <point x="51" y="752" type="curve"/>
      <point x="51" y="752" type="line"/>
      <point x="96" y="719"/>
      <point x="158" y="728"/>
      <point x="190" y="772" type="curve"/>
      <point x="194" y="774" type="line"/>
      <point x="229" y="795"/>
      <point x="279" y="806"/>
      <point x="338" y="806" type="curve"/>
      <point x="338" y="806" type="line"/>
      <point x="409" y="806"/>
      <point x="467" y="771"/>
      <point x="467" y="729" type="curve"/>
      <point x="467" y="729" type="line"/>
      <point x="467" y="717"/>
      <point x="462" y="705"/>
      <point x="453" y="695" type="curve" smooth="yes"/>
      <point x="28" y="197" type="line" smooth="yes"/>
      <point x="11" y="176"/>
      <point x="0" y="150"/>
      <point x="0" y="121" type="curve"/>
      <point x="0" y="121" type="line"/>
      <point x="0" y="54"/>
      <point x="59" y="0"/>
      <point x="131" y="0" type="curve" smooth="yes"/>
      <point x="572" y="0" type="line" smooth="yes"/>
      <point x="630" y="0"/>
      <point x="677" y="43"/>
      <point x="677" y="97" type="curve"/>
      <point x="677" y="97" type="line"/>
      <point x="677" y="151"/>
      <point x="630" y="194"/>
      <point x="572" y="194" type="curve" smooth="yes"/>
    </contour>
  </outline>
</glyph>
<glyph name="two" format="1">
  <advance width="812"/>
  <unicode hex="0032"/>
  <outline>
    <contour>
      <point x="300" y="194" type="line"/>
      <point x="642" y="610" type="line"/>
      <point x="664" y="646"/>
      <point x="677" y="686"/>
      <point x="677" y="729" type="curve" smooth="yes"/>
      <point x="677" y="879"/>
      <point x="525" y="1000"/>
      <point x="338" y="1000" type="curve" smooth="yes"/>
      <point x="212" y="1000"/>
      <point x="101" y="959"/>
      <point x="31" y="888" type="curve"/>
      <point x="-2" y="850"/>
      <point x="4" y="790"/>
      <point x="46" y="753" type="curve" smooth="yes"/>
      <point x="88" y="717"/>
      <point x="148" y="719"/>
      <point x="182" y="757" type="curve" smooth="yes"/>
      <point x="208" y="787"/>
      <point x="268" y="806"/>
      <point x="338" y="806" type="curve" smooth="yes"/>
      <point x="409" y="806"/>
      <point x="467" y="771"/>
      <point x="467" y="729" type="curve" smooth="yes"/>
      <point x="467" y="717"/>
      <point x="462" y="706"/>
      <point x="454" y="696" type="curve" smooth="yes"/>
      <point x="24" y="174" type="line" smooth="yes"/>
      <point x="9" y="156"/>
      <point x="0" y="132"/>
      <point x="0" y="107" type="curve" smooth="yes"/>
      <point x="0" y="48"/>
      <point x="48" y="0"/>
      <point x="108" y="0" type="curve" smooth="yes"/>
      <point x="579" y="0" type="line" smooth="yes"/>
      <point x="633" y="0"/>
      <point x="677" y="43"/>
      <point x="677" y="97" type="curve" smooth="yes"/>
      <point x="677" y="151"/>
      <point x="633" y="194"/>
      <point x="579" y="194" type="curve" smooth="yes"/>
    </contour>
  </outline>
</glyph>
<glyph name="Digit_Three" format="1">
  <advance width="641"/>
  <unicode hex="0033"/>
  <outline>
    <contour>
      <point x="475" y="549" type="curve"/>
      <point x="542" y="585"/>
      <point x="587" y="651"/>
      <point x="587" y="727" type="curve"/>
      <point x="587" y="727" type="line"/>
      <point x="587" y="881"/>
      <point x="450" y="1006"/>
      <point x="280" y="1006" type="curve"/>
      <point x="280" y="1006" type="line"/>
      <point x="196" y="1006"/>
      <point x="123" y="979"/>
      <point x="63" y="924" type="curve"/>
      <point x="65" y="923" type="line"/>
      <point x="27" y="883"/>
      <point x="30" y="820"/>
      <point x="70" y="783" type="curve"/>
      <point x="70" y="783" type="line"/>
      <point x="111" y="745"/>
      <point x="174" y="748"/>
      <point x="211" y="788" type="curve"/>
      <point x="212" y="787" type="line"/>
      <point x="231" y="803"/>
      <point x="254" y="812"/>
      <point x="280" y="812" type="curve"/>
      <point x="280" y="812" type="line"/>
      <point x="330" y="812"/>
      <point x="370" y="774"/>
      <point x="370" y="727" type="curve"/>
      <point x="370" y="727" type="line"/>
      <point x="370" y="680"/>
      <point x="330" y="643"/>
      <point x="280" y="643" type="curve"/>
      <point x="280" y="643" type="line"/>
      <point x="231" y="643"/>
      <point x="191" y="599"/>
      <point x="191" y="545" type="curve"/>
      <point x="191" y="545" type="line"/>
      <point x="191" y="492"/>
      <point x="231" y="448"/>
      <point x="280" y="448" type="curve"/>
      <point x="280" y="448" type="line"/>
      <point x="358" y="448"/>
      <point x="420" y="390"/>
      <point x="420" y="318" type="curve"/>
      <point x="420" y="318" type="line"/>
      <point x="420" y="247"/>
      <point x="358" y="188"/>
      <point x="280" y="188" type="curve"/>
      <point x="280" y="188" type="line"/>
      <point x="239" y="188"/>
      <point x="203" y="201"/>
      <point x="174" y="226" type="curve"/>
      <point x="172" y="225" type="line"/>
      <point x="135" y="266"/>
      <point x="72" y="268"/>
      <point x="32" y="231" type="curve"/>
      <point x="32" y="231" type="line"/>
      <point x="-8" y="193"/>
      <point x="-11" y="130"/>
      <point x="26" y="90" type="curve"/>
      <point x="25" y="89" type="line"/>
      <point x="96" y="26"/>
      <point x="181" y="-6"/>
      <point x="280" y="-6" type="curve"/>
      <point x="280" y="-6" type="line"/>
      <point x="480" y="-6"/>
      <point x="641" y="139"/>
      <point x="641" y="318" type="curve"/>
      <point x="641" y="318" type="line"/>
      <point x="641" y="421"/>
      <point x="573" y="509"/>
    </contour>
  </outline>
</glyph>
<glyph name="three" format="1">
  <advance width="774"/>
  <unicode hex="0033"/>
  <outline>
    <contour>
      <point x="472" y="549" type="curve"/>
      <point x="539" y="585"/>
      <point x="584" y="651"/>
      <point x="584" y="727" type="curve" smooth="yes"/>
      <point x="584" y="881"/>
      <point x="447" y="1006"/>
      <point x="277" y="1006" type="curve" smooth="yes"/>
      <point x="193" y="1006"/>
      <point x="120" y="979"/>
      <point x="61" y="924" type="curve"/>
      <point x="27" y="886"/>
      <point x="32" y="825"/>
      <point x="72" y="788" type="curve" smooth="yes"/>
      <point x="112" y="750"/>
      <point x="173" y="750"/>
      <point x="208" y="787" type="curve"/>
      <point x="228" y="803"/>
      <point x="251" y="812"/>
      <point x="277" y="812" type="curve" smooth="yes"/>
      <point x="329" y="812"/>
      <point x="371" y="774"/>
      <point x="371" y="727" type="curve" smooth="yes"/>
      <point x="371" y="684"/>
      <point x="335" y="648"/>
      <point x="289" y="643" type="curve" smooth="yes"/>
      <point x="200" y="634" type="line" smooth="yes"/>
      <point x="162" y="630"/>
      <point x="132" y="592"/>
      <point x="132" y="545" type="curve" smooth="yes"/>
      <point x="132" y="499"/>
      <point x="162" y="461"/>
      <point x="201" y="457" type="curve" smooth="yes"/>
      <point x="295" y="447" type="line" smooth="yes"/>
      <point x="367" y="440"/>
      <point x="424" y="385"/>
      <point x="424" y="318" type="curve" smooth="yes"/>
      <point x="424" y="247"/>
      <point x="358" y="188"/>
      <point x="277" y="188" type="curve" smooth="yes"/>
      <point x="236" y="188"/>
      <point x="200" y="201"/>
      <point x="170" y="226" type="curve"/>
      <point x="135" y="263"/>
      <point x="74" y="263"/>
      <point x="34" y="226" type="curve" smooth="yes"/>
      <point x="-7" y="188"/>
      <point x="-11" y="128"/>
      <point x="23" y="90" type="curve"/>
      <point x="93" y="26"/>
      <point x="178" y="-6"/>
      <point x="277" y="-6" type="curve" smooth="yes"/>
      <point x="477" y="-6"/>
      <point x="638" y="139"/>
      <point x="638" y="318" type="curve" smooth="yes"/>
      <point x="638" y="421"/>
      <point x="570" y="509"/>
    </contour>
  </outline>
</glyph>
<glyph name="Digit_Four" format="1">
  <advance width="857"/>
  <unicode hex="0034"/>
  <outline>
    <contour>
      <point x="400" y="608" type="line"/>
      <point x="400" y="417" type="line"/>
      <point x="275" y="417" type="line"/>
    </contour>
    <contour>
      <point x="610" y="223" type="line"/>
      <point x="617" y="223" type="line" smooth="yes"/>
      <point x="675" y="223"/>
      <point x="722" y="266"/>
      <point x="722" y="320" type="curve"/>
      <point x="722" y="320" type="line"/>
      <point x="722" y="374"/>
      <point x="675" y="417"/>
      <point x="617" y="417" type="curve" smooth="yes"/>
      <point x="610" y="417" type="line"/>
      <point x="610" y="894" type="line" smooth="yes"/>
      <point x="610" y="956"/>
      <point x="556" y="1006"/>
      <point x="490" y="1006" type="curve"/>
      <point x="490" y="1006" type="line"/>
      <point x="446" y="1006"/>
      <point x="408" y="984"/>
      <point x="386" y="952" type="curve" smooth="yes"/>
      <point x="18" y="393" type="line" smooth="yes"/>
      <point x="6" y="376"/>
      <point x="0" y="356"/>
      <point x="0" y="335" type="curve"/>
      <point x="0" y="335" type="line"/>
      <point x="0" y="273"/>
      <point x="54" y="223"/>
      <point x="121" y="223" type="curve" smooth="yes"/>
      <point x="400" y="223" type="line"/>
      <point x="400" y="91" type="line" smooth="yes"/>
      <point x="400" y="38"/>
      <point x="447" y="-6"/>
      <point x="505" y="-6" type="curve" smooth="yes"/>
      <point x="563" y="-6"/>
      <point x="610" y="38"/>
      <point x="610" y="91" type="curve" smooth="yes"/>
    </contour>
  </outline>
</glyph>
<glyph name="four" format="1">
  <advance width="857"/>
  <unicode hex="0034"/>
  <outline>
    <contour>
      <point x="400" y="610" type="line"/>
      <point x="400" y="417" type="line"/>
      <point x="273" y="417" type="line"/>
    </contour>
    <contour>
      <point x="610" y="223" type="line"/>
      <point x="624" y="223" type="line" smooth="yes"/>
      <point x="678" y="223"/>
      <point x="722" y="266"/>
      <point x="722" y="320" type="curve" smooth="yes"/>
      <point x="722" y="374"/>
      <point x="678" y="417"/>
      <point x="624" y="417" type="curve" smooth="yes"/>
      <point x="610" y="417" type="line"/>
      <point x="610" y="902" type="line" smooth="yes"/>
      <point x="610" y="959"/>
      <point x="556" y="1006"/>
      <point x="490" y="1006" type="curve" smooth="yes"/>
      <point x="445" y="1006"/>
      <point x="405" y="985"/>
      <point x="385" y="953" type="curve" smooth="yes"/>
      <point x="18" y="395" type="line" smooth="yes"/>
      <point x="7" y="378"/>
      <point x="0" y="357"/>
      <point x="0" y="335" type="curve" smooth="yes"/>
      <point x="0" y="273"/>
      <point x="50" y="223"/>
      <point x="113" y="223" type="curve" smooth="yes"/>
      <point x="400" y="223" type="line"/>
      <point x="400" y="85" type="line" smooth="yes"/>
      <point x="400" y="35"/>
      <point x="447" y="-6"/>
      <point x="505" y="-6" type="curve" smooth="yes"/>
      <point x="563" y="-6"/>
      <point x="610" y="35"/>
      <point x="610" y="85" type="curve" smooth="yes"/>
    </contour>
  </outline>
</glyph>
<glyph name="Digit_Five" format="1">
  <advance width="777"/>
  <unicode hex="0035"/>
  <outline>
    <contour>
      <point x="277" y="806" type="line"/>
      <point x="536" y="806" type="line" smooth="yes"/>
      <point x="594" y="806"/>
      <point x="641" y="849"/>
      <point x="641" y="903" type="curve"/>
      <point x="641" y="903" type="line"/>
      <point x="641" y="957"/>
      <point x="594" y="1000"/>
      <point x="536" y="1000" type="curve" smooth="yes"/>
      <point x="190" y="1000" type="line" smooth="yes"/>
      <point x="138" y="1000"/>
      <point x="95" y="965"/>
      <point x="87" y="919" type="curve" smooth="yes"/>
      <point x="13" y="506" type="line" smooth="yes"/>
      <point x="8" y="476"/>
      <point x="16" y="444"/>
      <point x="39" y="420" type="curve"/>
      <point x="39" y="420" type="line"/>
      <point x="77" y="380"/>
      <point x="140" y="379"/>
      <point x="180" y="417" type="curve"/>
      <point x="181" y="416" type="line"/>
      <point x="209" y="438"/>
      <point x="242" y="448"/>
      <point x="280" y="448" type="curve"/>
      <point x="280" y="448" type="line"/>
      <point x="358" y="448"/>
      <point x="420" y="390"/>
      <point x="420" y="318" type="curve"/>
      <point x="420" y="318" type="line"/>
      <point x="420" y="247"/>
      <point x="358" y="188"/>
      <point x="280" y="188" type="curve"/>
      <point x="280" y="188" type="line"/>
      <point x="239" y="188"/>
      <point x="203" y="201"/>
      <point x="174" y="226" type="curve"/>
      <point x="172" y="225" type="line"/>
      <point x="135" y="266"/>
      <point x="72" y="268"/>
      <point x="32" y="231" type="curve"/>
      <point x="32" y="231" type="line"/>
      <point x="-8" y="193"/>
      <point x="-11" y="130"/>
      <point x="26" y="90" type="curve"/>
      <point x="25" y="89" type="line"/>
      <point x="96" y="26"/>
      <point x="181" y="-6"/>
      <point x="280" y="-6" type="curve"/>
      <point x="280" y="-6" type="line"/>
      <point x="480" y="-6"/>
      <point x="641" y="139"/>
      <point x="641" y="318" type="curve"/>
      <point x="641" y="318" type="line"/>
      <point x="641" y="497"/>
      <point x="480" y="643"/>
      <point x="280" y="643" type="curve"/>
      <point x="280" y="643" type="line"/>
      <point x="269" y="643"/>
      <point x="259" y="642"/>
      <point x="248" y="641" type="curve"/>
    </contour>
  </outline>
</glyph>
<glyph name="five" format="1">
  <advance width="774"/>
  <unicode hex="0035"/>
  <outline>
    <contour>
      <point x="275" y="806" type="line"/>
      <point x="541" y="806" type="line" smooth="yes"/>
      <point x="595" y="806"/>
      <point x="638" y="849"/>
      <point x="638" y="903" type="curve" smooth="yes"/>
      <point x="638" y="957"/>
      <point x="595" y="1000"/>
      <point x="541" y="1000" type="curve" smooth="yes"/>
      <point x="180" y="1000" type="line" smooth="yes"/>
      <point x="132" y="1000"/>
      <point x="92" y="965"/>
      <point x="84" y="919" type="curve" smooth="yes"/>
      <point x="14" y="511" type="line" smooth="yes"/>
      <point x="9" y="482"/>
      <point x="18" y="449"/>
      <point x="41" y="425" type="curve" smooth="yes"/>
      <point x="79" y="385"/>
      <point x="140" y="382"/>
      <point x="177" y="416" type="curve"/>
      <point x="206" y="438"/>
      <point x="239" y="448"/>
      <point x="277" y="448" type="curve" smooth="yes"/>
      <point x="355" y="448"/>
      <point x="417" y="390"/>
      <point x="417" y="318" type="curve" smooth="yes"/>
      <point x="417" y="247"/>
      <point x="355" y="188"/>
      <point x="277" y="188" type="curve" smooth="yes"/>
      <point x="236" y="188"/>
      <point x="200" y="201"/>
      <point x="170" y="226" type="curve"/>
      <point x="135" y="263"/>
      <point x="74" y="263"/>
      <point x="34" y="226" type="curve" smooth="yes"/>
      <point x="-7" y="188"/>
      <point x="-11" y="128"/>
      <point x="23" y="90" type="curve"/>
      <point x="93" y="26"/>
      <point x="178" y="-6"/>
      <point x="277" y="-6" type="curve" smooth="yes"/>
      <point x="477" y="-6"/>
      <point x="638" y="139"/>
      <point x="638" y="318" type="curve" smooth="yes"/>
      <point x="638" y="497"/>
      <point x="477" y="643"/>
      <point x="277" y="643" type="curve" smooth="yes"/>
      <point x="267" y="643"/>
      <point x="257" y="642"/>
      <point x="246" y="642" type="curve"/>
    </contour>
  </outline>
</glyph>
<glyph name="6" format="1">
  <advance width="785"/>
  <unicode hex="0036"/>
  <outline>
    <contour>
      <point x="219" y="319" type="curve"/>
      <point x="219" y="391"/>
      <point x="266" y="450"/>
      <point x="325" y="450" type="curve"/>
      <point x="325" y="450" type="line"/>
      <point x="384" y="450"/>
      <point x="431" y="391"/>
      <point x="431" y="319" type="curve"/>
      <point x="431" y="319" type="line"/>
      <point x="431" y="247"/>
      <point x="384" y="188"/>
      <point x="325" y="188" type="curve"/>
      <point x="325" y="188" type="line"/>
      <point x="266" y="188"/>
      <point x="219" y="247"/>
    </contour>
    <contour>
      <point x="298" y="968" type="curve" smooth="yes"/>
      <point x="147" y="774"/>
      <point x="0" y="582"/>
      <point x="0" y="319" type="curve" smooth="yes"/>
      <point x="0" y="140"/>
      <point x="145" y="-6"/>
      <point x="325" y="-6" type="curve"/>
      <point x="325" y="-6" type="line"/>
      <point x="504" y="-6"/>
      <point x="650" y="140"/>
      <point x="650" y="319" type="curve"/>
      <point x="650" y="319" type="line"/>
      <point x="650" y="484"/>
      <point x="516" y="618"/>
      <point x="351" y="618" type="curve"/>
      <point x="351" y="618" type="line"/>
      <point x="331" y="618"/>
      <point x="311" y="616"/>
      <point x="292" y="612" type="curve"/>
      <point x="292" y="612" type="line"/>
      <point x="338" y="694"/>
      <point x="397" y="769"/>
      <point x="456" y="845" type="curve" smooth="yes"/>
      <point x="489" y="888"/>
      <point x="481" y="951"/>
      <point x="437" y="985" type="curve"/>
      <point x="437" y="985" type="line"/>
      <point x="394" y="1018"/>
      <point x="331" y="1011"/>
    </contour>
  </outline>
</glyph>
<glyph name="Digit_Six" format="1">
  <advance width="785"/>
  <unicode hex="0036"/>
  <outline>
    <contour>
      <point x="219" y="319" type="curve"/>
      <point x="219" y="391"/>
      <point x="266" y="450"/>
      <point x="325" y="450" type="curve"/>
      <point x="325" y="450" type="line"/>
      <point x="384" y="450"/>
      <point x="431" y="391"/>
      <point x="431" y="319" type="curve"/>
      <point x="431" y="319" type="line"/>
      <point x="431" y="247"/>
      <point x="384" y="188"/>
      <point x="325" y="188" type="curve"/>
      <point x="325" y="188" type="line"/>
      <point x="266" y="188"/>
      <point x="219" y="247"/>
    </contour>
    <contour>
      <point x="298" y="968" type="curve" smooth="yes"/>
      <point x="147" y="774"/>
      <point x="0" y="582"/>
      <point x="0" y="319" type="curve" smooth="yes"/>
      <point x="0" y="140"/>
      <point x="145" y="-6"/>
      <point x="325" y="-6" type="curve"/>
      <point x="325" y="-6" type="line"/>
      <point x="504" y="-6"/>
      <point x="650" y="140"/>
      <point x="650" y="319" type="curve"/>
      <point x="650" y="319" type="line"/>
      <point x="650" y="485"/>
      <point x="515" y="620"/>
      <point x="349" y="620" type="curve"/>
      <point x="349" y="620" type="line"/>
      <point x="330" y="620"/>
      <point x="311" y="618"/>
      <point x="293" y="614" type="curve"/>
      <point x="293" y="614" type="line"/>
      <point x="339" y="695"/>
      <point x="398" y="770"/>
      <point x="456" y="845" type="curve" smooth="yes"/>
      <point x="489" y="888"/>
      <point x="481" y="951"/>
      <point x="437" y="985" type="curve"/>
      <point x="437" y="985" type="line"/>
      <point x="394" y="1018"/>
      <point x="331" y="1011"/>
    </contour>
  </outline>
</glyph>
<glyph name="six" format="1">
  <advance width="785"/>
  <unicode hex="0036"/>
  <outline>
    <contour>
      <point x="219" y="319" type="curve" smooth="yes"/>
      <point x="219" y="391"/>
      <point x="266" y="450"/>
      <point x="325" y="450" type="curve" smooth="yes"/>
      <point x="384" y="450"/>
      <point x="431" y="391"/>
      <point x="431" y="319" type="curve" smooth="yes"/>
      <point x="431" y="247"/>
      <point x="384" y="188"/>
      <point x="325" y="188" type="curve" smooth="yes"/>
      <point x="266" y="188"/>
      <point x="219" y="247"/>
    </contour>
    <contour>
      <point x="298" y="972" type="curve" smooth="yes"/>
      <point x="146" y="777"/>
      <point x="0" y="583"/>
      <point x="0" y="319" type="curve" smooth="yes"/>
      <point x="0" y="140"/>
      <point x="145" y="-6"/>
      <point x="325" y="-6" type="curve" smooth="yes"/>
      <point x="504" y="-6"/>
      <point x="650" y="140"/>
      <point x="650" y="319" type="curve" smooth="yes"/>
      <point x="650" y="485"/>
      <point x="515" y="620"/>
      <point x="349" y="620" type="curve" smooth="yes"/>
      <point x="329" y="620"/>
      <point x="310" y="618"/>
      <point x="291" y="614" type="curve"/>
      <point x="337" y="697"/>
      <point x="396" y="773"/>
      <point x="456" y="849" type="curve" smooth="yes"/>
      <point x="487" y="890"/>
      <point x="477" y="950"/>
      <point x="433" y="983" type="curve" smooth="yes"/>
      <point x="390" y="1017"/>
      <point x="329" y="1012"/>
    </contour>
  </outline>
</glyph>
<glyph name="Digit_Seven" format="1">
  <advance width="880"/>
  <unicode hex="0037"/>
  <outline>
    <contour>
      <point x="468" y="812" type="line"/>
      <point x="401" y="703" type="line" smooth="yes"/>
      <point x="283" y="510"/>
      <point x="208" y="322"/>
      <point x="208" y="91" type="curve" smooth="yes"/>
      <point x="208" y="38"/>
      <point x="255" y="-6"/>
      <point x="313" y="-6" type="curve" smooth="yes"/>
      <point x="371" y="-6"/>
      <point x="418" y="38"/>
      <point x="418" y="91" type="curve" smooth="yes"/>
      <point x="418" y="281"/>
      <point x="476" y="438"/>
      <point x="573" y="598" type="curve" smooth="yes"/>
      <point x="730" y="854" type="line" smooth="yes"/>
      <point x="750" y="886"/>
      <point x="750" y="923"/>
      <point x="730" y="955" type="curve"/>
      <point x="730" y="955" type="line"/>
      <point x="709" y="988"/>
      <point x="675" y="1006"/>
      <point x="634" y="1006" type="curve" smooth="yes"/>
      <point x="105" y="1006" type="line" smooth="yes"/>
      <point x="47" y="1006"/>
      <point x="0" y="962"/>
      <point x="0" y="909" type="curve"/>
      <point x="0" y="909" type="line"/>
      <point x="0" y="855"/>
      <point x="47" y="812"/>
      <point x="105" y="812" type="curve" smooth="yes"/>
    </contour>
  </outline>
</glyph>
<glyph name="seven" format="1">
  <advance width="835"/>
  <unicode hex="0037"/>
  <outline>
    <contour>
      <point x="442" y="812" type="line"/>
      <point x="351" y="628" type="line" smooth="yes"/>
      <point x="263" y="451"/>
      <point x="199" y="287"/>
      <point x="199" y="85" type="curve" smooth="yes"/>
      <point x="199" y="35"/>
      <point x="246" y="-6"/>
      <point x="304" y="-6" type="curve" smooth="yes"/>
      <point x="362" y="-6"/>
      <point x="409" y="35"/>
      <point x="409" y="85" type="curve" smooth="yes"/>
      <point x="409" y="253"/>
      <point x="460" y="390"/>
      <point x="533" y="538" type="curve" smooth="yes"/>
      <point x="688" y="852" type="line" smooth="yes"/>
      <point x="705" y="886"/>
      <point x="703" y="923"/>
      <point x="683" y="955" type="curve" smooth="yes"/>
      <point x="663" y="988"/>
      <point x="630" y="1006"/>
      <point x="592" y="1006" type="curve" smooth="yes"/>
      <point x="98" y="1006" type="line" smooth="yes"/>
      <point x="44" y="1006"/>
      <point x="0" y="962"/>
      <point x="0" y="909" type="curve" smooth="yes"/>
      <point x="0" y="855"/>
      <point x="44" y="812"/>
      <point x="98" y="812" type="curve" smooth="yes"/>
    </contour>
  </outline>
</glyph>
<glyph name="Digit_Eight" format="1">
  <advance width="857"/>
  <unicode hex="0038"/>
  <outline>
    <contour>
      <point x="361" y="188" type="curve"/>
      <point x="284" y="188"/>
      <point x="221" y="247"/>
      <point x="221" y="318" type="curve"/>
      <point x="221" y="318" type="line"/>
      <point x="221" y="390"/>
      <point x="284" y="448"/>
      <point x="361" y="448" type="curve"/>
      <point x="361" y="448" type="line"/>
      <point x="438" y="448"/>
      <point x="501" y="390"/>
      <point x="501" y="318" type="curve"/>
      <point x="501" y="318" type="line"/>
      <point x="501" y="247"/>
      <point x="438" y="188"/>
    </contour>
    <contour>
      <point x="361" y="643" type="curve"/>
      <point x="312" y="643"/>
      <point x="271" y="680"/>
      <point x="271" y="727" type="curve"/>
      <point x="271" y="727" type="line"/>
      <point x="271" y="774"/>
      <point x="312" y="812"/>
      <point x="361" y="812" type="curve"/>
      <point x="361" y="812" type="line"/>
      <point x="410" y="812"/>
      <point x="451" y="774"/>
      <point x="451" y="727" type="curve"/>
      <point x="451" y="727" type="line"/>
      <point x="451" y="680"/>
      <point x="410" y="643"/>
    </contour>
    <contour>
      <point x="361" y="1006" type="curve"/>
      <point x="192" y="1006"/>
      <point x="54" y="881"/>
      <point x="54" y="727" type="curve"/>
      <point x="54" y="727" type="line"/>
      <point x="54" y="657"/>
      <point x="90" y="594"/>
      <point x="145" y="553" type="curve"/>
      <point x="145" y="553" type="line"/>
      <point x="58" y="504"/>
      <point x="0" y="417"/>
      <point x="0" y="318" type="curve"/>
      <point x="0" y="318" type="line"/>
      <point x="0" y="139"/>
      <point x="162" y="-6"/>
      <point x="361" y="-6" type="curve"/>
      <point x="361" y="-6" type="line"/>
      <point x="560" y="-6"/>
      <point x="722" y="139"/>
      <point x="722" y="318" type="curve"/>
      <point x="722" y="318" type="line"/>
      <point x="722" y="417"/>
      <point x="664" y="504"/>
      <point x="577" y="553" type="curve"/>
      <point x="577" y="553" type="line"/>
      <point x="632" y="594"/>
      <point x="668" y="657"/>
      <point x="668" y="727" type="curve"/>
      <point x="668" y="727" type="line"/>
      <point x="668" y="881"/>
      <point x="530" y="1006"/>
    </contour>
  </outline>
</glyph>
<glyph name="eight" format="1">
  <advance width="808"/>
  <unicode hex="0038"/>
  <outline>
    <contour>
      <point x="336" y="188" type="curve" smooth="yes"/>
      <point x="272" y="188"/>
      <point x="219" y="247"/>
      <point x="219" y="318" type="curve" smooth="yes"/>
      <point x="219" y="390"/>
      <point x="272" y="448"/>
      <point x="336" y="448" type="curve" smooth="yes"/>
      <point x="401" y="448"/>
      <point x="453" y="390"/>
      <point x="453" y="318" type="curve" smooth="yes"/>
      <point x="453" y="247"/>
      <point x="401" y="188"/>
    </contour>
    <contour>
      <point x="336" y="643" type="curve" smooth="yes"/>
      <point x="297" y="643"/>
      <point x="266" y="680"/>
      <point x="266" y="727" type="curve" smooth="yes"/>
      <point x="266" y="774"/>
      <point x="297" y="812"/>
      <point x="336" y="812" type="curve" smooth="yes"/>
      <point x="375" y="812"/>
      <point x="406" y="774"/>
      <point x="406" y="727" type="curve" smooth="yes"/>
      <point x="406" y="680"/>
      <point x="375" y="643"/>
    </contour>
    <contour>
      <point x="336" y="1006" type="curve" smooth="yes"/>
      <point x="178" y="1006"/>
      <point x="50" y="881"/>
      <point x="50" y="727" type="curve" smooth="yes"/>
      <point x="50" y="655"/>
      <point x="86" y="592"/>
      <point x="140" y="552" type="curve"/>
      <point x="56" y="505"/>
      <point x="0" y="418"/>
      <point x="0" y="318" type="curve" smooth="yes"/>
      <point x="0" y="139"/>
      <point x="151" y="-6"/>
      <point x="336" y="-6" type="curve" smooth="yes"/>
      <point x="522" y="-6"/>
      <point x="672" y="139"/>
      <point x="672" y="318" type="curve" smooth="yes"/>
      <point x="672" y="418"/>
      <point x="616" y="505"/>
      <point x="532" y="552" type="curve"/>
      <point x="587" y="592"/>
      <point x="622" y="655"/>
      <point x="622" y="727" type="curve" smooth="yes"/>
      <point x="622" y="881"/>
      <point x="494" y="1006"/>
    </contour>
  </outline>
</glyph>
<glyph name="9" format="1">
  <advance width="785"/>
  <unicode hex="0039"/>
  <outline>
    <contour>
      <point x="431" y="681" type="curve"/>
      <point x="431" y="681" type="line"/>
      <point x="431" y="609"/>
      <point x="384" y="550"/>
      <point x="325" y="550" type="curve"/>
      <point x="325" y="550" type="line"/>
      <point x="266" y="550"/>
      <point x="219" y="609"/>
      <point x="219" y="681" type="curve"/>
      <point x="219" y="681" type="line"/>
      <point x="219" y="753"/>
      <point x="266" y="812"/>
      <point x="325" y="812" type="curve"/>
      <point x="325" y="812" type="line"/>
      <point x="384" y="812"/>
      <point x="431" y="753"/>
    </contour>
    <contour>
      <point x="352" y="32" type="curve" smooth="yes"/>
      <point x="503" y="226"/>
      <point x="650" y="418"/>
      <point x="650" y="681" type="curve" smooth="yes"/>
      <point x="650" y="860"/>
      <point x="504" y="1006"/>
      <point x="325" y="1006" type="curve"/>
      <point x="325" y="1006" type="line"/>
      <point x="145" y="1006"/>
      <point x="0" y="860"/>
      <point x="0" y="681" type="curve"/>
      <point x="0" y="681" type="line"/>
      <point x="0" y="516"/>
      <point x="134" y="382"/>
      <point x="299" y="382" type="curve"/>
      <point x="299" y="382" type="line"/>
      <point x="319" y="382"/>
      <point x="339" y="384"/>
      <point x="358" y="388" type="curve"/>
      <point x="358" y="388" type="line"/>
      <point x="312" y="306"/>
      <point x="253" y="231"/>
      <point x="194" y="155" type="curve" smooth="yes"/>
      <point x="160" y="112"/>
      <point x="169" y="49"/>
      <point x="212" y="15" type="curve"/>
      <point x="212" y="15" type="line"/>
      <point x="256" y="-18"/>
      <point x="319" y="-11"/>
    </contour>
  </outline>
</glyph>
<glyph name="Digit_Nine" format="1">
  <advance width="650"/>
  <unicode hex="0039"/>
  <outline>
    <contour>
      <point x="431" y="681" type="curve"/>
      <point x="431" y="681" type="line"/>
      <point x="431" y="609"/>
      <point x="384" y="550"/>
      <point x="325" y="550" type="curve"/>
      <point x="325" y="550" type="line"/>
      <point x="266" y="550"/>
      <point x="219" y="609"/>
      <point x="219" y="681" type="curve"/>
      <point x="219" y="681" type="line"/>
      <point x="219" y="753"/>
      <point x="266" y="812"/>
      <point x="325" y="812" type="curve"/>
      <point x="325" y="812" type="line"/>
      <point x="384" y="812"/>
      <point x="431" y="753"/>
    </contour>
    <contour>
      <point x="352" y="32" type="curve" smooth="yes"/>
      <point x="503" y="226"/>
      <point x="650" y="418"/>
      <point x="650" y="681" type="curve" smooth="yes"/>
      <point x="650" y="860"/>
      <point x="504" y="1006"/>
      <point x="325" y="1006" type="curve"/>
      <point x="325" y="1006" type="line"/>
      <point x="145" y="1006"/>
      <point x="0" y="860"/>
      <point x="0" y="681" type="curve"/>
      <point x="0" y="681" type="line"/>
      <point x="0" y="515"/>
      <point x="135" y="380"/>
      <point x="301" y="380" type="curve"/>
      <point x="301" y="380" type="line"/>
      <point x="320" y="380"/>
      <point x="338" y="382"/>
      <point x="357" y="386" type="curve"/>
      <point x="357" y="386" type="line"/>
      <point x="311" y="305"/>
      <point x="252" y="230"/>
      <point x="194" y="155" type="curve" smooth="yes"/>
      <point x="160" y="112"/>
      <point x="169" y="49"/>
      <point x="212" y="15" type="curve"/>
      <point x="212" y="15" type="line"/>
      <point x="256" y="-18"/>
      <point x="319" y="-11"/>
    </contour>
  </outline>
</glyph>
<glyph name="nine" format="1">
  <advance width="785"/>
  <unicode hex="0039"/>
  <outline>
    <contour>
      <point x="431" y="681" type="curve" smooth="yes"/>
      <point x="431" y="609"/>
      <point x="384" y="550"/>
      <point x="325" y="550" type="curve" smooth="yes"/>
      <point x="266" y="550"/>
      <point x="219" y="609"/>
      <point x="219" y="681" type="curve" smooth="yes"/>
      <point x="219" y="753"/>
      <point x="266" y="812"/>
      <point x="325" y="812" type="curve" smooth="yes"/>
      <point x="384" y="812"/>
      <point x="431" y="753"/>
    </contour>
    <contour>
      <point x="352" y="28" type="curve" smooth="yes"/>
      <point x="503" y="223"/>
      <point x="650" y="417"/>
      <point x="650" y="681" type="curve" smooth="yes"/>
      <point x="650" y="860"/>
      <point x="504" y="1006"/>
      <point x="325" y="1006" type="curve" smooth="yes"/>
      <point x="145" y="1006"/>
      <point x="0" y="860"/>
      <point x="0" y="681" type="curve" smooth="yes"/>
      <point x="0" y="515"/>
      <point x="135" y="380"/>
      <point x="301" y="380" type="curve" smooth="yes"/>
      <point x="320" y="380"/>
      <point x="340" y="382"/>
      <point x="358" y="386" type="curve"/>
      <point x="313" y="303"/>
      <point x="253" y="227"/>
      <point x="194" y="151" type="curve" smooth="yes"/>
      <point x="163" y="110"/>
      <point x="173" y="50"/>
      <point x="216" y="17" type="curve" smooth="yes"/>
      <point x="260" y="-17"/>
      <point x="321" y="-12"/>
    </contour>
  </outline>
</glyph>
<glyph name="colon" format="1">
  <advance width="366"/>
  <unicode hex="003A"/>
  <outline>
    <contour>
      <point x="231" y="126" type="line" smooth="yes"/>
      <point x="231" y="181"/>
      <point x="179" y="226"/>
      <point x="116" y="226" type="curve" smooth="yes"/>
      <point x="52" y="226"/>
      <point x="0" y="181"/>
      <point x="0" y="126" type="curve" smooth="yes"/>
      <point x="0" y="94" type="line" smooth="yes"/>
      <point x="0" y="39"/>
      <point x="52" y="-6"/>
      <point x="116" y="-6" type="curve" smooth="yes"/>
      <point x="179" y="-6"/>
      <point x="231" y="39"/>
      <point x="231" y="94" type="curve" smooth="yes"/>
    </contour>
    <contour>
      <point x="231" y="526" type="line" smooth="yes"/>
      <point x="231" y="581"/>
      <point x="179" y="626"/>
      <point x="116" y="626" type="curve" smooth="yes"/>
      <point x="52" y="626"/>
      <point x="0" y="581"/>
      <point x="0" y="526" type="curve" smooth="yes"/>
      <point x="0" y="494" type="line" smooth="yes"/>
      <point x="0" y="439"/>
      <point x="52" y="394"/>
      <point x="116" y="394" type="curve" smooth="yes"/>
      <point x="179" y="394"/>
      <point x="231" y="439"/>
      <point x="231" y="494" type="curve" smooth="yes"/>
    </contour>
  </outline>
</glyph>
<glyph name="semicolon" format="1">
  <advance width="366"/>
  <unicode hex="003B"/>
  <outline>
    <contour>
      <point x="231" y="126" type="curve" smooth="yes"/>
      <point x="231" y="181"/>
      <point x="179" y="226"/>
      <point x="116" y="226" type="curve" smooth="yes"/>
      <point x="52" y="226"/>
      <point x="0" y="181"/>
      <point x="0" y="126" type="curve" smooth="yes"/>
      <point x="0" y="94" type="line" smooth="yes"/>
      <point x="0" y="58"/>
      <point x="22" y="27"/>
      <point x="55" y="9" type="curve" smooth="yes"/>
      <point x="66" y="3"/>
      <point x="72" y="-7"/>
      <point x="72" y="-19" type="curve"/>
      <point x="71" y="-32"/>
      <point x="65" y="-42"/>
      <point x="54" y="-48" type="curve" smooth="yes"/>
      <point x="22" y="-65" type="line" smooth="yes"/>
      <point x="5" y="-74"/>
      <point x="-2" y="-95"/>
      <point x="7" y="-113" type="curve" smooth="yes"/>
      <point x="16" y="-130"/>
      <point x="37" y="-137"/>
      <point x="54" y="-129" type="curve" smooth="yes"/>
      <point x="153" y="-78"/>
      <point x="231" y="8"/>
    </contour>
    <contour>
      <point x="231" y="526" type="line" smooth="yes"/>
      <point x="231" y="581"/>
      <point x="179" y="626"/>
      <point x="116" y="626" type="curve" smooth="yes"/>
      <point x="52" y="626"/>
      <point x="0" y="581"/>
      <point x="0" y="526" type="curve" smooth="yes"/>
      <point x="0" y="494" type="line" smooth="yes"/>
      <point x="0" y="439"/>
      <point x="52" y="394"/>
      <point x="116" y="394" type="curve" smooth="yes"/>
      <point x="179" y="394"/>
      <point x="231" y="439"/>
      <point x="231" y="494" type="curve" smooth="yes"/>
    </contour>
  </outline>
</glyph>
<glyph name="less" format="1">
  <advance width="735"/>
  <unicode hex="003C"/>
  <outline>
    <contour>
      <point x="458" y="194" type="line" smooth="yes"/>
      <point x="471" y="187"/>
      <point x="487" y="183"/>
      <point x="503" y="183" type="curve" smooth="yes"/>
      <point x="556" y="184"/>
      <point x="599" y="228"/>
      <point x="600" y="282" type="curve" smooth="yes"/>
      <point x="601" y="319"/>
      <point x="581" y="350"/>
      <point x="552" y="366" type="curve" smooth="yes"/>
      <point x="289" y="510" type="line"/>
      <point x="552" y="654" type="line" smooth="yes"/>
      <point x="581" y="670"/>
      <point x="601" y="701"/>
      <point x="600" y="738" type="curve" smooth="yes"/>
      <point x="599" y="792"/>
      <point x="556" y="836"/>
      <point x="503" y="837" type="curve" smooth="yes"/>
      <point x="487" y="837"/>
      <point x="471" y="833"/>
      <point x="458" y="826" type="curve" smooth="yes"/>
      <point x="58" y="608" type="line" smooth="yes"/>
      <point x="24" y="589"/>
      <point x="0" y="552"/>
      <point x="0" y="510" type="curve" smooth="yes"/>
      <point x="0" y="468"/>
      <point x="24" y="431"/>
      <point x="58" y="412" type="curve" smooth="yes"/>
    </contour>
  </outline>
</glyph>
<glyph name="equal" format="1">
  <advance width="785"/>
  <unicode hex="003D"/>
  <outline>
    <contour>
      <point x="552" y="578" type="line" smooth="yes"/>
      <point x="606" y="578"/>
      <point x="650" y="621"/>
      <point x="650" y="675" type="curve" smooth="yes"/>
      <point x="650" y="729"/>
      <point x="606" y="772"/>
      <point x="552" y="772" type="curve" smooth="yes"/>
      <point x="98" y="772" type="line" smooth="yes"/>
      <point x="44" y="772"/>
      <point x="0" y="729"/>
      <point x="0" y="675" type="curve" smooth="yes"/>
      <point x="0" y="621"/>
      <point x="44" y="578"/>
      <point x="98" y="578" type="curve" smooth="yes"/>
    </contour>
    <contour>
      <point x="552" y="248" type="line" smooth="yes"/>
      <point x="606" y="248"/>
      <point x="650" y="291"/>
      <point x="650" y="345" type="curve" smooth="yes"/>
      <point x="650" y="399"/>
      <point x="606" y="442"/>
      <point x="552" y="442" type="curve" smooth="yes"/>
      <point x="98" y="442" type="line" smooth="yes"/>
      <point x="44" y="442"/>
      <point x="0" y="399"/>
      <point x="0" y="345" type="curve" smooth="yes"/>
      <point x="0" y="291"/>
      <point x="44" y="248"/>
      <point x="98" y="248" type="curve" smooth="yes"/>
    </contour>
  </outline>
</glyph>
<glyph name="greater" format="1">
  <advance width="735"/>
  <unicode hex="003E"/>
  <outline>
    <contour>
      <point x="142" y="194" type="curve" smooth="yes"/>
      <point x="542" y="412" type="line" smooth="yes"/>
      <point x="576" y="431"/>
      <point x="600" y="468"/>
      <point x="600" y="510" type="curve" smooth="yes"/>
      <point x="600" y="552"/>
      <point x="576" y="589"/>
      <point x="542" y="608" type="curve" smooth="yes"/>
      <point x="142" y="826" type="line" smooth="yes"/>
      <point x="129" y="833"/>
      <point x="114" y="837"/>
      <point x="97" y="837" type="curve" smooth="yes"/>
      <point x="44" y="836"/>
      <point x="1" y="792"/>
      <point x="0" y="738" type="curve" smooth="yes"/>
      <point x="-1" y="701"/>
      <point x="19" y="670"/>
      <point x="48" y="654" type="curve" smooth="yes"/>
      <point x="311" y="510" type="line"/>
      <point x="48" y="366" type="line" smooth="yes"/>
      <point x="19" y="350"/>
      <point x="-1" y="319"/>
      <point x="0" y="282" type="curve" smooth="yes"/>
      <point x="1" y="228"/>
      <point x="44" y="184"/>
      <point x="97" y="183" type="curve" smooth="yes"/>
      <point x="114" y="183"/>
      <point x="129" y="187"/>
    </contour>
  </outline>
</glyph>
<glyph name="question" format="1">
  <advance width="875"/>
  <unicode hex="003F"/>
  <outline>
    <contour>
      <point x="477" y="126" type="line" smooth="yes"/>
      <point x="477" y="181"/>
      <point x="426" y="226"/>
      <point x="362" y="226" type="curve" smooth="yes"/>
      <point x="298" y="226"/>
      <point x="246" y="181"/>
      <point x="246" y="126" type="curve" smooth="yes"/>
      <point x="246" y="94" type="line" smooth="yes"/>
      <point x="246" y="39"/>
      <point x="298" y="-6"/>
      <point x="362" y="-6" type="curve" smooth="yes"/>
      <point x="426" y="-6"/>
      <point x="477" y="39"/>
      <point x="477" y="94" type="curve" smooth="yes"/>
    </contour>
    <contour>
      <point x="3" y="764" type="curve"/>
      <point x="-6" y="732"/>
      <point x="4" y="699"/>
      <point x="30" y="674" type="curve" smooth="yes"/>
      <point x="57" y="648"/>
      <point x="93" y="637"/>
      <point x="129" y="644" type="curve" smooth="yes"/>
      <point x="165" y="651"/>
      <point x="191" y="673"/>
      <point x="201" y="704" type="curve" smooth="yes"/>
      <point x="228" y="778"/>
      <point x="306" y="822"/>
      <point x="388" y="810" type="curve" smooth="yes"/>
      <point x="471" y="798"/>
      <point x="530" y="733"/>
      <point x="530" y="656" type="curve" smooth="yes"/>
      <point x="530" y="613"/>
      <point x="439" y="616"/>
      <point x="424" y="600" type="curve" smooth="yes"/>
      <point x="376" y="546"/>
      <point x="257" y="508"/>
      <point x="257" y="411" type="curve" smooth="yes"/>
      <point x="257" y="361"/>
      <point x="304" y="320"/>
      <point x="362" y="320" type="curve" smooth="yes"/>
      <point x="420" y="320"/>
      <point x="467" y="361"/>
      <point x="467" y="411" type="curve" smooth="yes"/>
      <point x="467" y="454"/>
      <point x="558" y="451"/>
      <point x="573" y="467" type="curve" smooth="yes"/>
      <point x="621" y="521"/>
      <point x="740" y="559"/>
      <point x="740" y="656" type="curve" smooth="yes"/>
      <point x="740" y="830"/>
      <point x="607" y="974"/>
      <point x="421" y="1002" type="curve" smooth="yes"/>
      <point x="235" y="1029"/>
      <point x="60" y="930"/>
    </contour>
  </outline>
</glyph>
<glyph name="A" format="1">
  <advance width="1038"/>
  <unicode hex="0041"/>
  <outline>
    <contour>
      <point x="344" y="417" type="line"/>
      <point x="451" y="690" type="line"/>
      <point x="558" y="417" type="line"/>
    </contour>
    <contour>
      <point x="701" y="52" type="line"/>
      <point x="717" y="19"/>
      <point x="748" y="-1"/>
      <point x="786" y="-5" type="curve" smooth="yes"/>
      <point x="825" y="-9"/>
      <point x="859" y="5"/>
      <point x="882" y="34" type="curve" smooth="yes"/>
      <point x="905" y="63"/>
      <point x="909" y="98"/>
      <point x="894" y="131" type="curve"/>
      <point x="581" y="928" type="line"/>
      <point x="557" y="977"/>
      <point x="507" y="1007"/>
      <point x="448" y="1006" type="curve" smooth="yes"/>
      <point x="390" y="1005"/>
      <point x="341" y="973"/>
      <point x="319" y="923" type="curve" smooth="yes"/>
      <point x="7" y="127" type="line" smooth="yes"/>
      <point x="-14" y="77"/>
      <point x="13" y="20"/>
      <point x="67" y="1" type="curve" smooth="yes"/>
      <point x="121" y="-19"/>
      <point x="182" y="6"/>
      <point x="203" y="56" type="curve" smooth="yes"/>
      <point x="268" y="223" type="line"/>
      <point x="634" y="223" type="line"/>
    </contour>
  </outline>
</glyph>
<glyph name="Latin_Capital_Letter_A" format="1">
  <advance width="1038"/>
  <unicode hex="0041"/>
  <outline>
    <contour>
      <point x="345" y="417" type="line"/>
      <point x="452" y="690" type="line"/>
      <point x="558" y="417" type="line"/>
    </contour>
    <contour>
      <point x="699" y="58" type="line" smooth="yes"/>
      <point x="719" y="8"/>
      <point x="779" y="-18"/>
      <point x="834" y="0" type="curve" smooth="yes"/>
      <point x="888" y="18"/>
      <point x="916" y="74"/>
      <point x="897" y="124" type="curve" smooth="yes"/>
      <point x="585" y="919" type="line" smooth="yes"/>
      <point x="564" y="972"/>
      <point x="513" y="1006"/>
      <point x="452" y="1006" type="curve" smooth="yes"/>
      <point x="391" y="1006"/>
      <point x="339" y="972"/>
      <point x="318" y="919" type="curve" smooth="yes"/>
      <point x="7" y="124" type="line" smooth="yes"/>
      <point x="-7" y="91"/>
      <point x="0" y="56"/>
      <point x="25" y="29" type="curve" smooth="yes"/>
      <point x="50" y="1"/>
      <point x="86" y="-11"/>
      <point x="124" y="-4" type="curve" smooth="yes"/>
      <point x="162" y="2"/>
      <point x="191" y="25"/>
      <point x="204" y="58" type="curve" smooth="yes"/>
      <point x="269" y="223" type="line"/>
      <point x="635" y="223" type="line"/>
    </contour>
  </outline>
</glyph>
<glyph name="Latin_Capital_Letter_B" format="1">
  <advance width="722"/>
  <unicode hex="0042"/>
  <outline>
    <contour>
      <point x="210" y="433" type="line"/>
      <point x="383" y="433" type="line" smooth="yes"/>
      <point x="449" y="433"/>
      <point x="502" y="379"/>
      <point x="502" y="314" type="curve"/>
      <point x="502" y="314" type="line"/>
      <point x="502" y="248"/>
      <point x="449" y="194"/>
      <point x="383" y="194" type="curve" smooth="yes"/>
      <point x="210" y="194" type="line"/>
    </contour>
    <contour>
      <point x="210" y="806" type="line"/>
      <point x="335" y="806" type="line" smooth="yes"/>
      <point x="385" y="806"/>
      <point x="425" y="766"/>
      <point x="425" y="716" type="curve"/>
      <point x="425" y="716" type="line"/>
      <point x="425" y="667"/>
      <point x="385" y="627"/>
      <point x="335" y="627" type="curve" smooth="yes"/>
      <point x="210" y="627" type="line"/>
    </contour>
    <contour>
      <point x="383" y="0" type="line" smooth="yes"/>
      <point x="570" y="0"/>
      <point x="722" y="140"/>
      <point x="722" y="314" type="curve"/>
      <point x="722" y="314" type="line"/>
      <point x="722" y="420"/>
      <point x="648" y="511"/>
      <point x="545" y="544" type="curve"/>
      <point x="545" y="544" type="line"/>
      <point x="604" y="582"/>
      <point x="642" y="645"/>
      <point x="642" y="716" type="curve"/>
      <point x="642" y="716" type="line"/>
      <point x="642" y="873"/>
      <point x="505" y="1000"/>
      <point x="335" y="1000" type="curve" smooth="yes"/>
      <point x="121" y="1000" type="line" smooth="yes"/>
      <point x="54" y="1000"/>
      <point x="0" y="950"/>
      <point x="0" y="888" type="curve" smooth="yes"/>
      <point x="0" y="112" type="line" smooth="yes"/>
      <point x="0" y="50"/>
      <point x="54" y="0"/>
      <point x="121" y="0" type="curve" smooth="yes"/>
    </contour>
  </outline>
</glyph>
<glyph name="Latin_Capital_Letter_C" format="1">
  <advance width="783"/>
  <unicode hex="0043"/>
  <outline>
    <contour>
      <point x="455" y="0" type="line" smooth="yes"/>
      <point x="573" y="0"/>
      <point x="679" y="53"/>
      <point x="755" y="139" type="curve" smooth="yes"/>
      <point x="779" y="166"/>
      <point x="787" y="201"/>
      <point x="777" y="236" type="curve" smooth="yes"/>
      <point x="766" y="271"/>
      <point x="740" y="296"/>
      <point x="704" y="305" type="curve" smooth="yes"/>
      <point x="669" y="313"/>
      <point x="634" y="303"/>
      <point x="608" y="277" type="curve"/>
      <point x="568" y="227"/>
      <point x="515" y="194"/>
      <point x="455" y="194" type="curve" smooth="yes"/>
      <point x="426" y="194" type="line" smooth="yes"/>
      <point x="306" y="194"/>
      <point x="227" y="318"/>
      <point x="227" y="472" type="curve" smooth="yes"/>
      <point x="227" y="528" type="line" smooth="yes"/>
      <point x="227" y="672"/>
      <point x="316" y="806"/>
      <point x="426" y="806" type="curve" smooth="yes"/>
      <point x="455" y="806" type="line" smooth="yes"/>
      <point x="520" y="806"/>
      <point x="574" y="775"/>
      <point x="611" y="724" type="curve"/>
      <point x="649" y="685"/>
      <point x="712" y="683"/>
      <point x="752" y="721" type="curve" smooth="yes"/>
      <point x="792" y="759"/>
      <point x="793" y="822"/>
      <point x="756" y="862" type="curve" smooth="yes"/>
      <point x="679" y="947"/>
      <point x="573" y="1000"/>
      <point x="455" y="1000" type="curve" smooth="yes"/>
      <point x="425" y="1000" type="line" smooth="yes"/>
      <point x="190" y="1000"/>
      <point x="0" y="788"/>
      <point x="0" y="528" type="curve" smooth="yes"/>
      <point x="0" y="472" type="line" smooth="yes"/>
      <point x="0" y="212"/>
      <point x="190" y="0"/>
      <point x="425" y="0" type="curve" smooth="yes"/>
    </contour>
  </outline>
</glyph>
<glyph name="D" format="1">
  <advance width="893"/>
  <unicode hex="0044"/>
  <outline>
    <contour>
      <point x="334" y="0" type="line" smooth="yes"/>
      <point x="568" y="0"/>
      <point x="758" y="212"/>
      <point x="758" y="472" type="curve" smooth="yes"/>
      <point x="758" y="528" type="line" smooth="yes"/>
      <point x="758" y="788"/>
      <point x="568" y="1000"/>
      <point x="334" y="1000" type="curve" smooth="yes"/>
      <point x="121" y="1000" type="line" smooth="yes"/>
      <point x="54" y="1000"/>
      <point x="0" y="953"/>
      <point x="0" y="896" type="curve" smooth="yes"/>
      <point x="0" y="104" type="line" smooth="yes"/>
      <point x="0" y="47"/>
      <point x="54" y="0"/>
      <point x="121" y="0" type="curve" smooth="yes"/>
    </contour>
    <contour>
      <point x="210" y="806" type="line"/>
      <point x="350" y="806" type="line" smooth="yes"/>
      <point x="470" y="806"/>
      <point x="548" y="682"/>
      <point x="548" y="528" type="curve" smooth="yes"/>
      <point x="548" y="472" type="line" smooth="yes"/>
      <point x="548" y="328"/>
      <point x="460" y="194"/>
      <point x="350" y="194" type="curve" smooth="yes"/>
      <point x="210" y="194" type="line"/>
    </contour>
  </outline>
</glyph>
<glyph name="E" format="1">
  <advance width="793"/>
  <unicode hex="0045"/>
  <outline>
    <contour>
      <point x="553" y="8" type="line" smooth="yes"/>
      <point x="611" y="8"/>
      <point x="658" y="51"/>
      <point x="658" y="105" type="curve"/>
      <point x="658" y="105" type="line"/>
      <point x="658" y="159"/>
      <point x="611" y="202"/>
      <point x="553" y="202" type="curve" smooth="yes"/>
      <point x="210" y="202" type="line"/>
      <point x="210" y="413" type="line"/>
      <point x="422" y="413" type="line" smooth="yes"/>
      <point x="480" y="413"/>
      <point x="527" y="456"/>
      <point x="527" y="510" type="curve"/>
      <point x="527" y="510" type="line"/>
      <point x="527" y="564"/>
      <point x="480" y="607"/>
      <point x="422" y="607" type="curve" smooth="yes"/>
      <point x="210" y="607" type="line"/>
      <point x="210" y="798" type="line"/>
      <point x="553" y="798" type="line" smooth="yes"/>
      <point x="611" y="798"/>
      <point x="658" y="841"/>
      <point x="658" y="895" type="curve"/>
      <point x="658" y="895" type="line"/>
      <point x="658" y="949"/>
      <point x="611" y="992"/>
      <point x="553" y="992" type="curve" smooth="yes"/>
      <point x="121" y="1000" type="line" smooth="yes"/>
      <point x="54" y="1000"/>
      <point x="0" y="950"/>
      <point x="0" y="888" type="curve" smooth="yes"/>
      <point x="0" y="112" type="line" smooth="yes"/>
      <point x="0" y="50"/>
      <point x="54" y="0"/>
      <point x="121" y="0" type="curve" smooth="yes"/>
    </contour>
  </outline>
</glyph>
<glyph name="Latin_Capital_Letter_E" format="1">
  <advance width="650"/>
  <unicode hex="0045"/>
  <outline>
    <contour>
      <point x="545" y="0" type="line" smooth="yes"/>
      <point x="603" y="0"/>
      <point x="650" y="43"/>
      <point x="650" y="97" type="curve"/>
      <point x="650" y="97" type="line"/>
      <point x="650" y="151"/>
      <point x="603" y="194"/>
      <point x="545" y="194" type="curve" smooth="yes"/>
      <point x="210" y="194" type="line"/>
      <point x="210" y="413" type="line"/>
      <point x="422" y="413" type="line" smooth="yes"/>
      <point x="480" y="413"/>
      <point x="527" y="456"/>
      <point x="527" y="510" type="curve"/>
      <point x="527" y="510" type="line"/>
      <point x="527" y="564"/>
      <point x="480" y="607"/>
      <point x="422" y="607" type="curve" smooth="yes"/>
      <point x="210" y="607" type="line"/>
      <point x="210" y="806" type="line"/>
      <point x="545" y="806" type="line" smooth="yes"/>
      <point x="603" y="806"/>
      <point x="650" y="849"/>
      <point x="650" y="903" type="curve"/>
      <point x="650" y="903" type="line"/>
      <point x="650" y="957"/>
      <point x="603" y="1000"/>
      <point x="545" y="1000" type="curve" smooth="yes"/>
      <point x="121" y="1000" type="line" smooth="yes"/>
      <point x="54" y="1000"/>
      <point x="0" y="950"/>
      <point x="0" y="888" type="curve" smooth="yes"/>
      <point x="0" y="112" type="line" smooth="yes"/>
      <point x="0" y="50"/>
      <point x="54" y="0"/>
      <point x="121" y="0" type="curve" smooth="yes"/>
    </contour>
  </outline>
</glyph>
<glyph name="F" format="1">
  <advance width="763"/>
  <unicode hex="0046"/>
  <outline>
    <contour>
      <point x="210" y="85" type="curve" smooth="yes"/>
      <point x="210" y="413" type="line"/>
      <point x="417" y="413" type="line" smooth="yes"/>
      <point x="471" y="413"/>
      <point x="515" y="456"/>
      <point x="515" y="510" type="curve" smooth="yes"/>
      <point x="515" y="564"/>
      <point x="471" y="607"/>
      <point x="417" y="607" type="curve" smooth="yes"/>
      <point x="210" y="607" type="line"/>
      <point x="210" y="806" type="line"/>
      <point x="529" y="806" type="line" smooth="yes"/>
      <point x="583" y="806"/>
      <point x="627" y="849"/>
      <point x="627" y="903" type="curve" smooth="yes"/>
      <point x="627" y="957"/>
      <point x="583" y="1000"/>
      <point x="529" y="1000" type="curve" smooth="yes"/>
      <point x="121" y="1000" type="line" smooth="yes"/>
      <point x="54" y="1000"/>
      <point x="0" y="953"/>
      <point x="0" y="896" type="curve" smooth="yes"/>
      <point x="0" y="85" type="line" smooth="yes"/>
      <point x="0" y="35"/>
      <point x="47" y="-6"/>
      <point x="105" y="-6" type="curve" smooth="yes"/>
      <point x="163" y="-6"/>
      <point x="210" y="35"/>
    </contour>
  </outline>
</glyph>
<glyph name="G" format="1">
  <advance width="994"/>
  <unicode hex="0047"/>
  <outline>
    <contour>
      <point x="544" y="567" type="line" smooth="yes"/>
      <point x="490" y="567"/>
      <point x="447" y="524"/>
      <point x="447" y="470" type="curve" smooth="yes"/>
      <point x="447" y="416"/>
      <point x="490" y="373"/>
      <point x="544" y="373" type="curve" smooth="yes"/>
      <point x="632" y="373" type="line"/>
      <point x="604" y="273"/>
      <point x="536" y="194"/>
      <point x="455" y="194" type="curve" smooth="yes"/>
      <point x="425" y="194" type="line" smooth="yes"/>
      <point x="299" y="194"/>
      <point x="217" y="318"/>
      <point x="217" y="472" type="curve" smooth="yes"/>
      <point x="217" y="528" type="line" smooth="yes"/>
      <point x="217" y="672"/>
      <point x="310" y="806"/>
      <point x="425" y="806" type="curve" smooth="yes"/>
      <point x="455" y="806" type="line" smooth="yes"/>
      <point x="520" y="806"/>
      <point x="574" y="775"/>
      <point x="611" y="724" type="curve"/>
      <point x="647" y="687"/>
      <point x="707" y="688"/>
      <point x="747" y="726" type="curve" smooth="yes"/>
      <point x="787" y="764"/>
      <point x="791" y="825"/>
      <point x="756" y="862" type="curve" smooth="yes"/>
      <point x="679" y="947"/>
      <point x="573" y="1000"/>
      <point x="455" y="1000" type="curve" smooth="yes"/>
      <point x="425" y="1000" type="line" smooth="yes"/>
      <point x="190" y="1000"/>
      <point x="0" y="788"/>
      <point x="0" y="528" type="curve" smooth="yes"/>
      <point x="0" y="472" type="line" smooth="yes"/>
      <point x="0" y="212"/>
      <point x="190" y="0"/>
      <point x="425" y="0" type="curve" smooth="yes"/>
      <point x="455" y="0" type="line" smooth="yes"/>
      <point x="676" y="0"/>
      <point x="855" y="210"/>
      <point x="859" y="470" type="curve" smooth="yes"/>
      <point x="862" y="524"/>
      <point x="818" y="567"/>
      <point x="764" y="567" type="curve" smooth="yes"/>
    </contour>
  </outline>
</glyph>
<glyph name="H" format="1">
  <advance width="882"/>
  <unicode hex="0048"/>
  <outline>
    <contour>
      <point x="210" y="413" type="line"/>
      <point x="537" y="413" type="line"/>
      <point x="537" y="85" type="line" smooth="yes"/>
      <point x="537" y="35"/>
      <point x="584" y="-6"/>
      <point x="642" y="-6" type="curve" smooth="yes"/>
      <point x="700" y="-6"/>
      <point x="747" y="35"/>
      <point x="747" y="85" type="curve" smooth="yes"/>
      <point x="747" y="915" type="line" smooth="yes"/>
      <point x="747" y="965"/>
      <point x="700" y="1006"/>
      <point x="642" y="1006" type="curve" smooth="yes"/>
      <point x="584" y="1006"/>
      <point x="537" y="965"/>
      <point x="537" y="915" type="curve" smooth="yes"/>
      <point x="537" y="607" type="line"/>
      <point x="210" y="607" type="line"/>
      <point x="210" y="915" type="line" smooth="yes"/>
      <point x="210" y="965"/>
      <point x="163" y="1006"/>
      <point x="105" y="1006" type="curve" smooth="yes"/>
      <point x="47" y="1006"/>
      <point x="0" y="965"/>
      <point x="0" y="915" type="curve" smooth="yes"/>
      <point x="0" y="85" type="line" smooth="yes"/>
      <point x="0" y="35"/>
      <point x="47" y="-6"/>
      <point x="105" y="-6" type="curve" smooth="yes"/>
      <point x="163" y="-6"/>
      <point x="210" y="35"/>
      <point x="210" y="85" type="curve" smooth="yes"/>
    </contour>
  </outline>
</glyph>
<glyph name="Latin_Capital_Letter_H" format="1">
  <advance width="812"/>
  <unicode hex="0048"/>
  <outline>
    <contour>
      <point x="210" y="413" type="line"/>
      <point x="602" y="413" type="line"/>
      <point x="602" y="91" type="line" smooth="yes"/>
      <point x="602" y="38"/>
      <point x="649" y="-6"/>
      <point x="707" y="-6" type="curve" smooth="yes"/>
      <point x="765" y="-6"/>
      <point x="812" y="38"/>
      <point x="812" y="91" type="curve" smooth="yes"/>
      <point x="812" y="909" type="line" smooth="yes"/>
      <point x="812" y="962"/>
      <point x="765" y="1006"/>
      <point x="707" y="1006" type="curve" smooth="yes"/>
      <point x="649" y="1006"/>
      <point x="602" y="962"/>
      <point x="602" y="909" type="curve" smooth="yes"/>
      <point x="602" y="607" type="line"/>
      <point x="210" y="607" type="line"/>
      <point x="210" y="909" type="line" smooth="yes"/>
      <point x="210" y="962"/>
      <point x="163" y="1006"/>
      <point x="105" y="1006" type="curve" smooth="yes"/>
      <point x="47" y="1006"/>
      <point x="0" y="962"/>
      <point x="0" y="909" type="curve" smooth="yes"/>
      <point x="0" y="91" type="line" smooth="yes"/>
      <point x="0" y="38"/>
      <point x="47" y="-6"/>
      <point x="105" y="-6" type="curve" smooth="yes"/>
      <point x="163" y="-6"/>
      <point x="210" y="38"/>
      <point x="210" y="91" type="curve" smooth="yes"/>
    </contour>
  </outline>
</glyph>
<glyph name="I" format="1">
  <advance width="345"/>
  <unicode hex="0049"/>
  <outline>
    <contour>
      <point x="210" y="915" type="line" smooth="yes"/>
      <point x="210" y="965"/>
      <point x="163" y="1006"/>
      <point x="105" y="1006" type="curve" smooth="yes"/>
      <point x="47" y="1006"/>
      <point x="0" y="965"/>
      <point x="0" y="915" type="curve" smooth="yes"/>
      <point x="0" y="85" type="line" smooth="yes"/>
      <point x="0" y="35"/>
      <point x="47" y="-6"/>
      <point x="105" y="-6" type="curve" smooth="yes"/>
      <point x="163" y="-6"/>
      <point x="210" y="35"/>
      <point x="210" y="85" type="curve" smooth="yes"/>
    </contour>
  </outline>
</glyph>
<glyph name="J" format="1">
  <advance width="707"/>
  <unicode hex="004A"/>
  <outline>
    <contour>
      <point x="362" y="300" type="line" smooth="yes"/>
      <point x="362" y="254"/>
      <point x="336" y="215"/>
      <point x="294" y="197" type="curve" smooth="yes"/>
      <point x="251" y="179"/>
      <point x="206" y="188"/>
      <point x="173" y="221" type="curve" smooth="yes"/>
      <point x="137" y="260"/>
      <point x="74" y="261"/>
      <point x="33" y="223" type="curve" smooth="yes"/>
      <point x="-8" y="185"/>
      <point x="-11" y="123"/>
      <point x="25" y="84" type="curve"/>
      <point x="119" y="-6"/>
      <point x="251" y="-31"/>
      <point x="374" y="17" type="curve" smooth="yes"/>
      <point x="497" y="66"/>
      <point x="572" y="173"/>
      <point x="572" y="300" type="curve" smooth="yes"/>
      <point x="572" y="915" type="line" smooth="yes"/>
      <point x="572" y="965"/>
      <point x="525" y="1006"/>
      <point x="467" y="1006" type="curve" smooth="yes"/>
      <point x="409" y="1006"/>
      <point x="362" y="965"/>
      <point x="362" y="915" type="curve" smooth="yes"/>
    </contour>
  </outline>
</glyph>
<glyph name="Latin_Capital_Letter_J" format="1">
  <advance width="720"/>
  <unicode hex="004A"/>
  <outline>
    <contour>
      <point x="374" y="313" type="line" smooth="yes"/>
      <point x="374" y="262"/>
      <point x="347" y="218"/>
      <point x="302" y="198" type="curve" smooth="yes"/>
      <point x="257" y="178"/>
      <point x="209" y="188"/>
      <point x="174" y="225" type="curve"/>
      <point x="174" y="225" type="line"/>
      <point x="137" y="265"/>
      <point x="74" y="267"/>
      <point x="33" y="229" type="curve"/>
      <point x="33" y="229" type="line"/>
      <point x="-8" y="191"/>
      <point x="-11" y="128"/>
      <point x="26" y="88" type="curve"/>
      <point x="26" y="88" type="line"/>
      <point x="122" y="-6"/>
      <point x="257" y="-32"/>
      <point x="382" y="18" type="curve" smooth="yes"/>
      <point x="507" y="69"/>
      <point x="584" y="181"/>
      <point x="584" y="313" type="curve" smooth="yes"/>
      <point x="584" y="909" type="line" smooth="yes"/>
      <point x="584" y="962"/>
      <point x="537" y="1006"/>
      <point x="479" y="1006" type="curve" smooth="yes"/>
      <point x="421" y="1006"/>
      <point x="374" y="962"/>
      <point x="374" y="909" type="curve" smooth="yes"/>
    </contour>
  </outline>
</glyph>
<glyph name="K" format="1">
  <advance width="801"/>
  <unicode hex="004B"/>
  <outline>
    <contour>
      <point x="210" y="331" type="line"/>
      <point x="245" y="372" type="line"/>
      <point x="473" y="42" type="line" smooth="yes"/>
      <point x="501" y="0"/>
      <point x="564" y="-13"/>
      <point x="614" y="14" type="curve" smooth="yes"/>
      <point x="663" y="42"/>
      <point x="680" y="98"/>
      <point x="652" y="141" type="curve" smooth="yes"/>
      <point x="379" y="532" type="line"/>
      <point x="648" y="853" type="line" smooth="yes"/>
      <point x="679" y="893"/>
      <point x="667" y="950"/>
      <point x="620" y="981" type="curve" smooth="yes"/>
      <point x="573" y="1012"/>
      <point x="510" y="1004"/>
      <point x="478" y="964" type="curve" smooth="yes"/>
      <point x="210" y="642" type="line"/>
      <point x="210" y="915" type="line" smooth="yes"/>
      <point x="210" y="965"/>
      <point x="163" y="1006"/>
      <point x="105" y="1006" type="curve" smooth="yes"/>
      <point x="47" y="1006"/>
      <point x="0" y="965"/>
      <point x="0" y="915" type="curve" smooth="yes"/>
      <point x="0" y="85" type="line" smooth="yes"/>
      <point x="0" y="35"/>
      <point x="47" y="-6"/>
      <point x="105" y="-6" type="curve" smooth="yes"/>
      <point x="163" y="-6"/>
      <point x="210" y="35"/>
      <point x="210" y="85" type="curve" smooth="yes"/>
    </contour>
  </outline>
</glyph>
<glyph name="L" format="1">
  <advance width="820"/>
  <unicode hex="004C"/>
  <outline>
    <contour>
      <point x="580" y="8" type="line" smooth="yes"/>
      <point x="638" y="8"/>
      <point x="685" y="51"/>
      <point x="685" y="105" type="curve"/>
      <point x="685" y="105" type="line"/>
      <point x="685" y="159"/>
      <point x="638" y="202"/>
      <point x="580" y="202" type="curve" smooth="yes"/>
      <point x="210" y="202" type="line"/>
      <point x="210" y="909" type="line" smooth="yes"/>
      <point x="210" y="962"/>
      <point x="163" y="1006"/>
      <point x="105" y="1006" type="curve" smooth="yes"/>
      <point x="47" y="1006"/>
      <point x="0" y="962"/>
      <point x="0" y="909" type="curve" smooth="yes"/>
      <point x="0" y="106" type="line" smooth="yes"/>
      <point x="0" y="44"/>
      <point x="54" y="-6"/>
      <point x="121" y="-6" type="curve" smooth="yes"/>
    </contour>
  </outline>
</glyph>
<glyph name="Latin_Capital_Letter_L" format="1">
  <advance width="812"/>
  <unicode hex="004C"/>
  <outline>
    <contour>
      <point x="572" y="0" type="line" smooth="yes"/>
      <point x="630" y="0"/>
      <point x="677" y="43"/>
      <point x="677" y="97" type="curve"/>
      <point x="677" y="97" type="line"/>
      <point x="677" y="151"/>
      <point x="630" y="194"/>
      <point x="572" y="194" type="curve" smooth="yes"/>
      <point x="210" y="194" type="line"/>
      <point x="210" y="909" type="line" smooth="yes"/>
      <point x="210" y="962"/>
      <point x="163" y="1006"/>
      <point x="105" y="1006" type="curve" smooth="yes"/>
      <point x="47" y="1006"/>
      <point x="0" y="962"/>
      <point x="0" y="909" type="curve" smooth="yes"/>
      <point x="0" y="112" type="line" smooth="yes"/>
      <point x="0" y="50"/>
      <point x="54" y="0"/>
      <point x="121" y="0" type="curve" smooth="yes"/>
    </contour>
  </outline>
</glyph>
<glyph name="Latin_Capital_Letter_M" format="1">
  <advance width="1264"/>
  <unicode hex="004D"/>
  <outline>
    <contour>
      <point x="448" y="75" type="line" smooth="yes"/>
      <point x="462" y="28"/>
      <point x="506" y="-4"/>
      <point x="560" y="-6" type="curve" smooth="yes"/>
      <point x="613" y="-7"/>
      <point x="660" y="21"/>
      <point x="678" y="68" type="curve"/>
      <point x="824" y="559" type="line"/>
      <point x="920" y="73" type="line" smooth="yes"/>
      <point x="931" y="20"/>
      <point x="986" y="-14"/>
      <point x="1043" y="-4" type="curve" smooth="yes"/>
      <point x="1100" y="6"/>
      <point x="1137" y="57"/>
      <point x="1126" y="110" type="curve" smooth="yes"/>
      <point x="956" y="916" type="line" smooth="yes"/>
      <point x="946" y="966"/>
      <point x="902" y="1002"/>
      <point x="847" y="1006" type="curve" smooth="yes"/>
      <point x="792" y="1009"/>
      <point x="743" y="980"/>
      <point x="724" y="932" type="curve"/>
      <point x="560" y="364" type="line"/>
      <point x="407" y="925" type="line" smooth="yes"/>
      <point x="391" y="975"/>
      <point x="342" y="1008"/>
      <point x="286" y="1006" type="curve" smooth="yes"/>
      <point x="229" y="1004"/>
      <point x="183" y="967"/>
      <point x="172" y="916" type="curve" smooth="yes"/>
      <point x="2" y="110" type="line" smooth="yes"/>
      <point x="-9" y="57"/>
      <point x="28" y="6"/>
      <point x="85" y="-4" type="curve" smooth="yes"/>
      <point x="142" y="-14"/>
      <point x="197" y="20"/>
      <point x="208" y="73" type="curve" smooth="yes"/>
      <point x="306" y="569" type="line"/>
    </contour>
  </outline>
</glyph>
<glyph name="M" format="1">
  <advance width="1264"/>
  <unicode hex="004D"/>
  <outline>
    <contour>
      <point x="450" y="69" type="line"/>
      <point x="467" y="23"/>
      <point x="512" y="-6"/>
      <point x="564" y="-6" type="curve" smooth="yes"/>
      <point x="617" y="-6"/>
      <point x="661" y="23"/>
      <point x="678" y="69" type="curve"/>
      <point x="824" y="559" type="line"/>
      <point x="921" y="69" type="line" smooth="yes"/>
      <point x="934" y="17"/>
      <point x="990" y="-15"/>
      <point x="1047" y="-3" type="curve" smooth="yes"/>
      <point x="1103" y="9"/>
      <point x="1139" y="61"/>
      <point x="1125" y="113" type="curve"/>
      <point x="955" y="919" type="line" smooth="yes"/>
      <point x="943" y="969"/>
      <point x="899" y="1003"/>
      <point x="844" y="1006" type="curve" smooth="yes"/>
      <point x="789" y="1008"/>
      <point x="742" y="979"/>
      <point x="724" y="931" type="curve"/>
      <point x="560" y="364" type="line"/>
      <point x="405" y="931" type="line"/>
      <point x="387" y="979"/>
      <point x="338" y="1009"/>
      <point x="283" y="1006" type="curve" smooth="yes"/>
      <point x="228" y="1002"/>
      <point x="184" y="967"/>
      <point x="172" y="917" type="curve" smooth="yes"/>
      <point x="2" y="111" type="line" smooth="yes"/>
      <point x="-10" y="59"/>
      <point x="27" y="7"/>
      <point x="83" y="-4" type="curve" smooth="yes"/>
      <point x="140" y="-15"/>
      <point x="196" y="19"/>
      <point x="208" y="71" type="curve" smooth="yes"/>
      <point x="306" y="569" type="line"/>
    </contour>
  </outline>
</glyph>
<glyph name="Latin_Capital_Letter_N" format="1">
  <advance width="767"/>
  <unicode hex="004E"/>
  <outline>
    <contour>
      <point x="210" y="548" type="line"/>
      <point x="544" y="47" type="line" smooth="yes"/>
      <point x="572" y="4"/>
      <point x="626" y="-15"/>
      <point x="679" y="-2" type="curve" smooth="yes"/>
      <point x="732" y="12"/>
      <point x="767" y="55"/>
      <point x="767" y="106" type="curve" smooth="yes"/>
      <point x="767" y="909" type="line" smooth="yes"/>
      <point x="767" y="962"/>
      <point x="720" y="1006"/>
      <point x="662" y="1006" type="curve" smooth="yes"/>
      <point x="604" y="1006"/>
      <point x="557" y="962"/>
      <point x="557" y="909" type="curve" smooth="yes"/>
      <point x="557" y="452" type="line"/>
      <point x="224" y="953" type="line" smooth="yes"/>
      <point x="195" y="996"/>
      <point x="141" y="1015"/>
      <point x="88" y="1002" type="curve" smooth="yes"/>
      <point x="35" y="988"/>
      <point x="0" y="945"/>
      <point x="0" y="894" type="curve" smooth="yes"/>
      <point x="0" y="91" type="line" smooth="yes"/>
      <point x="0" y="38"/>
      <point x="47" y="-6"/>
      <point x="105" y="-6" type="curve" smooth="yes"/>
      <point x="163" y="-6"/>
      <point x="210" y="38"/>
      <point x="210" y="91" type="curve" smooth="yes"/>
    </contour>
  </outline>
</glyph>
<glyph name="N" format="1">
  <advance width="903"/>
  <unicode hex="004E"/>
  <outline>
    <contour>
      <point x="210" y="553" type="line"/>
      <point x="541" y="47" type="line" smooth="yes"/>
      <point x="569" y="5"/>
      <point x="623" y="-15"/>
      <point x="677" y="-2" type="curve" smooth="yes"/>
      <point x="731" y="10"/>
      <point x="767" y="50"/>
      <point x="767" y="98" type="curve" smooth="yes"/>
      <point x="767" y="915" type="line" smooth="yes"/>
      <point x="767" y="965"/>
      <point x="720" y="1006"/>
      <point x="662" y="1006" type="curve" smooth="yes"/>
      <point x="604" y="1006"/>
      <point x="557" y="965"/>
      <point x="557" y="915" type="curve" smooth="yes"/>
      <point x="557" y="447" type="line"/>
      <point x="226" y="953" type="line" smooth="yes"/>
      <point x="198" y="995"/>
      <point x="144" y="1015"/>
      <point x="90" y="1002" type="curve" smooth="yes"/>
      <point x="36" y="990"/>
      <point x="0" y="950"/>
      <point x="0" y="902" type="curve" smooth="yes"/>
      <point x="0" y="85" type="line" smooth="yes"/>
      <point x="0" y="35"/>
      <point x="47" y="-6"/>
      <point x="105" y="-6" type="curve" smooth="yes"/>
      <point x="163" y="-6"/>
      <point x="210" y="35"/>
      <point x="210" y="85" type="curve" smooth="yes"/>
    </contour>
  </outline>
</glyph>
<glyph name="Latin_Capital_Letter_O" format="1">
  <advance width="880"/>
  <unicode hex="004F"/>
  <outline>
    <contour>
      <point x="226" y="472" type="curve" smooth="yes"/>
      <point x="226" y="528" type="line" smooth="yes"/>
      <point x="226" y="672"/>
      <point x="315" y="806"/>
      <point x="425" y="806" type="curve" smooth="yes"/>
      <point x="455" y="806" type="line" smooth="yes"/>
      <point x="575" y="806"/>
      <point x="654" y="682"/>
      <point x="654" y="528" type="curve" smooth="yes"/>
      <point x="654" y="472" type="line" smooth="yes"/>
      <point x="654" y="328"/>
      <point x="565" y="194"/>
      <point x="455" y="194" type="curve" smooth="yes"/>
      <point x="425" y="194" type="line" smooth="yes"/>
      <point x="305" y="194"/>
      <point x="226" y="318"/>
    </contour>
    <contour>
      <point x="0" y="472" type="line" smooth="yes"/>
      <point x="0" y="212"/>
      <point x="190" y="0"/>
      <point x="425" y="0" type="curve" smooth="yes"/>
      <point x="455" y="0" type="line" smooth="yes"/>
      <point x="690" y="0"/>
      <point x="880" y="212"/>
      <point x="880" y="472" type="curve" smooth="yes"/>
      <point x="880" y="528" type="line" smooth="yes"/>
      <point x="880" y="788"/>
      <point x="690" y="1000"/>
      <point x="455" y="1000" type="curve" smooth="yes"/>
      <point x="425" y="1000" type="line" smooth="yes"/>
      <point x="190" y="1000"/>
      <point x="0" y="788"/>
      <point x="0" y="528" type="curve" smooth="yes"/>
    </contour>
  </outline>
</glyph>
<glyph name="O" format="1">
  <advance width="1015"/>
  <unicode hex="004F"/>
  <outline>
    <contour>
      <point x="216" y="472" type="curve" smooth="yes"/>
      <point x="216" y="528" type="line" smooth="yes"/>
      <point x="216" y="672"/>
      <point x="309" y="806"/>
      <point x="425" y="806" type="curve" smooth="yes"/>
      <point x="455" y="806" type="line" smooth="yes"/>
      <point x="581" y="806"/>
      <point x="664" y="682"/>
      <point x="664" y="528" type="curve" smooth="yes"/>
      <point x="664" y="472" type="line" smooth="yes"/>
      <point x="664" y="328"/>
      <point x="571" y="194"/>
      <point x="455" y="194" type="curve" smooth="yes"/>
      <point x="425" y="194" type="line" smooth="yes"/>
      <point x="299" y="194"/>
      <point x="216" y="318"/>
    </contour>
    <contour>
      <point x="0" y="472" type="line" smooth="yes"/>
      <point x="0" y="212"/>
      <point x="190" y="0"/>
      <point x="425" y="0" type="curve" smooth="yes"/>
      <point x="455" y="0" type="line" smooth="yes"/>
      <point x="690" y="0"/>
      <point x="880" y="212"/>
      <point x="880" y="472" type="curve" smooth="yes"/>
      <point x="880" y="528" type="line" smooth="yes"/>
      <point x="880" y="788"/>
      <point x="690" y="1000"/>
      <point x="455" y="1000" type="curve" smooth="yes"/>
      <point x="425" y="1000" type="line" smooth="yes"/>
      <point x="190" y="1000"/>
      <point x="0" y="788"/>
      <point x="0" y="528" type="curve" smooth="yes"/>
    </contour>
  </outline>
</glyph>
<glyph name="P" format="1">
  <advance width="790"/>
  <unicode hex="0050"/>
  <outline>
    <contour>
      <point x="210" y="85" type="curve" smooth="yes"/>
      <point x="210" y="353" type="line"/>
      <point x="306" y="353" type="line" smooth="yes"/>
      <point x="498" y="353"/>
      <point x="654" y="495"/>
      <point x="654" y="670" type="curve" smooth="yes"/>
      <point x="654" y="683" type="line" smooth="yes"/>
      <point x="654" y="858"/>
      <point x="498" y="1000"/>
      <point x="306" y="1000" type="curve" smooth="yes"/>
      <point x="121" y="1000" type="line" smooth="yes"/>
      <point x="54" y="1000"/>
      <point x="0" y="953"/>
      <point x="0" y="896" type="curve" smooth="yes"/>
      <point x="0" y="85" type="line" smooth="yes"/>
      <point x="0" y="35"/>
      <point x="47" y="-6"/>
      <point x="105" y="-6" type="curve" smooth="yes"/>
      <point x="163" y="-6"/>
      <point x="210" y="35"/>
    </contour>
    <contour>
      <point x="210" y="806" type="line"/>
      <point x="306" y="806" type="line" smooth="yes"/>
      <point x="379" y="806"/>
      <point x="440" y="751"/>
      <point x="440" y="683" type="curve" smooth="yes"/>
      <point x="440" y="670" type="line" smooth="yes"/>
      <point x="440" y="601"/>
      <point x="380" y="547"/>
      <point x="306" y="547" type="curve" smooth="yes"/>
      <point x="210" y="547" type="line"/>
    </contour>
  </outline>
</glyph>
<glyph name="Q" format="1">
  <advance width="1015"/>
  <unicode hex="0051"/>
  <outline>
    <contour>
      <point x="216" y="472" type="curve" smooth="yes"/>
      <point x="216" y="528" type="line" smooth="yes"/>
      <point x="216" y="672"/>
      <point x="309" y="806"/>
      <point x="425" y="806" type="curve" smooth="yes"/>
      <point x="455" y="806" type="line" smooth="yes"/>
      <point x="581" y="806"/>
      <point x="664" y="682"/>
      <point x="664" y="528" type="curve" smooth="yes"/>
      <point x="664" y="472" type="line" smooth="yes"/>
      <point x="664" y="328"/>
      <point x="571" y="194"/>
      <point x="455" y="194" type="curve" smooth="yes"/>
      <point x="425" y="194" type="line" smooth="yes"/>
      <point x="299" y="194"/>
      <point x="216" y="318"/>
    </contour>
    <contour>
      <point x="0" y="473" type="line" smooth="yes"/>
      <point x="0" y="302"/>
      <point x="73" y="157"/>
      <point x="204" y="69" type="curve" smooth="yes"/>
      <point x="587" y="-163" type="line"/>
      <point x="626" y="-197"/>
      <point x="687" y="-190"/>
      <point x="721" y="-149" type="curve" smooth="yes"/>
      <point x="756" y="-107"/>
      <point x="752" y="-46"/>
      <point x="713" y="-12" type="curve"/>
      <point x="618" y="36" type="line"/>
      <point x="772" y="107"/>
      <point x="880" y="275"/>
      <point x="880" y="472" type="curve" smooth="yes"/>
      <point x="880" y="528" type="line" smooth="yes"/>
      <point x="880" y="788"/>
      <point x="690" y="1000"/>
      <point x="455" y="1000" type="curve" smooth="yes"/>
      <point x="425" y="1000" type="line" smooth="yes"/>
      <point x="190" y="1000"/>
      <point x="0" y="788"/>
      <point x="0" y="528" type="curve" smooth="yes"/>
    </contour>
  </outline>
</glyph>
<glyph name="R" format="1">
  <advance width="790"/>
  <unicode hex="0052"/>
  <outline>
    <contour>
      <point x="210" y="353" type="line"/>
      <point x="301" y="353" type="line"/>
      <point x="453" y="49" type="line" smooth="yes"/>
      <point x="468" y="18"/>
      <point x="499" y="-1"/>
      <point x="537" y="-5" type="curve" smooth="yes"/>
      <point x="576" y="-9"/>
      <point x="610" y="4"/>
      <point x="634" y="31" type="curve" smooth="yes"/>
      <point x="657" y="57"/>
      <point x="661" y="90"/>
      <point x="646" y="121" type="curve" smooth="yes"/>
      <point x="502" y="408" type="line"/>
      <point x="594" y="465"/>
      <point x="654" y="561"/>
      <point x="654" y="670" type="curve" smooth="yes"/>
      <point x="654" y="683" type="line" smooth="yes"/>
      <point x="654" y="858"/>
      <point x="498" y="1000"/>
      <point x="306" y="1000" type="curve" smooth="yes"/>
      <point x="121" y="1000" type="line" smooth="yes"/>
      <point x="54" y="1000"/>
      <point x="0" y="953"/>
      <point x="0" y="896" type="curve" smooth="yes"/>
      <point x="0" y="85" type="line" smooth="yes"/>
      <point x="0" y="35"/>
      <point x="47" y="-6"/>
      <point x="105" y="-6" type="curve" smooth="yes"/>
      <point x="163" y="-6"/>
      <point x="210" y="35"/>
      <point x="210" y="85" type="curve" smooth="yes"/>
    </contour>
    <contour>
      <point x="210" y="806" type="line"/>
      <point x="306" y="806" type="line" smooth="yes"/>
      <point x="376" y="806"/>
      <point x="434" y="751"/>
      <point x="434" y="683" type="curve" smooth="yes"/>
      <point x="434" y="670" type="line" smooth="yes"/>
      <point x="434" y="601"/>
      <point x="376" y="547"/>
      <point x="306" y="547" type="curve" smooth="yes"/>
      <point x="210" y="547" type="line"/>
    </contour>
  </outline>
</glyph>
<glyph name="S" format="1">
  <advance width="812"/>
  <unicode hex="0053"/>
  <outline>
    <contour>
      <point x="677" y="318" type="curve" smooth="yes"/>
      <point x="677" y="497"/>
      <point x="533" y="583"/>
      <point x="363" y="638" type="curve" smooth="yes"/>
      <point x="319" y="653"/>
      <point x="234" y="680"/>
      <point x="234" y="727" type="curve" smooth="yes"/>
      <point x="234" y="774"/>
      <point x="277" y="812"/>
      <point x="331" y="812" type="curve"/>
      <point x="331" y="812" type="line"/>
      <point x="371" y="812"/>
      <point x="406" y="803"/>
      <point x="435" y="787" type="curve"/>
      <point x="436" y="788" type="line"/>
      <point x="473" y="748"/>
      <point x="536" y="745"/>
      <point x="576" y="783" type="curve"/>
      <point x="576" y="783" type="line"/>
      <point x="617" y="820"/>
      <point x="619" y="883"/>
      <point x="582" y="923" type="curve"/>
      <point x="583" y="924" type="line"/>
      <point x="513" y="979"/>
      <point x="429" y="1006"/>
      <point x="331" y="1006" type="curve"/>
      <point x="331" y="1006" type="line"/>
      <point x="161" y="1006"/>
      <point x="24" y="881"/>
      <point x="24" y="727" type="curve" smooth="yes"/>
      <point x="24" y="573"/>
      <point x="157" y="500"/>
      <point x="303" y="453" type="curve" smooth="yes"/>
      <point x="371" y="431"/>
      <point x="467" y="390"/>
      <point x="467" y="318" type="curve" smooth="yes"/>
      <point x="467" y="247"/>
      <point x="399" y="188"/>
      <point x="316" y="188" type="curve"/>
      <point x="316" y="188" type="line"/>
      <point x="260" y="188"/>
      <point x="213" y="201"/>
      <point x="174" y="226" type="curve"/>
      <point x="172" y="225" type="line"/>
      <point x="135" y="266"/>
      <point x="72" y="268"/>
      <point x="32" y="231" type="curve"/>
      <point x="32" y="231" type="line"/>
      <point x="-8" y="193"/>
      <point x="-11" y="130"/>
      <point x="26" y="90" type="curve"/>
      <point x="25" y="89" type="line"/>
      <point x="105" y="26"/>
      <point x="202" y="-6"/>
      <point x="316" y="-6" type="curve"/>
      <point x="316" y="-6" type="line"/>
      <point x="515" y="-6"/>
      <point x="677" y="139"/>
    </contour>
  </outline>
</glyph>
<glyph name="Latin_Capital_Letter_T" format="1">
  <advance width="812"/>
  <unicode hex="0054"/>
  <outline>
    <contour>
      <point x="511" y="806" type="line"/>
      <point x="707" y="806" type="line" smooth="yes"/>
      <point x="765" y="806"/>
      <point x="812" y="849"/>
      <point x="812" y="903" type="curve"/>
      <point x="812" y="903" type="line"/>
      <point x="812" y="957"/>
      <point x="765" y="1000"/>
      <point x="707" y="1000" type="curve" smooth="yes"/>
      <point x="105" y="1000" type="line" smooth="yes"/>
      <point x="47" y="1000"/>
      <point x="0" y="957"/>
      <point x="0" y="903" type="curve"/>
      <point x="0" y="903" type="line"/>
      <point x="0" y="849"/>
      <point x="47" y="806"/>
      <point x="105" y="806" type="curve" smooth="yes"/>
      <point x="301" y="806" type="line"/>
      <point x="301" y="91" type="line" smooth="yes"/>
      <point x="301" y="38"/>
      <point x="348" y="-6"/>
      <point x="406" y="-6" type="curve" smooth="yes"/>
      <point x="464" y="-6"/>
      <point x="511" y="38"/>
      <point x="511" y="91" type="curve" smooth="yes"/>
    </contour>
  </outline>
</glyph>
<glyph name="T" format="1">
  <advance width="963"/>
  <unicode hex="0054"/>
  <outline>
    <contour>
      <point x="519" y="798" type="line"/>
      <point x="723" y="798" type="line" smooth="yes"/>
      <point x="781" y="798"/>
      <point x="828" y="841"/>
      <point x="828" y="895" type="curve"/>
      <point x="828" y="895" type="line"/>
      <point x="828" y="949"/>
      <point x="781" y="992"/>
      <point x="723" y="992" type="curve" smooth="yes"/>
      <point x="105" y="992" type="line" smooth="yes"/>
      <point x="47" y="992"/>
      <point x="0" y="949"/>
      <point x="0" y="895" type="curve"/>
      <point x="0" y="895" type="line"/>
      <point x="0" y="841"/>
      <point x="47" y="798"/>
      <point x="105" y="798" type="curve" smooth="yes"/>
      <point x="309" y="798" type="line"/>
      <point x="309" y="91" type="line" smooth="yes"/>
      <point x="309" y="38"/>
      <point x="356" y="-6"/>
      <point x="414" y="-6" type="curve" smooth="yes"/>
      <point x="472" y="-6"/>
      <point x="519" y="38"/>
      <point x="519" y="91" type="curve" smooth="yes"/>
    </contour>
  </outline>
</glyph>
<glyph name="Latin_Capital_Letter_U" format="1">
  <advance width="836"/>
  <unicode hex="0055"/>
  <outline>
    <contour>
      <point x="433" y="0" type="line" smooth="yes"/>
      <point x="655" y="0"/>
      <point x="836" y="212"/>
      <point x="836" y="472" type="curve" smooth="yes"/>
      <point x="836" y="909" type="line" smooth="yes"/>
      <point x="836" y="962"/>
      <point x="789" y="1006"/>
      <point x="731" y="1006" type="curve" smooth="yes"/>
      <point x="673" y="1006"/>
      <point x="626" y="962"/>
      <point x="626" y="909" type="curve" smooth="yes"/>
      <point x="626" y="472" type="line" smooth="yes"/>
      <point x="626" y="330"/>
      <point x="540" y="194"/>
      <point x="433" y="194" type="curve" smooth="yes"/>
      <point x="403" y="194" type="line" smooth="yes"/>
      <point x="282" y="194"/>
      <point x="210" y="318"/>
      <point x="210" y="472" type="curve" smooth="yes"/>
      <point x="210" y="909" type="line" smooth="yes"/>
      <point x="210" y="962"/>
      <point x="163" y="1006"/>
      <point x="105" y="1006" type="curve" smooth="yes"/>
      <point x="47" y="1006"/>
      <point x="0" y="962"/>
      <point x="0" y="909" type="curve" smooth="yes"/>
      <point x="0" y="472" type="line" smooth="yes"/>
      <point x="0" y="212"/>
      <point x="181" y="0"/>
      <point x="403" y="0" type="curve" smooth="yes"/>
    </contour>
  </outline>
</glyph>
<glyph name="U" format="1">
  <advance width="910"/>
  <unicode hex="0055"/>
  <outline>
    <contour>
      <point x="401" y="0" type="line" smooth="yes"/>
      <point x="607" y="0"/>
      <point x="774" y="212"/>
      <point x="774" y="472" type="curve" smooth="yes"/>
      <point x="774" y="915" type="line" smooth="yes"/>
      <point x="774" y="965"/>
      <point x="727" y="1006"/>
      <point x="669" y="1006" type="curve" smooth="yes"/>
      <point x="611" y="1006"/>
      <point x="564" y="965"/>
      <point x="564" y="915" type="curve" smooth="yes"/>
      <point x="564" y="472" type="line" smooth="yes"/>
      <point x="564" y="333"/>
      <point x="492" y="194"/>
      <point x="401" y="194" type="curve" smooth="yes"/>
      <point x="374" y="194" type="line" smooth="yes"/>
      <point x="263" y="194"/>
      <point x="210" y="318"/>
      <point x="210" y="472" type="curve" smooth="yes"/>
      <point x="210" y="915" type="line" smooth="yes"/>
      <point x="210" y="965"/>
      <point x="163" y="1006"/>
      <point x="105" y="1006" type="curve" smooth="yes"/>
      <point x="47" y="1006"/>
      <point x="0" y="965"/>
      <point x="0" y="915" type="curve" smooth="yes"/>
      <point x="0" y="472" type="line" smooth="yes"/>
      <point x="0" y="212"/>
      <point x="167" y="0"/>
      <point x="374" y="0" type="curve" smooth="yes"/>
    </contour>
  </outline>
</glyph>
<glyph name="V" format="1">
  <advance width="993"/>
  <unicode hex="0056"/>
  <outline>
    <contour>
      <point x="284" y="83" type="line"/>
      <point x="309" y="27"/>
      <point x="367" y="-8"/>
      <point x="434" y="-6" type="curve" smooth="yes"/>
      <point x="500" y="-4"/>
      <point x="555" y="34"/>
      <point x="577" y="92" type="curve" smooth="yes"/>
      <point x="852" y="877" type="line" smooth="yes"/>
      <point x="871" y="927"/>
      <point x="842" y="983"/>
      <point x="787" y="1000" type="curve" smooth="yes"/>
      <point x="732" y="1018"/>
      <point x="672" y="991"/>
      <point x="653" y="941" type="curve" smooth="yes"/>
      <point x="429" y="297" type="line"/>
      <point x="202" y="946" type="line"/>
      <point x="179" y="996"/>
      <point x="118" y="1019"/>
      <point x="64" y="998" type="curve" smooth="yes"/>
      <point x="11" y="977"/>
      <point x="-14" y="920"/>
      <point x="8" y="871" type="curve"/>
    </contour>
  </outline>
</glyph>
<glyph name="Latin_Capital_Letter_W" format="1">
  <advance width="1354"/>
  <unicode hex="0057"/>
  <outline>
    <contour>
      <point x="268" y="74" type="line" smooth="yes"/>
      <point x="284" y="26"/>
      <point x="329" y="-6"/>
      <point x="384" y="-6" type="curve" smooth="yes"/>
      <point x="438" y="-6"/>
      <point x="484" y="26"/>
      <point x="499" y="74" type="curve" smooth="yes"/>
      <point x="677" y="652" type="line"/>
      <point x="855" y="74" type="line" smooth="yes"/>
      <point x="870" y="26"/>
      <point x="916" y="-6"/>
      <point x="970" y="-6" type="curve" smooth="yes"/>
      <point x="1024" y="-6"/>
      <point x="1070" y="26"/>
      <point x="1086" y="74" type="curve" smooth="yes"/>
      <point x="1349" y="881" type="line" smooth="yes"/>
      <point x="1366" y="932"/>
      <point x="1335" y="986"/>
      <point x="1279" y="1002" type="curve" smooth="yes"/>
      <point x="1224" y="1017"/>
      <point x="1165" y="988"/>
      <point x="1148" y="937" type="curve" smooth="yes"/>
      <point x="969" y="352" type="line"/>
      <point x="792" y="926" type="line" smooth="yes"/>
      <point x="777" y="974"/>
      <point x="731" y="1006"/>
      <point x="677" y="1006" type="curve" smooth="yes"/>
      <point x="623" y="1006"/>
      <point x="577" y="974"/>
      <point x="561" y="926" type="curve" smooth="yes"/>
      <point x="385" y="352" type="line"/>
      <point x="206" y="937" type="line" smooth="yes"/>
      <point x="189" y="988"/>
      <point x="130" y="1017"/>
      <point x="75" y="1002" type="curve" smooth="yes"/>
      <point x="19" y="986"/>
      <point x="-12" y="932"/>
      <point x="5" y="881" type="curve" smooth="yes"/>
    </contour>
  </outline>
</glyph>
<glyph name="W" format="1">
  <advance width="1489"/>
  <unicode hex="0057"/>
  <outline>
    <contour>
      <point x="270" y="69" type="line" smooth="yes"/>
      <point x="287" y="23"/>
      <point x="332" y="-6"/>
      <point x="385" y="-6" type="curve" smooth="yes"/>
      <point x="438" y="-5"/>
      <point x="482" y="25"/>
      <point x="498" y="71" type="curve" smooth="yes"/>
      <point x="677" y="653" type="line"/>
      <point x="856" y="69" type="line"/>
      <point x="873" y="23"/>
      <point x="918" y="-6"/>
      <point x="971" y="-6" type="curve" smooth="yes"/>
      <point x="1024" y="-5"/>
      <point x="1068" y="25"/>
      <point x="1085" y="71" type="curve" smooth="yes"/>
      <point x="1349" y="879" type="line" smooth="yes"/>
      <point x="1367" y="930"/>
      <point x="1336" y="984"/>
      <point x="1281" y="1001" type="curve" smooth="yes"/>
      <point x="1226" y="1018"/>
      <point x="1167" y="990"/>
      <point x="1149" y="939" type="curve" smooth="yes"/>
      <point x="969" y="352" type="line"/>
      <point x="791" y="931" type="line"/>
      <point x="774" y="977"/>
      <point x="729" y="1006"/>
      <point x="676" y="1006" type="curve" smooth="yes"/>
      <point x="623" y="1005"/>
      <point x="579" y="975"/>
      <point x="562" y="929" type="curve"/>
      <point x="385" y="352" type="line"/>
      <point x="204" y="941" type="line"/>
      <point x="185" y="991"/>
      <point x="125" y="1018"/>
      <point x="71" y="1000" type="curve" smooth="yes"/>
      <point x="16" y="983"/>
      <point x="-13" y="928"/>
      <point x="6" y="877" type="curve" smooth="yes"/>
    </contour>
  </outline>
</glyph>
<glyph name="Latin_Capital_Letter_X" format="1">
  <advance width="858"/>
  <unicode hex="0058"/>
  <outline>
    <contour>
      <point x="361" y="306" type="line"/>
      <point x="527" y="43" type="line" smooth="yes"/>
      <point x="556" y="-4"/>
      <point x="620" y="-20"/>
      <point x="670" y="7" type="curve" smooth="yes"/>
      <point x="720" y="34"/>
      <point x="737" y="94"/>
      <point x="708" y="140" type="curve" smooth="yes"/>
      <point x="483" y="500" type="line"/>
      <point x="708" y="860" type="line" smooth="yes"/>
      <point x="737" y="906"/>
      <point x="720" y="966"/>
      <point x="670" y="993" type="curve" smooth="yes"/>
      <point x="620" y="1020"/>
      <point x="556" y="1004"/>
      <point x="527" y="957" type="curve" smooth="yes"/>
      <point x="361" y="694" type="line"/>
      <point x="196" y="957" type="line" smooth="yes"/>
      <point x="167" y="1004"/>
      <point x="103" y="1020"/>
      <point x="53" y="993" type="curve" smooth="yes"/>
      <point x="3" y="966"/>
      <point x="-14" y="906"/>
      <point x="15" y="860" type="curve" smooth="yes"/>
      <point x="240" y="500" type="line"/>
      <point x="15" y="140" type="line" smooth="yes"/>
      <point x="-5" y="109"/>
      <point x="-5" y="74"/>
      <point x="14" y="43" type="curve" smooth="yes"/>
      <point x="34" y="12"/>
      <point x="67" y="-6"/>
      <point x="105" y="-6" type="curve" smooth="yes"/>
      <point x="144" y="-6"/>
      <point x="177" y="12"/>
      <point x="196" y="43" type="curve" smooth="yes"/>
    </contour>
  </outline>
</glyph>
<glyph name="X" format="1">
  <advance width="824"/>
  <unicode hex="0058"/>
  <outline>
    <contour>
      <point x="345" y="299" type="line"/>
      <point x="494" y="46" type="line" smooth="yes"/>
      <point x="520" y="2"/>
      <point x="582" y="-13"/>
      <point x="632" y="12" type="curve" smooth="yes"/>
      <point x="683" y="37"/>
      <point x="703" y="92"/>
      <point x="678" y="136" type="curve" smooth="yes"/>
      <point x="463" y="500" type="line"/>
      <point x="678" y="864" type="line" smooth="yes"/>
      <point x="703" y="908"/>
      <point x="683" y="963"/>
      <point x="632" y="988" type="curve" smooth="yes"/>
      <point x="582" y="1013"/>
      <point x="520" y="998"/>
      <point x="494" y="954" type="curve" smooth="yes"/>
      <point x="345" y="701" type="line"/>
      <point x="195" y="954" type="line" smooth="yes"/>
      <point x="170" y="998"/>
      <point x="108" y="1013"/>
      <point x="57" y="988" type="curve" smooth="yes"/>
      <point x="6" y="963"/>
      <point x="-14" y="908"/>
      <point x="12" y="864" type="curve" smooth="yes"/>
      <point x="226" y="500" type="line"/>
      <point x="12" y="136" type="line" smooth="yes"/>
      <point x="-6" y="107"/>
      <point x="-4" y="74"/>
      <point x="17" y="45" type="curve" smooth="yes"/>
      <point x="38" y="16"/>
      <point x="71" y="0"/>
      <point x="109" y="0" type="curve" smooth="yes"/>
      <point x="147" y="0"/>
      <point x="178" y="17"/>
      <point x="195" y="46" type="curve" smooth="yes"/>
    </contour>
  </outline>
</glyph>
<glyph name="Y" format="1">
  <advance width="948"/>
  <unicode hex="0059"/>
  <outline>
    <contour>
      <point x="301" y="470" type="line"/>
      <point x="301" y="91" type="line" smooth="yes"/>
      <point x="301" y="38"/>
      <point x="348" y="-6"/>
      <point x="406" y="-6" type="curve" smooth="yes"/>
      <point x="464" y="-6"/>
      <point x="511" y="38"/>
      <point x="511" y="91" type="curve" smooth="yes"/>
      <point x="511" y="470" type="line"/>
      <point x="792" y="851" type="line" smooth="yes"/>
      <point x="826" y="894"/>
      <point x="816" y="955"/>
      <point x="770" y="987" type="curve" smooth="yes"/>
      <point x="723" y="1019"/>
      <point x="657" y="1009"/>
      <point x="623" y="966" type="curve" smooth="yes"/>
      <point x="406" y="672" type="line"/>
      <point x="190" y="966" type="line" smooth="yes"/>
      <point x="155" y="1009"/>
      <point x="89" y="1019"/>
      <point x="43" y="987" type="curve" smooth="yes"/>
      <point x="-4" y="955"/>
      <point x="-14" y="894"/>
      <point x="20" y="851" type="curve" smooth="yes"/>
    </contour>
  </outline>
</glyph>
<glyph name="Z" format="1">
  <advance width="813"/>
  <unicode hex="005A"/>
  <outline>
    <contour>
      <point x="412" y="806" type="line"/>
      <point x="16" y="163" type="line" smooth="yes"/>
      <point x="-5" y="129"/>
      <point x="-5" y="89"/>
      <point x="14" y="55" type="curve" smooth="yes"/>
      <point x="34" y="20"/>
      <point x="68" y="0"/>
      <point x="108" y="0" type="curve" smooth="yes"/>
      <point x="579" y="0" type="line" smooth="yes"/>
      <point x="633" y="0"/>
      <point x="677" y="43"/>
      <point x="677" y="97" type="curve" smooth="yes"/>
      <point x="677" y="151"/>
      <point x="633" y="194"/>
      <point x="579" y="194" type="curve" smooth="yes"/>
      <point x="265" y="194" type="line"/>
      <point x="662" y="837" type="line" smooth="yes"/>
      <point x="682" y="871"/>
      <point x="683" y="911"/>
      <point x="664" y="945" type="curve" smooth="yes"/>
      <point x="644" y="980"/>
      <point x="610" y="1000"/>
      <point x="570" y="1000" type="curve" smooth="yes"/>
      <point x="98" y="1000" type="line" smooth="yes"/>
      <point x="44" y="1000"/>
      <point x="0" y="957"/>
      <point x="0" y="903" type="curve" smooth="yes"/>
      <point x="0" y="849"/>
      <point x="44" y="806"/>
      <point x="98" y="806" type="curve" smooth="yes"/>
    </contour>
  </outline>
</glyph>
<glyph name="bracketleft" format="1">
  <advance width="496"/>
  <unicode hex="005B"/>
  <outline>
    <contour>
      <point x="263" y="-100" type="line" smooth="yes"/>
      <point x="317" y="-100"/>
      <point x="361" y="-57"/>
      <point x="361" y="-3" type="curve" smooth="yes"/>
      <point x="361" y="51"/>
      <point x="317" y="94"/>
      <point x="263" y="94" type="curve" smooth="yes"/>
      <point x="187" y="94" type="line"/>
      <point x="187" y="906" type="line"/>
      <point x="263" y="906" type="line" smooth="yes"/>
      <point x="317" y="906"/>
      <point x="361" y="949"/>
      <point x="361" y="1003" type="curve" smooth="yes"/>
      <point x="361" y="1057"/>
      <point x="317" y="1100"/>
      <point x="263" y="1100" type="curve" smooth="yes"/>
      <point x="121" y="1100" type="line" smooth="yes"/>
      <point x="54" y="1100"/>
      <point x="0" y="1053"/>
      <point x="0" y="996" type="curve" smooth="yes"/>
      <point x="0" y="4" type="line" smooth="yes"/>
      <point x="0" y="-53"/>
      <point x="54" y="-100"/>
      <point x="121" y="-100" type="curve" smooth="yes"/>
    </contour>
  </outline>
</glyph>
<glyph name="backslash" format="1">
  <advance width="668"/>
  <unicode hex="005C"/>
  <outline>
    <contour>
      <point x="4" y="976" type="curve" smooth="yes"/>
      <point x="334" y="-40" type="line" smooth="yes"/>
      <point x="350" y="-87"/>
      <point x="406" y="-112"/>
      <point x="460" y="-94" type="curve" smooth="yes"/>
      <point x="513" y="-77"/>
      <point x="545" y="-24"/>
      <point x="529" y="24" type="curve" smooth="yes"/>
      <point x="199" y="1040" type="line" smooth="yes"/>
      <point x="183" y="1087"/>
      <point x="127" y="1112"/>
      <point x="73" y="1094" type="curve" smooth="yes"/>
      <point x="20" y="1077"/>
      <point x="-12" y="1024"/>
    </contour>
  </outline>
</glyph>
<glyph name="bracketright" format="1">
  <advance width="496"/>
  <unicode hex="005D"/>
  <outline>
    <contour>
      <point x="98" y="-100" type="curve" smooth="yes"/>
      <point x="240" y="-100" type="line" smooth="yes"/>
      <point x="307" y="-100"/>
      <point x="361" y="-53"/>
      <point x="361" y="4" type="curve" smooth="yes"/>
      <point x="361" y="996" type="line" smooth="yes"/>
      <point x="361" y="1053"/>
      <point x="307" y="1100"/>
      <point x="240" y="1100" type="curve" smooth="yes"/>
      <point x="98" y="1100" type="line" smooth="yes"/>
      <point x="44" y="1100"/>
      <point x="0" y="1057"/>
      <point x="0" y="1003" type="curve" smooth="yes"/>
      <point x="0" y="949"/>
      <point x="44" y="906"/>
      <point x="98" y="906" type="curve" smooth="yes"/>
      <point x="174" y="906" type="line"/>
      <point x="174" y="94" type="line"/>
      <point x="98" y="94" type="line" smooth="yes"/>
      <point x="44" y="94"/>
      <point x="0" y="51"/>
      <point x="0" y="-3" type="curve" smooth="yes"/>
      <point x="0" y="-57"/>
      <point x="44" y="-100"/>
    </contour>
  </outline>
</glyph>
<glyph name="asciicircum" format="1">
  <advance width="686"/>
  <unicode hex="005E"/>
  <outline>
    <contour>
      <point x="19" y="762" type="line" smooth="yes"/>
      <point x="6" y="746"/>
      <point x="-1" y="726"/>
      <point x="0" y="704" type="curve" smooth="yes"/>
      <point x="2" y="651"/>
      <point x="47" y="607"/>
      <point x="101" y="605" type="curve" smooth="yes"/>
      <point x="131" y="603"/>
      <point x="158" y="616"/>
      <point x="175" y="638" type="curve" smooth="yes"/>
      <point x="275" y="765" type="line"/>
      <point x="375" y="638" type="line" smooth="yes"/>
      <point x="392" y="616"/>
      <point x="419" y="603"/>
      <point x="450" y="605" type="curve" smooth="yes"/>
      <point x="503" y="607"/>
      <point x="548" y="651"/>
      <point x="550" y="704" type="curve" smooth="yes"/>
      <point x="551" y="726"/>
      <point x="544" y="746"/>
      <point x="531" y="762" type="curve" smooth="yes"/>
      <point x="375" y="960" type="line" smooth="yes"/>
      <point x="353" y="988"/>
      <point x="317" y="1006"/>
      <point x="275" y="1006" type="curve" smooth="yes"/>
      <point x="234" y="1006"/>
      <point x="197" y="988"/>
      <point x="175" y="960" type="curve" smooth="yes"/>
    </contour>
  </outline>
</glyph>
<glyph name="underscore" format="1">
  <advance width="960"/>
  <unicode hex="005F"/>
  <outline>
    <contour>
      <point x="727" y="-217" type="line" smooth="yes"/>
      <point x="781" y="-217"/>
      <point x="825" y="-174"/>
      <point x="825" y="-120" type="curve" smooth="yes"/>
      <point x="825" y="-66"/>
      <point x="781" y="-23"/>
      <point x="727" y="-23" type="curve" smooth="yes"/>
      <point x="98" y="-23" type="line" smooth="yes"/>
      <point x="44" y="-23"/>
      <point x="0" y="-66"/>
      <point x="0" y="-120" type="curve" smooth="yes"/>
      <point x="0" y="-174"/>
      <point x="44" y="-217"/>
      <point x="98" y="-217" type="curve" smooth="yes"/>
    </contour>
  </outline>
</glyph>
<glyph name="grave" format="1">
  <advance width="452"/>
  <unicode hex="0060"/>
  <outline>
    <contour>
      <point x="173" y="978" type="line" smooth="yes"/>
      <point x="149" y="1006"/>
      <point x="112" y="1013"/>
      <point x="74" y="998" type="curve" smooth="yes"/>
      <point x="37" y="984"/>
      <point x="9" y="951"/>
      <point x="2" y="911" type="curve" smooth="yes"/>
      <point x="-6" y="871"/>
      <point x="9" y="836"/>
      <point x="41" y="818" type="curve" smooth="yes"/>
      <point x="213" y="719" type="line" smooth="yes"/>
      <point x="240" y="703"/>
      <point x="276" y="712"/>
      <point x="298" y="739" type="curve" smooth="yes"/>
      <point x="321" y="767"/>
      <point x="323" y="804"/>
      <point x="303" y="827" type="curve" smooth="yes"/>
    </contour>
  </outline>
</glyph>
<glyph name="b" format="1">
  <advance width="782"/>
  <unicode hex="0062"/>
  <outline>
    <contour>
      <point x="210" y="325" type="curve" smooth="yes"/>
      <point x="210" y="400"/>
      <point x="260" y="462"/>
      <point x="322" y="462" type="curve" smooth="yes"/>
      <point x="383" y="462"/>
      <point x="433" y="400"/>
      <point x="433" y="325" type="curve" smooth="yes"/>
      <point x="433" y="250"/>
      <point x="383" y="188"/>
      <point x="322" y="188" type="curve" smooth="yes"/>
      <point x="260" y="188"/>
      <point x="210" y="250"/>
    </contour>
    <contour>
      <point x="210" y="624" type="curve"/>
      <point x="210" y="915" type="line" smooth="yes"/>
      <point x="210" y="965"/>
      <point x="163" y="1006"/>
      <point x="105" y="1006" type="curve" smooth="yes"/>
      <point x="47" y="1006"/>
      <point x="0" y="965"/>
      <point x="0" y="915" type="curve" smooth="yes"/>
      <point x="0" y="85" type="line" smooth="yes"/>
      <point x="0" y="35"/>
      <point x="47" y="-6"/>
      <point x="105" y="-6" type="curve" smooth="yes"/>
      <point x="143" y="-6"/>
      <point x="175" y="11"/>
      <point x="194" y="37" type="curve"/>
      <point x="232" y="10"/>
      <point x="275" y="-6"/>
      <point x="322" y="-6" type="curve" smooth="yes"/>
      <point x="501" y="-6"/>
      <point x="647" y="142"/>
      <point x="647" y="325" type="curve" smooth="yes"/>
      <point x="647" y="508"/>
      <point x="501" y="656"/>
      <point x="322" y="656" type="curve" smooth="yes"/>
      <point x="282" y="656"/>
      <point x="244" y="644"/>
    </contour>
  </outline>
</glyph>
<glyph name="c" format="1">
  <advance width="731"/>
  <unicode hex="0063"/>
  <outline>
    <contour>
      <point x="325" y="656" type="curve" smooth="yes"/>
      <point x="146" y="656"/>
      <point x="0" y="508"/>
      <point x="0" y="325" type="curve" smooth="yes"/>
      <point x="0" y="142"/>
      <point x="146" y="-6"/>
      <point x="325" y="-6" type="curve" smooth="yes"/>
      <point x="420" y="-6"/>
      <point x="501" y="23"/>
      <point x="570" y="81" type="curve"/>
      <point x="606" y="117"/>
      <point x="605" y="178"/>
      <point x="566" y="217" type="curve" smooth="yes"/>
      <point x="528" y="256"/>
      <point x="467" y="259"/>
      <point x="430" y="223" type="curve"/>
      <point x="400" y="200"/>
      <point x="365" y="188"/>
      <point x="325" y="188" type="curve" smooth="yes"/>
      <point x="263" y="188"/>
      <point x="213" y="250"/>
      <point x="213" y="325" type="curve" smooth="yes"/>
      <point x="213" y="400"/>
      <point x="263" y="462"/>
      <point x="325" y="462" type="curve" smooth="yes"/>
      <point x="365" y="462"/>
      <point x="400" y="450"/>
      <point x="430" y="427" type="curve"/>
      <point x="467" y="391"/>
      <point x="528" y="394"/>
      <point x="566" y="433" type="curve" smooth="yes"/>
      <point x="605" y="472"/>
      <point x="606" y="533"/>
      <point x="570" y="569" type="curve"/>
      <point x="501" y="627"/>
      <point x="420" y="656"/>
    </contour>
  </outline>
</glyph>
<glyph name="e" format="1">
  <advance width="750"/>
  <unicode hex="0065"/>
  <outline>
    <contour>
      <point x="221" y="380" type="line"/>
      <point x="236" y="428"/>
      <point x="269" y="462"/>
      <point x="307" y="462" type="curve" smooth="yes"/>
      <point x="346" y="462"/>
      <point x="379" y="428"/>
      <point x="393" y="380" type="curve"/>
    </contour>
    <contour>
      <point x="307" y="-6" type="curve" smooth="yes"/>
      <point x="393" y="-6"/>
      <point x="467" y="11"/>
      <point x="539" y="49" type="curve"/>
      <point x="580" y="79"/>
      <point x="589" y="139"/>
      <point x="558" y="184" type="curve" smooth="yes"/>
      <point x="526" y="228"/>
      <point x="466" y="240"/>
      <point x="424" y="210" type="curve"/>
      <point x="387" y="196"/>
      <point x="350" y="188"/>
      <point x="307" y="188" type="curve" smooth="yes"/>
      <point x="269" y="188"/>
      <point x="236" y="222"/>
      <point x="221" y="270" type="curve"/>
      <point x="559" y="270" type="line" smooth="yes"/>
      <point x="590" y="270"/>
      <point x="614" y="294"/>
      <point x="614" y="325" type="curve" smooth="yes"/>
      <point x="614" y="508"/>
      <point x="477" y="656"/>
      <point x="307" y="656" type="curve" smooth="yes"/>
      <point x="138" y="656"/>
      <point x="0" y="508"/>
      <point x="0" y="325" type="curve" smooth="yes"/>
      <point x="0" y="142"/>
      <point x="138" y="-6"/>
    </contour>
  </outline>
</glyph>
<glyph name="f" format="1">
  <advance width="757"/>
  <unicode hex="0066"/>
  <outline>
    <contour>
      <point x="155" y="456" type="line"/>
      <point x="155" y="85" type="line" smooth="yes"/>
      <point x="155" y="35"/>
      <point x="202" y="-6"/>
      <point x="260" y="-6" type="curve" smooth="yes"/>
      <point x="318" y="-6"/>
      <point x="365" y="35"/>
      <point x="365" y="85" type="curve" smooth="yes"/>
      <point x="365" y="456" type="line"/>
      <point x="455" y="456" type="line" smooth="yes"/>
      <point x="509" y="456"/>
      <point x="553" y="499"/>
      <point x="553" y="553" type="curve" smooth="yes"/>
      <point x="553" y="607"/>
      <point x="509" y="650"/>
      <point x="455" y="650" type="curve" smooth="yes"/>
      <point x="365" y="650" type="line"/>
      <point x="365" y="734" type="line" smooth="yes"/>
      <point x="365" y="759"/>
      <point x="379" y="781"/>
      <point x="406" y="797" type="curve" smooth="yes"/>
      <point x="432" y="812"/>
      <point x="462" y="816"/>
      <point x="493" y="808" type="curve"/>
      <point x="543" y="791"/>
      <point x="598" y="818"/>
      <point x="615" y="869" type="curve" smooth="yes"/>
      <point x="633" y="919"/>
      <point x="608" y="975"/>
      <point x="558" y="992" type="curve" smooth="yes"/>
      <point x="461" y="1020"/>
      <point x="365" y="1007"/>
      <point x="282" y="954" type="curve" smooth="yes"/>
      <point x="200" y="901"/>
      <point x="155" y="824"/>
      <point x="155" y="734" type="curve" smooth="yes"/>
      <point x="155" y="650" type="line"/>
      <point x="98" y="650" type="line" smooth="yes"/>
      <point x="44" y="650"/>
      <point x="0" y="607"/>
      <point x="0" y="553" type="curve" smooth="yes"/>
      <point x="0" y="499"/>
      <point x="44" y="456"/>
      <point x="98" y="456" type="curve" smooth="yes"/>
    </contour>
  </outline>
</glyph>
<glyph name="g" format="1">
  <advance width="782"/>
  <unicode hex="0067"/>
  <outline>
    <contour>
      <point x="437" y="26" type="curve"/>
      <point x="437" y="0" type="line"/>
      <point x="437" y="-21" type="line" smooth="yes"/>
      <point x="437" y="-71"/>
      <point x="386" y="-112"/>
      <point x="323" y="-112" type="curve" smooth="yes"/>
      <point x="283" y="-112"/>
      <point x="249" y="-103"/>
      <point x="220" y="-86" type="curve"/>
      <point x="184" y="-49"/>
      <point x="124" y="-48"/>
      <point x="83" y="-86" type="curve" smooth="yes"/>
      <point x="43" y="-123"/>
      <point x="38" y="-184"/>
      <point x="72" y="-222" type="curve"/>
      <point x="141" y="-278"/>
      <point x="225" y="-306"/>
      <point x="323" y="-306" type="curve" smooth="yes"/>
      <point x="502" y="-306"/>
      <point x="647" y="-178"/>
      <point x="647" y="-21" type="curve" smooth="yes"/>
      <point x="647" y="0" type="line"/>
      <point x="647" y="565" type="line" smooth="yes"/>
      <point x="647" y="615"/>
      <point x="600" y="656"/>
      <point x="542" y="656" type="curve" smooth="yes"/>
      <point x="504" y="656"/>
      <point x="471" y="639"/>
      <point x="453" y="613" type="curve"/>
      <point x="415" y="640"/>
      <point x="371" y="656"/>
      <point x="325" y="656" type="curve" smooth="yes"/>
      <point x="146" y="656"/>
      <point x="0" y="508"/>
      <point x="0" y="325" type="curve" smooth="yes"/>
      <point x="0" y="142"/>
      <point x="146" y="-6"/>
      <point x="325" y="-6" type="curve" smooth="yes"/>
      <point x="365" y="-6"/>
      <point x="403" y="6"/>
    </contour>
    <contour>
      <point x="213" y="325" type="curve" smooth="yes"/>
      <point x="213" y="400"/>
      <point x="263" y="462"/>
      <point x="325" y="462" type="curve" smooth="yes"/>
      <point x="387" y="462"/>
      <point x="437" y="400"/>
      <point x="437" y="325" type="curve" smooth="yes"/>
      <point x="437" y="250"/>
      <point x="387" y="188"/>
      <point x="325" y="188" type="curve" smooth="yes"/>
      <point x="263" y="188"/>
      <point x="213" y="250"/>
    </contour>
  </outline>
</glyph>
<glyph name="i" format="1">
  <advance width="345"/>
  <unicode hex="0069"/>
  <outline>
    <contour>
      <point x="210" y="565" type="line" smooth="yes"/>
      <point x="210" y="615"/>
      <point x="163" y="656"/>
      <point x="105" y="656" type="curve" smooth="yes"/>
      <point x="47" y="656"/>
      <point x="0" y="615"/>
      <point x="0" y="565" type="curve" smooth="yes"/>
      <point x="0" y="85" type="line" smooth="yes"/>
      <point x="0" y="35"/>
      <point x="47" y="-6"/>
      <point x="105" y="-6" type="curve" smooth="yes"/>
      <point x="163" y="-6"/>
      <point x="210" y="35"/>
      <point x="210" y="85" type="curve" smooth="yes"/>
    </contour>
    <contour>
      <point x="210" y="860" type="line" smooth="yes"/>
      <point x="210" y="910"/>
      <point x="163" y="950"/>
      <point x="105" y="950" type="curve" smooth="yes"/>
      <point x="47" y="950"/>
      <point x="0" y="910"/>
      <point x="0" y="860" type="curve" smooth="yes"/>
      <point x="0" y="846" type="line" smooth="yes"/>
      <point x="0" y="796"/>
      <point x="47" y="756"/>
      <point x="105" y="756" type="curve" smooth="yes"/>
      <point x="163" y="756"/>
      <point x="210" y="796"/>
      <point x="210" y="846" type="curve" smooth="yes"/>
    </contour>
  </outline>
</glyph>
<glyph name="j" format="1">
  <advance width="601"/>
  <unicode hex="006A"/>
  <outline>
    <contour>
      <point x="466" y="565" type="line" smooth="yes"/>
      <point x="466" y="615"/>
      <point x="419" y="656"/>
      <point x="361" y="656" type="curve" smooth="yes"/>
      <point x="303" y="656"/>
      <point x="256" y="615"/>
      <point x="256" y="565" type="curve" smooth="yes"/>
      <point x="256" y="-68" type="line" smooth="yes"/>
      <point x="256" y="-86"/>
      <point x="244" y="-101"/>
      <point x="225" y="-108" type="curve" smooth="yes"/>
      <point x="206" y="-115"/>
      <point x="185" y="-112"/>
      <point x="170" y="-99" type="curve"/>
      <point x="135" y="-63"/>
      <point x="74" y="-62"/>
      <point x="34" y="-100" type="curve" smooth="yes"/>
      <point x="-7" y="-137"/>
      <point x="-11" y="-198"/>
      <point x="23" y="-236" type="curve"/>
      <point x="98" y="-306"/>
      <point x="206" y="-325"/>
      <point x="306" y="-288" type="curve" smooth="yes"/>
      <point x="405" y="-250"/>
      <point x="466" y="-167"/>
      <point x="466" y="-68" type="curve" smooth="yes"/>
    </contour>
    <contour>
      <point x="466" y="860" type="line" smooth="yes"/>
      <point x="466" y="910"/>
      <point x="419" y="950"/>
      <point x="361" y="950" type="curve" smooth="yes"/>
      <point x="303" y="950"/>
      <point x="256" y="910"/>
      <point x="256" y="860" type="curve" smooth="yes"/>
      <point x="256" y="846" type="line" smooth="yes"/>
      <point x="256" y="796"/>
      <point x="303" y="756"/>
      <point x="361" y="756" type="curve" smooth="yes"/>
      <point x="419" y="756"/>
      <point x="466" y="796"/>
      <point x="466" y="846" type="curve" smooth="yes"/>
    </contour>
  </outline>
</glyph>
<glyph name="k" format="1">
  <advance width="721"/>
  <unicode hex="006B"/>
  <outline>
    <contour>
      <point x="0" y="85" type="line" smooth="yes"/>
      <point x="0" y="35"/>
      <point x="47" y="-6"/>
      <point x="105" y="-6" type="curve" smooth="yes"/>
      <point x="163" y="-6"/>
      <point x="210" y="35"/>
      <point x="210" y="85" type="curve" smooth="yes"/>
      <point x="210" y="200" type="line"/>
      <point x="244" y="228" type="line"/>
      <point x="411" y="26" type="line" smooth="yes"/>
      <point x="444" y="-13"/>
      <point x="504" y="-17"/>
      <point x="547" y="18" type="curve" smooth="yes"/>
      <point x="590" y="54"/>
      <point x="598" y="114"/>
      <point x="565" y="153" type="curve" smooth="yes"/>
      <point x="398" y="355" type="line"/>
      <point x="553" y="483" type="line" smooth="yes"/>
      <point x="579" y="505"/>
      <point x="590" y="537"/>
      <point x="583" y="573" type="curve" smooth="yes"/>
      <point x="576" y="608"/>
      <point x="553" y="635"/>
      <point x="520" y="649" type="curve" smooth="yes"/>
      <point x="487" y="662"/>
      <point x="453" y="657"/>
      <point x="426" y="635" type="curve" smooth="yes"/>
      <point x="210" y="456" type="line"/>
      <point x="210" y="915" type="line" smooth="yes"/>
      <point x="210" y="965"/>
      <point x="163" y="1006"/>
      <point x="105" y="1006" type="curve" smooth="yes"/>
      <point x="47" y="1006"/>
      <point x="0" y="965"/>
      <point x="0" y="915" type="curve" smooth="yes"/>
    </contour>
  </outline>
</glyph>
<glyph name="m" format="1">
  <advance width="1069"/>
  <unicode hex="006D"/>
  <outline>
    <contour>
      <point x="0" y="85" type="line" smooth="yes"/>
      <point x="0" y="35"/>
      <point x="47" y="-6"/>
      <point x="105" y="-6" type="curve" smooth="yes"/>
      <point x="163" y="-6"/>
      <point x="210" y="35"/>
      <point x="210" y="85" type="curve" smooth="yes"/>
      <point x="210" y="455" type="line"/>
      <point x="210" y="455"/>
      <point x="249" y="514"/>
      <point x="297" y="514" type="curve" smooth="yes"/>
      <point x="333" y="514"/>
      <point x="362" y="487"/>
      <point x="362" y="455" type="curve" smooth="yes"/>
      <point x="362" y="85" type="line" smooth="yes"/>
      <point x="362" y="35"/>
      <point x="409" y="-6"/>
      <point x="467" y="-6" type="curve" smooth="yes"/>
      <point x="525" y="-6"/>
      <point x="572" y="35"/>
      <point x="572" y="85" type="curve" smooth="yes"/>
      <point x="572" y="455" type="line"/>
      <point x="572" y="455"/>
      <point x="611" y="514"/>
      <point x="659" y="514" type="curve" smooth="yes"/>
      <point x="695" y="514"/>
      <point x="724" y="487"/>
      <point x="724" y="455" type="curve" smooth="yes"/>
      <point x="724" y="85" type="line" smooth="yes"/>
      <point x="724" y="35"/>
      <point x="771" y="-6"/>
      <point x="829" y="-6" type="curve" smooth="yes"/>
      <point x="887" y="-6"/>
      <point x="934" y="35"/>
      <point x="934" y="85" type="curve" smooth="yes"/>
      <point x="934" y="455" type="line" smooth="yes"/>
      <point x="934" y="563"/>
      <point x="837" y="650"/>
      <point x="717" y="650" type="curve" smooth="yes"/>
      <point x="645" y="650"/>
      <point x="581" y="608"/>
      <point x="537" y="561" type="curve"/>
      <point x="499" y="615"/>
      <point x="432" y="650"/>
      <point x="355" y="650" type="curve" smooth="yes"/>
      <point x="299" y="650"/>
      <point x="247" y="624"/>
      <point x="206" y="590" type="curve"/>
      <point x="193" y="628"/>
      <point x="153" y="656"/>
      <point x="105" y="656" type="curve" smooth="yes"/>
      <point x="47" y="656"/>
      <point x="0" y="615"/>
      <point x="0" y="565" type="curve" smooth="yes"/>
    </contour>
  </outline>
</glyph>
<glyph name="n" format="1">
  <advance width="707"/>
  <unicode hex="006E"/>
  <outline>
    <contour>
      <point x="0" y="85" type="line" smooth="yes"/>
      <point x="0" y="35"/>
      <point x="47" y="-6"/>
      <point x="105" y="-6" type="curve" smooth="yes"/>
      <point x="163" y="-6"/>
      <point x="210" y="35"/>
      <point x="210" y="85" type="curve" smooth="yes"/>
      <point x="210" y="455" type="line"/>
      <point x="210" y="455"/>
      <point x="249" y="514"/>
      <point x="297" y="514" type="curve" smooth="yes"/>
      <point x="333" y="514"/>
      <point x="362" y="487"/>
      <point x="362" y="455" type="curve" smooth="yes"/>
      <point x="362" y="85" type="line" smooth="yes"/>
      <point x="362" y="35"/>
      <point x="409" y="-6"/>
      <point x="467" y="-6" type="curve" smooth="yes"/>
      <point x="525" y="-6"/>
      <point x="572" y="35"/>
      <point x="572" y="85" type="curve" smooth="yes"/>
      <point x="572" y="455" type="line" smooth="yes"/>
      <point x="572" y="563"/>
      <point x="475" y="650"/>
      <point x="355" y="650" type="curve" smooth="yes"/>
      <point x="299" y="650"/>
      <point x="247" y="624"/>
      <point x="206" y="590" type="curve"/>
      <point x="193" y="628"/>
      <point x="153" y="656"/>
      <point x="105" y="656" type="curve" smooth="yes"/>
      <point x="47" y="656"/>
      <point x="0" y="615"/>
      <point x="0" y="565" type="curve" smooth="yes"/>
    </contour>
  </outline>
</glyph>
<glyph name="p" format="1">
  <advance width="782"/>
  <unicode hex="0070"/>
  <outline>
    <contour>
      <point x="210" y="325" type="curve" smooth="yes"/>
      <point x="210" y="400"/>
      <point x="260" y="462"/>
      <point x="322" y="462" type="curve" smooth="yes"/>
      <point x="383" y="462"/>
      <point x="433" y="400"/>
      <point x="433" y="325" type="curve" smooth="yes"/>
      <point x="433" y="250"/>
      <point x="383" y="188"/>
      <point x="322" y="188" type="curve" smooth="yes"/>
      <point x="260" y="188"/>
      <point x="210" y="250"/>
    </contour>
    <contour>
      <point x="210" y="26" type="line"/>
      <point x="244" y="6"/>
      <point x="282" y="-6"/>
      <point x="322" y="-6" type="curve" smooth="yes"/>
      <point x="501" y="-6"/>
      <point x="647" y="142"/>
      <point x="647" y="325" type="curve" smooth="yes"/>
      <point x="647" y="508"/>
      <point x="501" y="656"/>
      <point x="322" y="656" type="curve" smooth="yes"/>
      <point x="275" y="656"/>
      <point x="232" y="640"/>
      <point x="194" y="613" type="curve"/>
      <point x="175" y="639"/>
      <point x="143" y="656"/>
      <point x="105" y="656" type="curve" smooth="yes"/>
      <point x="47" y="656"/>
      <point x="0" y="615"/>
      <point x="0" y="565" type="curve" smooth="yes"/>
      <point x="0" y="-215" type="line" smooth="yes"/>
      <point x="0" y="-265"/>
      <point x="47" y="-306"/>
      <point x="105" y="-306" type="curve" smooth="yes"/>
      <point x="163" y="-306"/>
      <point x="210" y="-265"/>
      <point x="210" y="-215" type="curve" smooth="yes"/>
    </contour>
  </outline>
</glyph>
<glyph name="q" format="1">
  <advance width="782"/>
  <unicode hex="0071"/>
  <outline>
    <contour>
      <point x="437" y="325" type="curve" smooth="yes"/>
      <point x="437" y="250"/>
      <point x="387" y="188"/>
      <point x="325" y="188" type="curve" smooth="yes"/>
      <point x="263" y="188"/>
      <point x="213" y="250"/>
      <point x="213" y="325" type="curve" smooth="yes"/>
      <point x="213" y="400"/>
      <point x="263" y="462"/>
      <point x="325" y="462" type="curve" smooth="yes"/>
      <point x="387" y="462"/>
      <point x="437" y="400"/>
    </contour>
    <contour>
      <point x="437" y="26" type="curve"/>
      <point x="437" y="-215" type="line" smooth="yes"/>
      <point x="437" y="-265"/>
      <point x="484" y="-306"/>
      <point x="542" y="-306" type="curve" smooth="yes"/>
      <point x="600" y="-306"/>
      <point x="647" y="-265"/>
      <point x="647" y="-215" type="curve" smooth="yes"/>
      <point x="647" y="565" type="line" smooth="yes"/>
      <point x="647" y="615"/>
      <point x="600" y="656"/>
      <point x="542" y="656" type="curve" smooth="yes"/>
      <point x="504" y="656"/>
      <point x="471" y="639"/>
      <point x="453" y="613" type="curve"/>
      <point x="415" y="640"/>
      <point x="371" y="656"/>
      <point x="325" y="656" type="curve" smooth="yes"/>
      <point x="146" y="656"/>
      <point x="0" y="508"/>
      <point x="0" y="325" type="curve" smooth="yes"/>
      <point x="0" y="142"/>
      <point x="146" y="-6"/>
      <point x="325" y="-6" type="curve" smooth="yes"/>
      <point x="365" y="-6"/>
      <point x="403" y="6"/>
    </contour>
  </outline>
</glyph>
<glyph name="r" format="1">
  <advance width="653"/>
  <unicode hex="0072"/>
  <outline>
    <contour>
      <point x="0" y="85" type="line" smooth="yes"/>
      <point x="0" y="35"/>
      <point x="47" y="-6"/>
      <point x="105" y="-6" type="curve" smooth="yes"/>
      <point x="163" y="-6"/>
      <point x="210" y="35"/>
      <point x="210" y="85" type="curve" smooth="yes"/>
      <point x="210" y="345" type="line" smooth="yes"/>
      <point x="210" y="406"/>
      <point x="304" y="456"/>
      <point x="420" y="456" type="curve" smooth="yes"/>
      <point x="474" y="456"/>
      <point x="518" y="499"/>
      <point x="518" y="553" type="curve" smooth="yes"/>
      <point x="518" y="607"/>
      <point x="474" y="650"/>
      <point x="420" y="650" type="curve" smooth="yes"/>
      <point x="304" y="650"/>
      <point x="210" y="601"/>
      <point x="210" y="540" type="curve"/>
      <point x="210" y="565" type="line" smooth="yes"/>
      <point x="210" y="615"/>
      <point x="163" y="656"/>
      <point x="105" y="656" type="curve" smooth="yes"/>
      <point x="47" y="656"/>
      <point x="0" y="615"/>
      <point x="0" y="565" type="curve" smooth="yes"/>
    </contour>
  </outline>
</glyph>
<glyph name="s" format="1">
  <advance width="637"/>
  <unicode hex="0073"/>
  <outline>
    <contour>
      <point x="501" y="208" type="curve" smooth="yes"/>
      <point x="501" y="326"/>
      <point x="380" y="381"/>
      <point x="268" y="418" type="curve" smooth="yes"/>
      <point x="258" y="421"/>
      <point x="212" y="431"/>
      <point x="211" y="442" type="curve"/>
      <point x="211" y="453"/>
      <point x="222" y="462"/>
      <point x="235" y="462" type="curve" smooth="yes"/>
      <point x="281" y="462"/>
      <point x="315" y="433"/>
      <point x="352" y="412" type="curve" smooth="yes"/>
      <point x="398" y="387"/>
      <point x="456" y="405"/>
      <point x="482" y="453" type="curve" smooth="yes"/>
      <point x="508" y="500"/>
      <point x="493" y="559"/>
      <point x="447" y="584" type="curve" smooth="yes"/>
      <point x="379" y="622"/>
      <point x="316" y="656"/>
      <point x="235" y="656" type="curve" smooth="yes"/>
      <point x="105" y="656"/>
      <point x="0" y="560"/>
      <point x="0" y="442" type="curve" smooth="yes"/>
      <point x="0" y="324"/>
      <point x="95" y="269"/>
      <point x="208" y="232" type="curve" smooth="yes"/>
      <point x="218" y="229"/>
      <point x="289" y="219"/>
      <point x="289" y="208" type="curve" smooth="yes"/>
      <point x="289" y="197"/>
      <point x="261" y="188"/>
      <point x="225" y="188" type="curve" smooth="yes"/>
      <point x="189" y="188"/>
      <point x="168" y="225"/>
      <point x="140" y="239" type="curve" smooth="yes"/>
      <point x="94" y="263"/>
      <point x="36" y="243"/>
      <point x="12" y="195" type="curve" smooth="yes"/>
      <point x="-13" y="146"/>
      <point x="5" y="88"/>
      <point x="52" y="64" type="curve" smooth="yes"/>
      <point x="108" y="36"/>
      <point x="157" y="-6"/>
      <point x="225" y="-6" type="curve" smooth="yes"/>
      <point x="378" y="-6"/>
      <point x="501" y="90"/>
    </contour>
  </outline>
</glyph>
<glyph name="t" format="1">
  <advance width="689"/>
  <unicode hex="0074"/>
  <outline>
    <contour>
      <point x="155" y="650" type="line"/>
      <point x="98" y="650" type="line" smooth="yes"/>
      <point x="44" y="650"/>
      <point x="0" y="607"/>
      <point x="0" y="553" type="curve" smooth="yes"/>
      <point x="0" y="499"/>
      <point x="44" y="456"/>
      <point x="98" y="456" type="curve" smooth="yes"/>
      <point x="155" y="456" type="line"/>
      <point x="155" y="218" type="line" smooth="yes"/>
      <point x="155" y="144"/>
      <point x="190" y="81"/>
      <point x="255" y="37" type="curve" smooth="yes"/>
      <point x="320" y="-7"/>
      <point x="396" y="-18"/>
      <point x="473" y="5" type="curve"/>
      <point x="522" y="23"/>
      <point x="548" y="78"/>
      <point x="530" y="129" type="curve" smooth="yes"/>
      <point x="513" y="180"/>
      <point x="458" y="207"/>
      <point x="408" y="190" type="curve" smooth="yes"/>
      <point x="398" y="187"/>
      <point x="388" y="188"/>
      <point x="379" y="194" type="curve" smooth="yes"/>
      <point x="370" y="200"/>
      <point x="365" y="209"/>
      <point x="365" y="218" type="curve" smooth="yes"/>
      <point x="365" y="456" type="line"/>
      <point x="455" y="456" type="line" smooth="yes"/>
      <point x="509" y="456"/>
      <point x="553" y="499"/>
      <point x="553" y="553" type="curve" smooth="yes"/>
      <point x="553" y="607"/>
      <point x="509" y="650"/>
      <point x="455" y="650" type="curve" smooth="yes"/>
      <point x="365" y="650" type="line"/>
      <point x="365" y="760" type="line" smooth="yes"/>
      <point x="365" y="810"/>
      <point x="318" y="851"/>
      <point x="260" y="851" type="curve" smooth="yes"/>
      <point x="202" y="851"/>
      <point x="155" y="810"/>
      <point x="155" y="760" type="curve" smooth="yes"/>
    </contour>
  </outline>
</glyph>
<glyph name="v" format="1">
  <advance width="750"/>
  <unicode hex="0076"/>
  <outline>
    <contour>
      <point x="194" y="60" type="line" smooth="yes"/>
      <point x="211" y="20"/>
      <point x="252" y="-5"/>
      <point x="301" y="-6" type="curve" smooth="yes"/>
      <point x="351" y="-6"/>
      <point x="393" y="18"/>
      <point x="410" y="58" type="curve" smooth="yes"/>
      <point x="608" y="531" type="line" smooth="yes"/>
      <point x="628" y="577"/>
      <point x="600" y="630"/>
      <point x="546" y="649" type="curve" smooth="yes"/>
      <point x="492" y="668"/>
      <point x="433" y="646"/>
      <point x="413" y="599" type="curve" smooth="yes"/>
      <point x="304" y="313" type="line"/>
      <point x="202" y="598" type="line" smooth="yes"/>
      <point x="183" y="645"/>
      <point x="124" y="668"/>
      <point x="70" y="650" type="curve" smooth="yes"/>
      <point x="16" y="632"/>
      <point x="-13" y="579"/>
      <point x="6" y="532" type="curve" smooth="yes"/>
    </contour>
  </outline>
</glyph>
<glyph name="x" format="1">
  <advance width="750"/>
  <unicode hex="0078"/>
  <outline>
    <contour>
      <point x="307" y="171" type="line"/>
      <point x="424" y="32" type="line" smooth="yes"/>
      <point x="458" y="-9"/>
      <point x="524" y="-18"/>
      <point x="571" y="11" type="curve" smooth="yes"/>
      <point x="618" y="41"/>
      <point x="628" y="97"/>
      <point x="594" y="138" type="curve" smooth="yes"/>
      <point x="437" y="325" type="line"/>
      <point x="594" y="512" type="line" smooth="yes"/>
      <point x="628" y="553"/>
      <point x="618" y="609"/>
      <point x="571" y="639" type="curve" smooth="yes"/>
      <point x="524" y="668"/>
      <point x="458" y="659"/>
      <point x="424" y="618" type="curve" smooth="yes"/>
      <point x="307" y="479" type="line"/>
      <point x="190" y="618" type="line" smooth="yes"/>
      <point x="156" y="659"/>
      <point x="90" y="668"/>
      <point x="43" y="639" type="curve" smooth="yes"/>
      <point x="-4" y="609"/>
      <point x="-14" y="553"/>
      <point x="20" y="512" type="curve" smooth="yes"/>
      <point x="177" y="325" type="line"/>
      <point x="20" y="138" type="line" smooth="yes"/>
      <point x="-14" y="97"/>
      <point x="-4" y="41"/>
      <point x="43" y="11" type="curve" smooth="yes"/>
      <point x="90" y="-18"/>
      <point x="156" y="-9"/>
      <point x="190" y="32" type="curve" smooth="yes"/>
    </contour>
  </outline>
</glyph>
<glyph name="y" format="1">
  <advance width="744"/>
  <unicode hex="0079"/>
  <outline>
    <contour>
      <point x="64" y="-176" type="line" smooth="yes"/>
      <point x="44" y="-222"/>
      <point x="70" y="-276"/>
      <point x="123" y="-298" type="curve" smooth="yes"/>
      <point x="176" y="-319"/>
      <point x="235" y="-298"/>
      <point x="255" y="-253" type="curve" smooth="yes"/>
      <point x="602" y="526" type="line" smooth="yes"/>
      <point x="622" y="572"/>
      <point x="596" y="626"/>
      <point x="544" y="648" type="curve" smooth="yes"/>
      <point x="491" y="669"/>
      <point x="432" y="648"/>
      <point x="411" y="603" type="curve" smooth="yes"/>
      <point x="305" y="363" type="line"/>
      <point x="198" y="603" type="line" smooth="yes"/>
      <point x="177" y="648"/>
      <point x="118" y="669"/>
      <point x="65" y="648" type="curve" smooth="yes"/>
      <point x="13" y="626"/>
      <point x="-14" y="572"/>
      <point x="7" y="526" type="curve" smooth="yes"/>
      <point x="192" y="110" type="line"/>
    </contour>
  </outline>
</glyph>
<glyph name="z" format="1">
  <advance width="750"/>
  <unicode hex="007A"/>
  <outline>
    <contour>
      <point x="517" y="0" type="line" smooth="yes"/>
      <point x="571" y="0"/>
      <point x="615" y="43"/>
      <point x="615" y="97" type="curve" smooth="yes"/>
      <point x="615" y="151"/>
      <point x="571" y="194"/>
      <point x="517" y="194" type="curve" smooth="yes"/>
      <point x="320" y="194" type="line"/>
      <point x="585" y="469" type="line" smooth="yes"/>
      <point x="615" y="501"/>
      <point x="623" y="545"/>
      <point x="606" y="585" type="curve" smooth="yes"/>
      <point x="589" y="625"/>
      <point x="551" y="650"/>
      <point x="507" y="650" type="curve" smooth="yes"/>
      <point x="98" y="650" type="line" smooth="yes"/>
      <point x="44" y="650"/>
      <point x="0" y="607"/>
      <point x="0" y="553" type="curve" smooth="yes"/>
      <point x="0" y="499"/>
      <point x="44" y="456"/>
      <point x="98" y="456" type="curve" smooth="yes"/>
      <point x="295" y="456" type="line"/>
      <point x="30" y="181" type="line" smooth="yes"/>
      <point x="0" y="149"/>
      <point x="-8" y="105"/>
      <point x="9" y="65" type="curve" smooth="yes"/>
      <point x="26" y="25"/>
      <point x="64" y="0"/>
      <point x="108" y="0" type="curve" smooth="yes"/>
    </contour>
  </outline>
</glyph>
<glyph name="braceleft" format="1">
  <advance width="587"/>
  <unicode hex="007B"/>
  <outline>
    <contour>
      <point x="214" y="500" type="curve"/>
      <point x="256" y="523"/>
      <point x="287" y="562"/>
      <point x="287" y="618" type="curve" smooth="yes"/>
      <point x="287" y="839" type="line" smooth="yes"/>
      <point x="287" y="876"/>
      <point x="317" y="906"/>
      <point x="353" y="906" type="curve" smooth="yes"/>
      <point x="407" y="906"/>
      <point x="451" y="949"/>
      <point x="451" y="1003" type="curve" smooth="yes"/>
      <point x="451" y="1057"/>
      <point x="407" y="1100"/>
      <point x="353" y="1100" type="curve" smooth="yes"/>
      <point x="209" y="1100"/>
      <point x="119" y="969"/>
      <point x="119" y="839" type="curve" smooth="yes"/>
      <point x="119" y="618" type="line" smooth="yes"/>
      <point x="119" y="607"/>
      <point x="110" y="597"/>
      <point x="98" y="597" type="curve" smooth="yes"/>
      <point x="44" y="597"/>
      <point x="0" y="554"/>
      <point x="0" y="500" type="curve" smooth="yes"/>
      <point x="0" y="446"/>
      <point x="44" y="403"/>
      <point x="98" y="403" type="curve" smooth="yes"/>
      <point x="110" y="403"/>
      <point x="119" y="393"/>
      <point x="119" y="382" type="curve" smooth="yes"/>
      <point x="119" y="161" type="line" smooth="yes"/>
      <point x="119" y="31"/>
      <point x="209" y="-100"/>
      <point x="353" y="-100" type="curve" smooth="yes"/>
      <point x="407" y="-100"/>
      <point x="451" y="-57"/>
      <point x="451" y="-3" type="curve" smooth="yes"/>
      <point x="451" y="51"/>
      <point x="407" y="94"/>
      <point x="353" y="94" type="curve" smooth="yes"/>
      <point x="317" y="94"/>
      <point x="287" y="124"/>
      <point x="287" y="161" type="curve" smooth="yes"/>
      <point x="287" y="382" type="line" smooth="yes"/>
      <point x="287" y="438"/>
      <point x="256" y="477"/>
    </contour>
  </outline>
</glyph>
<glyph name="braceright" format="1">
  <advance width="587"/>
  <unicode hex="007D"/>
  <outline>
    <contour>
      <point x="237" y="500" type="curve"/>
      <point x="196" y="477"/>
      <point x="164" y="438"/>
      <point x="164" y="382" type="curve" smooth="yes"/>
      <point x="164" y="161" type="line" smooth="yes"/>
      <point x="164" y="124"/>
      <point x="135" y="94"/>
      <point x="98" y="94" type="curve" smooth="yes"/>
      <point x="44" y="94"/>
      <point x="0" y="51"/>
      <point x="0" y="-3" type="curve" smooth="yes"/>
      <point x="0" y="-57"/>
      <point x="44" y="-100"/>
      <point x="98" y="-100" type="curve" smooth="yes"/>
      <point x="242" y="-100"/>
      <point x="332" y="31"/>
      <point x="332" y="161" type="curve" smooth="yes"/>
      <point x="332" y="382" type="line" smooth="yes"/>
      <point x="332" y="393"/>
      <point x="342" y="403"/>
      <point x="353" y="403" type="curve" smooth="yes"/>
      <point x="407" y="403"/>
      <point x="451" y="446"/>
      <point x="451" y="500" type="curve" smooth="yes"/>
      <point x="451" y="554"/>
      <point x="407" y="597"/>
      <point x="353" y="597" type="curve" smooth="yes"/>
      <point x="342" y="597"/>
      <point x="332" y="607"/>
      <point x="332" y="618" type="curve" smooth="yes"/>
      <point x="332" y="839" type="line" smooth="yes"/>
      <point x="332" y="969"/>
      <point x="242" y="1100"/>
      <point x="98" y="1100" type="curve" smooth="yes"/>
      <point x="44" y="1100"/>
      <point x="0" y="1057"/>
      <point x="0" y="1003" type="curve" smooth="yes"/>
      <point x="0" y="949"/>
      <point x="44" y="906"/>
      <point x="98" y="906" type="curve" smooth="yes"/>
      <point x="135" y="906"/>
      <point x="164" y="876"/>
      <point x="164" y="839" type="curve" smooth="yes"/>
      <point x="164" y="618" type="line" smooth="yes"/>
      <point x="164" y="562"/>
      <point x="196" y="523"/>
    </contour>
  </outline>
</glyph>
<glyph name="asciitilde" format="1">
  <advance width="686"/>
  <unicode hex="007E"/>
  <outline>
    <contour>
      <point x="161" y="443" type="curve" smooth="yes"/>
      <point x="179" y="476"/>
      <point x="220" y="432"/>
      <point x="230" y="427" type="curve" smooth="yes"/>
      <point x="330" y="372"/>
      <point x="477" y="376"/>
      <point x="541" y="493" type="curve" smooth="yes"/>
      <point x="555" y="518"/>
      <point x="553" y="548"/>
      <point x="536" y="574" type="curve" smooth="yes"/>
      <point x="519" y="600"/>
      <point x="491" y="615"/>
      <point x="460" y="616" type="curve" smooth="yes"/>
      <point x="428" y="616"/>
      <point x="403" y="602"/>
      <point x="389" y="577" type="curve" smooth="yes"/>
      <point x="371" y="544"/>
      <point x="330" y="588"/>
      <point x="321" y="593" type="curve" smooth="yes"/>
      <point x="220" y="648"/>
      <point x="73" y="644"/>
      <point x="9" y="527" type="curve" smooth="yes"/>
      <point x="-12" y="489"/>
      <point x="5" y="439"/>
      <point x="47" y="416" type="curve" smooth="yes"/>
      <point x="89" y="393"/>
      <point x="140" y="405"/>
    </contour>
  </outline>
</glyph>
<glyph name="exclamdown" format="1">
  <advance width="360"/>
  <unicode hex="00A1"/>
  <outline>
    <contour>
      <point x="225" y="882" type="curve" smooth="yes"/>
      <point x="225" y="909" type="line" smooth="yes"/>
      <point x="225" y="962"/>
      <point x="174" y="1006"/>
      <point x="112" y="1006" type="curve" smooth="yes"/>
      <point x="50" y="1006"/>
      <point x="0" y="962"/>
      <point x="0" y="909" type="curve" smooth="yes"/>
      <point x="0" y="882" type="line" smooth="yes"/>
      <point x="0" y="829"/>
      <point x="50" y="785"/>
      <point x="112" y="785" type="curve" smooth="yes"/>
      <point x="174" y="785"/>
      <point x="225" y="829"/>
    </contour>
    <contour>
      <point x="225" y="91" type="curve" smooth="yes"/>
      <point x="210" y="571" type="line" smooth="yes"/>
      <point x="210" y="618"/>
      <point x="166" y="655"/>
      <point x="112" y="655" type="curve" smooth="yes"/>
      <point x="58" y="655"/>
      <point x="15" y="618"/>
      <point x="15" y="571" type="curve" smooth="yes"/>
      <point x="0" y="91" type="line" smooth="yes"/>
      <point x="0" y="38"/>
      <point x="50" y="-6"/>
      <point x="112" y="-6" type="curve" smooth="yes"/>
      <point x="174" y="-6"/>
      <point x="225" y="38"/>
    </contour>
  </outline>
</glyph>
<glyph name="dieresis" format="1">
  <advance width="729"/>
  <unicode hex="00A8"/>
  <outline>
    <contour>
      <point x="210" y="915" type="line" smooth="yes"/>
      <point x="210" y="965"/>
      <point x="163" y="1006"/>
      <point x="105" y="1006" type="curve" smooth="yes"/>
      <point x="47" y="1006"/>
      <point x="0" y="965"/>
      <point x="0" y="915" type="curve" smooth="yes"/>
      <point x="0" y="902" type="line" smooth="yes"/>
      <point x="0" y="852"/>
      <point x="47" y="812"/>
      <point x="105" y="812" type="curve" smooth="yes"/>
      <point x="163" y="812"/>
      <point x="210" y="852"/>
      <point x="210" y="902" type="curve" smooth="yes"/>
    </contour>
    <contour>
      <point x="593" y="915" type="line" smooth="yes"/>
      <point x="593" y="965"/>
      <point x="546" y="1006"/>
      <point x="488" y="1006" type="curve" smooth="yes"/>
      <point x="430" y="1006"/>
      <point x="383" y="965"/>
      <point x="383" y="915" type="curve" smooth="yes"/>
      <point x="383" y="902" type="line" smooth="yes"/>
      <point x="383" y="852"/>
      <point x="430" y="812"/>
      <point x="488" y="812" type="curve" smooth="yes"/>
      <point x="546" y="812"/>
      <point x="593" y="852"/>
      <point x="593" y="902" type="curve" smooth="yes"/>
    </contour>
  </outline>
</glyph>
<glyph name="macron" format="1">
  <advance width="635"/>
  <unicode hex="00AF"/>
  <outline>
    <contour>
      <point x="402" y="781" type="line" smooth="yes"/>
      <point x="456" y="781"/>
      <point x="500" y="824"/>
      <point x="500" y="878" type="curve" smooth="yes"/>
      <point x="500" y="932"/>
      <point x="456" y="975"/>
      <point x="402" y="975" type="curve" smooth="yes"/>
      <point x="98" y="975" type="line" smooth="yes"/>
      <point x="44" y="975"/>
      <point x="0" y="932"/>
      <point x="0" y="878" type="curve" smooth="yes"/>
      <point x="0" y="824"/>
      <point x="44" y="781"/>
      <point x="98" y="781" type="curve" smooth="yes"/>
    </contour>
  </outline>
</glyph>
<glyph name="acute" format="1">
  <advance width="452"/>
  <unicode hex="00B4"/>
  <outline>
    <contour>
      <point x="144" y="978" type="curve" smooth="yes"/>
      <point x="14" y="827" type="line" smooth="yes"/>
      <point x="-6" y="804"/>
      <point x="-4" y="767"/>
      <point x="18" y="739" type="curve" smooth="yes"/>
      <point x="41" y="712"/>
      <point x="77" y="703"/>
      <point x="104" y="719" type="curve" smooth="yes"/>
      <point x="276" y="818" type="line" smooth="yes"/>
      <point x="308" y="836"/>
      <point x="322" y="871"/>
      <point x="315" y="911" type="curve" smooth="yes"/>
      <point x="307" y="951"/>
      <point x="280" y="984"/>
      <point x="242" y="998" type="curve" smooth="yes"/>
      <point x="205" y="1013"/>
      <point x="168" y="1006"/>
    </contour>
  </outline>
</glyph>
<glyph name="periodcentered" format="1">
  <advance width="366"/>
  <unicode hex="00B7"/>
  <outline>
    <contour>
      <point x="231" y="516" type="line" smooth="yes"/>
      <point x="231" y="571"/>
      <point x="179" y="616"/>
      <point x="116" y="616" type="curve" smooth="yes"/>
      <point x="52" y="616"/>
      <point x="0" y="571"/>
      <point x="0" y="516" type="curve" smooth="yes"/>
      <point x="0" y="484" type="line" smooth="yes"/>
      <point x="0" y="429"/>
      <point x="52" y="384"/>
      <point x="116" y="384" type="curve" smooth="yes"/>
      <point x="179" y="384"/>
      <point x="231" y="429"/>
      <point x="231" y="484" type="curve" smooth="yes"/>
    </contour>
  </outline>
</glyph>
<glyph name="Agrave" format="1">
  <advance width="993"/>
  <unicode hex="00C0"/>
  <outline>
    <contour>
      <point x="340" y="417" type="line"/>
      <point x="429" y="652" type="line"/>
      <point x="517" y="417" type="line"/>
    </contour>
    <contour>
      <point x="653" y="57" type="line" smooth="yes"/>
      <point x="670" y="9"/>
      <point x="730" y="-17"/>
      <point x="785" y="-1" type="curve" smooth="yes"/>
      <point x="840" y="14"/>
      <point x="870" y="65"/>
      <point x="852" y="113" type="curve" smooth="yes"/>
      <point x="544" y="934" type="line" smooth="yes"/>
      <point x="527" y="978"/>
      <point x="482" y="1006"/>
      <point x="429" y="1006" type="curve" smooth="yes"/>
      <point x="375" y="1006"/>
      <point x="330" y="978"/>
      <point x="314" y="934" type="curve" smooth="yes"/>
      <point x="5" y="113" type="line" smooth="yes"/>
      <point x="-13" y="65"/>
      <point x="17" y="14"/>
      <point x="73" y="-1" type="curve" smooth="yes"/>
      <point x="128" y="-17"/>
      <point x="187" y="9"/>
      <point x="205" y="57" type="curve" smooth="yes"/>
      <point x="267" y="223" type="line"/>
      <point x="590" y="223" type="line"/>
    </contour>
    <contour>
      <point x="381" y="1356" type="line" smooth="yes"/>
      <point x="357" y="1383"/>
      <point x="320" y="1391"/>
      <point x="282" y="1376" type="curve" smooth="yes"/>
      <point x="245" y="1361"/>
      <point x="217" y="1329"/>
      <point x="210" y="1289" type="curve" smooth="yes"/>
      <point x="203" y="1249"/>
      <point x="217" y="1214"/>
      <point x="249" y="1195" type="curve" smooth="yes"/>
      <point x="421" y="1096" type="line" smooth="yes"/>
      <point x="448" y="1081"/>
      <point x="484" y="1090"/>
      <point x="506" y="1117" type="curve" smooth="yes"/>
      <point x="529" y="1145"/>
      <point x="531" y="1182"/>
      <point x="511" y="1205" type="curve" smooth="yes"/>
    </contour>
  </outline>
</glyph>
<glyph name="Aacute" format="1">
  <advance width="993"/>
  <unicode hex="00C1"/>
  <outline>
    <contour>
      <point x="340" y="417" type="line"/>
      <point x="429" y="652" type="line"/>
      <point x="517" y="417" type="line"/>
    </contour>
    <contour>
      <point x="653" y="57" type="line" smooth="yes"/>
      <point x="670" y="9"/>
      <point x="730" y="-17"/>
      <point x="785" y="-1" type="curve" smooth="yes"/>
      <point x="840" y="14"/>
      <point x="870" y="65"/>
      <point x="852" y="113" type="curve" smooth="yes"/>
      <point x="544" y="934" type="line" smooth="yes"/>
      <point x="527" y="978"/>
      <point x="482" y="1006"/>
      <point x="429" y="1006" type="curve" smooth="yes"/>
      <point x="375" y="1006"/>
      <point x="330" y="978"/>
      <point x="314" y="934" type="curve" smooth="yes"/>
      <point x="5" y="113" type="line" smooth="yes"/>
      <point x="-13" y="65"/>
      <point x="17" y="14"/>
      <point x="73" y="-1" type="curve" smooth="yes"/>
      <point x="128" y="-17"/>
      <point x="187" y="9"/>
      <point x="205" y="57" type="curve" smooth="yes"/>
      <point x="267" y="223" type="line"/>
      <point x="590" y="223" type="line"/>
    </contour>
    <contour>
      <point x="476" y="1350" type="curve" smooth="yes"/>
      <point x="347" y="1199" type="line" smooth="yes"/>
      <point x="326" y="1176"/>
      <point x="328" y="1139"/>
      <point x="351" y="1111" type="curve" smooth="yes"/>
      <point x="374" y="1084"/>
      <point x="410" y="1075"/>
      <point x="437" y="1090" type="curve" smooth="yes"/>
      <point x="609" y="1190" type="line" smooth="yes"/>
      <point x="640" y="1208"/>
      <point x="655" y="1243"/>
      <point x="647" y="1283" type="curve" smooth="yes"/>
      <point x="640" y="1323"/>
      <point x="613" y="1356"/>
      <point x="575" y="1370" type="curve" smooth="yes"/>
      <point x="537" y="1385"/>
      <point x="500" y="1377"/>
    </contour>
  </outline>
</glyph>
<glyph name="Acircumflex" format="1">
  <advance width="993"/>
  <unicode hex="00C2"/>
  <outline>
    <contour>
      <point x="340" y="417" type="line"/>
      <point x="429" y="652" type="line"/>
      <point x="517" y="417" type="line"/>
    </contour>
    <contour>
      <point x="653" y="57" type="line" smooth="yes"/>
      <point x="670" y="9"/>
      <point x="730" y="-17"/>
      <point x="785" y="-1" type="curve" smooth="yes"/>
      <point x="840" y="14"/>
      <point x="870" y="65"/>
      <point x="852" y="113" type="curve" smooth="yes"/>
      <point x="544" y="934" type="line" smooth="yes"/>
      <point x="527" y="978"/>
      <point x="482" y="1006"/>
      <point x="429" y="1006" type="curve" smooth="yes"/>
      <point x="375" y="1006"/>
      <point x="330" y="978"/>
      <point x="314" y="934" type="curve" smooth="yes"/>
      <point x="5" y="113" type="line" smooth="yes"/>
      <point x="-13" y="65"/>
      <point x="17" y="14"/>
      <point x="73" y="-1" type="curve" smooth="yes"/>
      <point x="128" y="-17"/>
      <point x="187" y="9"/>
      <point x="205" y="57" type="curve" smooth="yes"/>
      <point x="267" y="223" type="line"/>
      <point x="590" y="223" type="line"/>
    </contour>
    <contour>
      <point x="226" y="1245" type="line" smooth="yes"/>
      <point x="211" y="1228"/>
      <point x="203" y="1206"/>
      <point x="204" y="1181" type="curve" smooth="yes"/>
      <point x="206" y="1128"/>
      <point x="250" y="1084"/>
      <point x="303" y="1082" type="curve" smooth="yes"/>
      <point x="331" y="1081"/>
      <point x="356" y="1092"/>
      <point x="373" y="1111" type="curve" smooth="yes"/>
      <point x="429" y="1172" type="line"/>
      <point x="484" y="1111" type="line" smooth="yes"/>
      <point x="501" y="1092"/>
      <point x="526" y="1081"/>
      <point x="554" y="1082" type="curve" smooth="yes"/>
      <point x="607" y="1084"/>
      <point x="652" y="1128"/>
      <point x="654" y="1181" type="curve" smooth="yes"/>
      <point x="655" y="1206"/>
      <point x="646" y="1228"/>
      <point x="631" y="1245" type="curve" smooth="yes"/>
      <point x="524" y="1363" type="line" smooth="yes"/>
      <point x="502" y="1388"/>
      <point x="467" y="1404"/>
      <point x="429" y="1404" type="curve" smooth="yes"/>
      <point x="390" y="1404"/>
      <point x="355" y="1388"/>
      <point x="333" y="1363" type="curve" smooth="yes"/>
    </contour>
  </outline>
</glyph>
<glyph name="Atilde" format="1">
  <advance width="993"/>
  <unicode hex="00C3"/>
  <outline>
    <contour>
      <point x="340" y="417" type="line"/>
      <point x="429" y="652" type="line"/>
      <point x="517" y="417" type="line"/>
    </contour>
    <contour>
      <point x="653" y="57" type="line" smooth="yes"/>
      <point x="670" y="9"/>
      <point x="730" y="-17"/>
      <point x="785" y="-1" type="curve" smooth="yes"/>
      <point x="840" y="14"/>
      <point x="870" y="65"/>
      <point x="852" y="113" type="curve" smooth="yes"/>
      <point x="544" y="934" type="line" smooth="yes"/>
      <point x="527" y="978"/>
      <point x="482" y="1006"/>
      <point x="429" y="1006" type="curve" smooth="yes"/>
      <point x="375" y="1006"/>
      <point x="330" y="978"/>
      <point x="314" y="934" type="curve" smooth="yes"/>
      <point x="5" y="113" type="line" smooth="yes"/>
      <point x="-13" y="65"/>
      <point x="17" y="14"/>
      <point x="73" y="-1" type="curve" smooth="yes"/>
      <point x="128" y="-17"/>
      <point x="187" y="9"/>
      <point x="205" y="57" type="curve" smooth="yes"/>
      <point x="267" y="223" type="line"/>
      <point x="590" y="223" type="line"/>
    </contour>
    <contour>
      <point x="338" y="1132" type="curve" smooth="yes"/>
      <point x="352" y="1158"/>
      <point x="385" y="1123"/>
      <point x="392" y="1119" type="curve" smooth="yes"/>
      <point x="473" y="1075"/>
      <point x="590" y="1079"/>
      <point x="642" y="1172" type="curve" smooth="yes"/>
      <point x="653" y="1192"/>
      <point x="651" y="1216"/>
      <point x="637" y="1236" type="curve" smooth="yes"/>
      <point x="623" y="1257"/>
      <point x="601" y="1269"/>
      <point x="576" y="1270" type="curve" smooth="yes"/>
      <point x="551" y="1271"/>
      <point x="531" y="1259"/>
      <point x="520" y="1239" type="curve" smooth="yes"/>
      <point x="505" y="1213"/>
      <point x="472" y="1248"/>
      <point x="465" y="1252" type="curve" smooth="yes"/>
      <point x="384" y="1296"/>
      <point x="267" y="1292"/>
      <point x="216" y="1199" type="curve" smooth="yes"/>
      <point x="199" y="1169"/>
      <point x="213" y="1129"/>
      <point x="246" y="1110" type="curve" smooth="yes"/>
      <point x="280" y="1092"/>
      <point x="321" y="1102"/>
    </contour>
  </outline>
</glyph>
<glyph name="Adieresis" format="1">
  <advance width="993"/>
  <unicode hex="00C4"/>
  <outline>
    <contour>
      <point x="340" y="417" type="line"/>
      <point x="429" y="652" type="line"/>
      <point x="517" y="417" type="line"/>
    </contour>
    <contour>
      <point x="653" y="57" type="line" smooth="yes"/>
      <point x="670" y="9"/>
      <point x="730" y="-17"/>
      <point x="785" y="-1" type="curve" smooth="yes"/>
      <point x="840" y="14"/>
      <point x="870" y="65"/>
      <point x="852" y="113" type="curve" smooth="yes"/>
      <point x="544" y="934" type="line" smooth="yes"/>
      <point x="527" y="978"/>
      <point x="482" y="1006"/>
      <point x="429" y="1006" type="curve" smooth="yes"/>
      <point x="375" y="1006"/>
      <point x="330" y="978"/>
      <point x="314" y="934" type="curve" smooth="yes"/>
      <point x="5" y="113" type="line" smooth="yes"/>
      <point x="-13" y="65"/>
      <point x="17" y="14"/>
      <point x="73" y="-1" type="curve" smooth="yes"/>
      <point x="128" y="-17"/>
      <point x="187" y="9"/>
      <point x="205" y="57" type="curve" smooth="yes"/>
      <point x="267" y="223" type="line"/>
      <point x="590" y="223" type="line"/>
    </contour>
    <contour>
      <point x="342" y="1179" type="line" smooth="yes"/>
      <point x="342" y="1229"/>
      <point x="295" y="1269"/>
      <point x="237" y="1269" type="curve" smooth="yes"/>
      <point x="179" y="1269"/>
      <point x="132" y="1229"/>
      <point x="132" y="1179" type="curve" smooth="yes"/>
      <point x="132" y="1166" type="line" smooth="yes"/>
      <point x="132" y="1116"/>
      <point x="179" y="1075"/>
      <point x="237" y="1075" type="curve" smooth="yes"/>
      <point x="295" y="1075"/>
      <point x="342" y="1116"/>
      <point x="342" y="1166" type="curve" smooth="yes"/>
    </contour>
    <contour>
      <point x="725" y="1179" type="line" smooth="yes"/>
      <point x="725" y="1229"/>
      <point x="678" y="1269"/>
      <point x="620" y="1269" type="curve" smooth="yes"/>
      <point x="562" y="1269"/>
      <point x="515" y="1229"/>
      <point x="515" y="1179" type="curve" smooth="yes"/>
      <point x="515" y="1166" type="line" smooth="yes"/>
      <point x="515" y="1116"/>
      <point x="562" y="1075"/>
      <point x="620" y="1075" type="curve" smooth="yes"/>
      <point x="678" y="1075"/>
      <point x="725" y="1116"/>
      <point x="725" y="1166" type="curve" smooth="yes"/>
    </contour>
  </outline>
</glyph>
<glyph name="Aring" format="1">
  <advance width="993"/>
  <unicode hex="00C5"/>
  <outline>
    <contour>
      <point x="340" y="417" type="line"/>
      <point x="429" y="652" type="line"/>
      <point x="517" y="417" type="line"/>
    </contour>
    <contour>
      <point x="653" y="57" type="line" smooth="yes"/>
      <point x="670" y="9"/>
      <point x="730" y="-17"/>
      <point x="785" y="-1" type="curve" smooth="yes"/>
      <point x="840" y="14"/>
      <point x="870" y="65"/>
      <point x="852" y="113" type="curve" smooth="yes"/>
      <point x="544" y="934" type="line" smooth="yes"/>
      <point x="527" y="978"/>
      <point x="482" y="1006"/>
      <point x="429" y="1006" type="curve" smooth="yes"/>
      <point x="375" y="1006"/>
      <point x="330" y="978"/>
      <point x="314" y="934" type="curve" smooth="yes"/>
      <point x="5" y="113" type="line" smooth="yes"/>
      <point x="-13" y="65"/>
      <point x="17" y="14"/>
      <point x="73" y="-1" type="curve" smooth="yes"/>
      <point x="128" y="-17"/>
      <point x="187" y="9"/>
      <point x="205" y="57" type="curve" smooth="yes"/>
      <point x="267" y="223" type="line"/>
      <point x="590" y="223" type="line"/>
    </contour>
    <contour>
      <point x="341" y="1308" type="curve" smooth="yes"/>
      <point x="341" y="1356"/>
      <point x="380" y="1396"/>
      <point x="429" y="1396" type="curve" smooth="yes"/>
      <point x="477" y="1396"/>
      <point x="516" y="1356"/>
      <point x="516" y="1308" type="curve" smooth="yes"/>
      <point x="516" y="1260"/>
      <point x="477" y="1221"/>
      <point x="429" y="1221" type="curve" smooth="yes"/>
      <point x="380" y="1221"/>
      <point x="341" y="1260"/>
    </contour>
    <contour>
      <point x="177" y="1308" type="curve" smooth="yes"/>
      <point x="177" y="1179"/>
      <point x="290" y="1075"/>
      <point x="429" y="1075" type="curve" smooth="yes"/>
      <point x="568" y="1075"/>
      <point x="681" y="1179"/>
      <point x="681" y="1308" type="curve" smooth="yes"/>
      <point x="681" y="1437"/>
      <point x="568" y="1541"/>
      <point x="429" y="1541" type="curve" smooth="yes"/>
      <point x="290" y="1541"/>
      <point x="177" y="1437"/>
    </contour>
  </outline>
</glyph>
<glyph name="Egrave" format="1">
  <advance width="763"/>
  <unicode hex="00C8"/>
  <outline>
    <contour>
      <point x="529" y="0" type="line" smooth="yes"/>
      <point x="583" y="0"/>
      <point x="627" y="43"/>
      <point x="627" y="97" type="curve" smooth="yes"/>
      <point x="627" y="151"/>
      <point x="583" y="194"/>
      <point x="529" y="194" type="curve" smooth="yes"/>
      <point x="210" y="194" type="line"/>
      <point x="210" y="413" type="line"/>
      <point x="417" y="413" type="line" smooth="yes"/>
      <point x="471" y="413"/>
      <point x="515" y="456"/>
      <point x="515" y="510" type="curve" smooth="yes"/>
      <point x="515" y="564"/>
      <point x="471" y="607"/>
      <point x="417" y="607" type="curve" smooth="yes"/>
      <point x="210" y="607" type="line"/>
      <point x="210" y="806" type="line"/>
      <point x="529" y="806" type="line" smooth="yes"/>
      <point x="583" y="806"/>
      <point x="627" y="849"/>
      <point x="627" y="903" type="curve" smooth="yes"/>
      <point x="627" y="957"/>
      <point x="583" y="1000"/>
      <point x="529" y="1000" type="curve" smooth="yes"/>
      <point x="121" y="1000" type="line" smooth="yes"/>
      <point x="54" y="1000"/>
      <point x="0" y="953"/>
      <point x="0" y="896" type="curve" smooth="yes"/>
      <point x="0" y="104" type="line" smooth="yes"/>
      <point x="0" y="47"/>
      <point x="54" y="0"/>
      <point x="121" y="0" type="curve" smooth="yes"/>
    </contour>
    <contour>
      <point x="266" y="1350" type="line" smooth="yes"/>
      <point x="242" y="1377"/>
      <point x="205" y="1385"/>
      <point x="167" y="1370" type="curve" smooth="yes"/>
      <point x="130" y="1356"/>
      <point x="102" y="1323"/>
      <point x="95" y="1283" type="curve" smooth="yes"/>
      <point x="87" y="1243"/>
      <point x="102" y="1208"/>
      <point x="134" y="1190" type="curve" smooth="yes"/>
      <point x="306" y="1090" type="line" smooth="yes"/>
      <point x="333" y="1075"/>
      <point x="369" y="1084"/>
      <point x="391" y="1111" type="curve" smooth="yes"/>
      <point x="414" y="1139"/>
      <point x="416" y="1176"/>
      <point x="396" y="1199" type="curve" smooth="yes"/>
    </contour>
  </outline>
</glyph>
<glyph name="Eacute" format="1">
  <advance width="763"/>
  <unicode hex="00C9"/>
  <outline>
    <contour>
      <point x="529" y="0" type="line" smooth="yes"/>
      <point x="583" y="0"/>
      <point x="627" y="43"/>
      <point x="627" y="97" type="curve" smooth="yes"/>
      <point x="627" y="151"/>
      <point x="583" y="194"/>
      <point x="529" y="194" type="curve" smooth="yes"/>
      <point x="210" y="194" type="line"/>
      <point x="210" y="413" type="line"/>
      <point x="417" y="413" type="line" smooth="yes"/>
      <point x="471" y="413"/>
      <point x="515" y="456"/>
      <point x="515" y="510" type="curve" smooth="yes"/>
      <point x="515" y="564"/>
      <point x="471" y="607"/>
      <point x="417" y="607" type="curve" smooth="yes"/>
      <point x="210" y="607" type="line"/>
      <point x="210" y="806" type="line"/>
      <point x="529" y="806" type="line" smooth="yes"/>
      <point x="583" y="806"/>
      <point x="627" y="849"/>
      <point x="627" y="903" type="curve" smooth="yes"/>
      <point x="627" y="957"/>
      <point x="583" y="1000"/>
      <point x="529" y="1000" type="curve" smooth="yes"/>
      <point x="121" y="1000" type="line" smooth="yes"/>
      <point x="54" y="1000"/>
      <point x="0" y="953"/>
      <point x="0" y="896" type="curve" smooth="yes"/>
      <point x="0" y="104" type="line" smooth="yes"/>
      <point x="0" y="47"/>
      <point x="54" y="0"/>
      <point x="121" y="0" type="curve" smooth="yes"/>
    </contour>
    <contour>
      <point x="361" y="1350" type="curve" smooth="yes"/>
      <point x="231" y="1199" type="line" smooth="yes"/>
      <point x="211" y="1176"/>
      <point x="213" y="1139"/>
      <point x="236" y="1111" type="curve" smooth="yes"/>
      <point x="259" y="1084"/>
      <point x="295" y="1075"/>
      <point x="322" y="1090" type="curve" smooth="yes"/>
      <point x="494" y="1190" type="line" smooth="yes"/>
      <point x="525" y="1208"/>
      <point x="540" y="1243"/>
      <point x="532" y="1283" type="curve" smooth="yes"/>
      <point x="525" y="1323"/>
      <point x="498" y="1356"/>
      <point x="460" y="1370" type="curve" smooth="yes"/>
      <point x="422" y="1385"/>
      <point x="385" y="1377"/>
    </contour>
  </outline>
</glyph>
<glyph name="Ecircumflex" format="1">
  <advance width="763"/>
  <unicode hex="00CA"/>
  <outline>
    <contour>
      <point x="529" y="0" type="line" smooth="yes"/>
      <point x="583" y="0"/>
      <point x="627" y="43"/>
      <point x="627" y="97" type="curve" smooth="yes"/>
      <point x="627" y="151"/>
      <point x="583" y="194"/>
      <point x="529" y="194" type="curve" smooth="yes"/>
      <point x="210" y="194" type="line"/>
      <point x="210" y="413" type="line"/>
      <point x="417" y="413" type="line" smooth="yes"/>
      <point x="471" y="413"/>
      <point x="515" y="456"/>
      <point x="515" y="510" type="curve" smooth="yes"/>
      <point x="515" y="564"/>
      <point x="471" y="607"/>
      <point x="417" y="607" type="curve" smooth="yes"/>
      <point x="210" y="607" type="line"/>
      <point x="210" y="806" type="line"/>
      <point x="529" y="806" type="line" smooth="yes"/>
      <point x="583" y="806"/>
      <point x="627" y="849"/>
      <point x="627" y="903" type="curve" smooth="yes"/>
      <point x="627" y="957"/>
      <point x="583" y="1000"/>
      <point x="529" y="1000" type="curve" smooth="yes"/>
      <point x="121" y="1000" type="line" smooth="yes"/>
      <point x="54" y="1000"/>
      <point x="0" y="953"/>
      <point x="0" y="896" type="curve" smooth="yes"/>
      <point x="0" y="104" type="line" smooth="yes"/>
      <point x="0" y="47"/>
      <point x="54" y="0"/>
      <point x="121" y="0" type="curve" smooth="yes"/>
    </contour>
    <contour>
      <point x="111" y="1239" type="line" smooth="yes"/>
      <point x="96" y="1222"/>
      <point x="88" y="1200"/>
      <point x="89" y="1175" type="curve" smooth="yes"/>
      <point x="90" y="1122"/>
      <point x="135" y="1078"/>
      <point x="188" y="1076" type="curve" smooth="yes"/>
      <point x="216" y="1075"/>
      <point x="241" y="1086"/>
      <point x="258" y="1105" type="curve" smooth="yes"/>
      <point x="314" y="1166" type="line"/>
      <point x="369" y="1105" type="line" smooth="yes"/>
      <point x="386" y="1086"/>
      <point x="411" y="1075"/>
      <point x="439" y="1076" type="curve" smooth="yes"/>
      <point x="492" y="1078"/>
      <point x="537" y="1122"/>
      <point x="539" y="1175" type="curve"/>
      <point x="539" y="1200"/>
      <point x="531" y="1222"/>
      <point x="516" y="1239" type="curve" smooth="yes"/>
      <point x="409" y="1358" type="line" smooth="yes"/>
      <point x="387" y="1382"/>
      <point x="352" y="1398"/>
      <point x="314" y="1398" type="curve" smooth="yes"/>
      <point x="275" y="1398"/>
      <point x="240" y="1382"/>
      <point x="218" y="1358" type="curve" smooth="yes"/>
    </contour>
  </outline>
</glyph>
<glyph name="Igrave" format="1">
  <advance width="345"/>
  <unicode hex="00CC"/>
  <outline>
    <contour>
      <point x="210" y="915" type="line" smooth="yes"/>
      <point x="210" y="965"/>
      <point x="163" y="1006"/>
      <point x="105" y="1006" type="curve" smooth="yes"/>
      <point x="47" y="1006"/>
      <point x="0" y="965"/>
      <point x="0" y="915" type="curve" smooth="yes"/>
      <point x="0" y="85" type="line" smooth="yes"/>
      <point x="0" y="35"/>
      <point x="47" y="-6"/>
      <point x="105" y="-6" type="curve" smooth="yes"/>
      <point x="163" y="-6"/>
      <point x="210" y="35"/>
      <point x="210" y="85" type="curve" smooth="yes"/>
    </contour>
    <contour>
      <point x="57" y="1350" type="line" smooth="yes"/>
      <point x="34" y="1377"/>
      <point x="-3" y="1385"/>
      <point x="-41" y="1370" type="curve" smooth="yes"/>
      <point x="-79" y="1356"/>
      <point x="-106" y="1323"/>
      <point x="-114" y="1283" type="curve" smooth="yes"/>
      <point x="-121" y="1243"/>
      <point x="-107" y="1208"/>
      <point x="-75" y="1190" type="curve" smooth="yes"/>
      <point x="97" y="1090" type="line" smooth="yes"/>
      <point x="124" y="1075"/>
      <point x="160" y="1084"/>
      <point x="183" y="1111" type="curve" smooth="yes"/>
      <point x="206" y="1139"/>
      <point x="207" y="1176"/>
      <point x="187" y="1199" type="curve" smooth="yes"/>
    </contour>
  </outline>
</glyph>
<glyph name="Iacute" format="1">
  <advance width="345"/>
  <unicode hex="00CD"/>
  <outline>
    <contour>
      <point x="210" y="915" type="line" smooth="yes"/>
      <point x="210" y="965"/>
      <point x="163" y="1006"/>
      <point x="105" y="1006" type="curve" smooth="yes"/>
      <point x="47" y="1006"/>
      <point x="0" y="965"/>
      <point x="0" y="915" type="curve" smooth="yes"/>
      <point x="0" y="85" type="line" smooth="yes"/>
      <point x="0" y="35"/>
      <point x="47" y="-6"/>
      <point x="105" y="-6" type="curve" smooth="yes"/>
      <point x="163" y="-6"/>
      <point x="210" y="35"/>
      <point x="210" y="85" type="curve" smooth="yes"/>
    </contour>
    <contour>
      <point x="153" y="1350" type="curve" smooth="yes"/>
      <point x="23" y="1199" type="line" smooth="yes"/>
      <point x="3" y="1176"/>
      <point x="4" y="1139"/>
      <point x="27" y="1111" type="curve" smooth="yes"/>
      <point x="50" y="1084"/>
      <point x="86" y="1075"/>
      <point x="113" y="1090" type="curve" smooth="yes"/>
      <point x="285" y="1190" type="line" smooth="yes"/>
      <point x="317" y="1208"/>
      <point x="331" y="1243"/>
      <point x="324" y="1283" type="curve" smooth="yes"/>
      <point x="316" y="1323"/>
      <point x="289" y="1356"/>
      <point x="251" y="1370" type="curve" smooth="yes"/>
      <point x="213" y="1385"/>
      <point x="176" y="1377"/>
    </contour>
  </outline>
</glyph>
<glyph name="Icircumflex" format="1">
  <advance width="585"/>
  <unicode hex="00CE"/>
  <outline>
    <contour>
      <point x="330" y="915" type="line" smooth="yes"/>
      <point x="330" y="965"/>
      <point x="283" y="1006"/>
      <point x="225" y="1006" type="curve" smooth="yes"/>
      <point x="167" y="1006"/>
      <point x="120" y="965"/>
      <point x="120" y="915" type="curve" smooth="yes"/>
      <point x="120" y="85" type="line" smooth="yes"/>
      <point x="120" y="35"/>
      <point x="167" y="-6"/>
      <point x="225" y="-6" type="curve" smooth="yes"/>
      <point x="283" y="-6"/>
      <point x="330" y="35"/>
      <point x="330" y="85" type="curve" smooth="yes"/>
    </contour>
    <contour>
      <point x="23" y="1245" type="line" smooth="yes"/>
      <point x="8" y="1228"/>
      <point x="-1" y="1206"/>
      <point x="0" y="1181" type="curve" smooth="yes"/>
      <point x="2" y="1128"/>
      <point x="46" y="1084"/>
      <point x="100" y="1082" type="curve" smooth="yes"/>
      <point x="128" y="1081"/>
      <point x="153" y="1092"/>
      <point x="170" y="1111" type="curve" smooth="yes"/>
      <point x="225" y="1172" type="line"/>
      <point x="281" y="1111" type="line" smooth="yes"/>
      <point x="297" y="1092"/>
      <point x="322" y="1081"/>
      <point x="351" y="1082" type="curve" smooth="yes"/>
      <point x="404" y="1084"/>
      <point x="448" y="1128"/>
      <point x="450" y="1181" type="curve" smooth="yes"/>
      <point x="451" y="1206"/>
      <point x="442" y="1228"/>
      <point x="427" y="1245" type="curve" smooth="yes"/>
      <point x="320" y="1363" type="line" smooth="yes"/>
      <point x="298" y="1388"/>
      <point x="264" y="1404"/>
      <point x="225" y="1404" type="curve" smooth="yes"/>
      <point x="186" y="1404"/>
      <point x="152" y="1388"/>
      <point x="130" y="1363" type="curve" smooth="yes"/>
    </contour>
  </outline>
</glyph>
